<?xml version="1.0" standalone="no"?>
<!DOCTYPE svg PUBLIC "-//W3C//DTD SVG 1.1//EN" "http://www.w3.org/Graphics/SVG/1.1/DTD/svg11.dtd" >
<svg xmlns="http://www.w3.org/2000/svg">
<metadata></metadata>
<defs>
<font id="interstate-lightregular" horiz-adv-x="1388" >
<font-face units-per-em="2048" ascent="1638" descent="-410" />
<missing-glyph horiz-adv-x="532" />
<glyph horiz-adv-x="2048" />
<glyph horiz-adv-x="2048" />
<glyph unicode="&#xd;" horiz-adv-x="1024" />
<glyph unicode=" "  horiz-adv-x="532" />
<glyph unicode="&#x09;" horiz-adv-x="532" />
<glyph unicode="&#xa0;" horiz-adv-x="532" />
<glyph unicode="!" horiz-adv-x="538" d="M143 102q0 -51 37 -88t88 -37q49 0 87 37t38 88t-38 90t-87 39q-51 0 -88 -38.5t-37 -90.5zM190 760l35 -375h86l37 375v674h-158v-674z" />
<glyph unicode="&#x22;" horiz-adv-x="942" d="M172 1434l35 -670h121l34 670h-190zM580 1434l34 -670h121l35 670h-190z" />
<glyph unicode="#" horiz-adv-x="1376" d="M106 360h246v-360h154v360h364v-360h154v360h246v144h-246v426h246v143h-246v361h-154v-361h-364v361h-154v-361h-246v-143h246v-426h-246v-144zM506 504v426h364v-426h-364z" />
<glyph unicode="$" horiz-adv-x="1191" d="M102 197q74 -76 178.5 -128.5t227.5 -66.5v-207h154v207q188 20 292.5 125.5t104.5 259.5q0 80 -20.5 140.5t-68.5 108.5t-128 90t-199 85q-109 39 -175.5 70.5t-103 62.5t-49 65.5t-12.5 80.5q0 86 65.5 143t213.5 57q109 0 187.5 -33.5t156.5 -99.5l102 125 q-80 63 -165 102t-201 50v204h-154v-206q-166 -18 -265.5 -108.5t-99.5 -244.5q0 -78 21.5 -135t70 -104t127 -87t195.5 -81q98 -35 163.5 -67t105.5 -65.5t56.5 -72.5t16.5 -88q0 -115 -83 -175.5t-226 -60.5q-111 0 -205 47.5t-176 124.5z" />
<glyph unicode="%" horiz-adv-x="1972" d="M123 1008q0 -98 23.5 -180.5t66.5 -140.5t103.5 -90t136.5 -32t137 33t105 92.5t68.5 141.5t24.5 180t-22.5 180t-65.5 140.5t-104 91t-139 32.5t-139.5 -32.5t-104.5 -92t-66.5 -141.5t-23.5 -182zM264 1012q0 141 50.5 231t140.5 90q45 0 80.5 -24.5t60.5 -67.5 t38 -103t13 -130q0 -66 -13 -123.5t-38 -101.5t-59.5 -69.5t-79.5 -25.5q-90 0 -141.5 91t-51.5 233zM465 0h149l891 1434h-149zM1184 420q0 -98 23.5 -180t66.5 -140.5t103.5 -90.5t135.5 -32q76 0 137.5 33t105.5 92.5t68.5 141.5t24.5 180t-22.5 180t-65.5 140.5 t-104.5 91t-138.5 32.5q-78 0 -139.5 -32.5t-104.5 -92t-66.5 -141.5t-23.5 -182zM1325 424q0 141 50 231t141 90q45 0 80.5 -24.5t60 -67.5t38 -103t13.5 -130q0 -66 -13.5 -123t-38 -101t-59 -70t-79.5 -26q-90 0 -141.5 91.5t-51.5 232.5z" />
<glyph unicode="&#x26;" horiz-adv-x="1318" d="M125 362q0 -78 23.5 -148.5t74.5 -122.5t133 -83t201 -31q117 0 213 46.5t174 126.5l115 -150h188l-207 270q94 145 144 328l-135 41q-23 -72 -46.5 -135.5t-52.5 -116.5l-436 567q-41 53 -63.5 98.5t-22.5 102.5q0 72 54.5 117t150.5 45q84 0 152.5 -26.5t148.5 -90.5 l82 127q-78 61 -169 95t-212 34q-84 0 -151.5 -22.5t-114.5 -64.5t-73 -98.5t-26 -123.5q0 -84 37 -149.5t90 -137.5l49 -65q-76 -39 -135 -81t-101 -93.5t-63.5 -115t-21.5 -143.5zM279 367q0 104 57 183t192 140l332 -434q-59 -66 -133 -102.5t-166 -36.5 q-139 0 -210.5 72.5t-71.5 177.5z" />
<glyph unicode="'" horiz-adv-x="526" d="M166 1434l35 -670h125l34 670h-194z" />
<glyph unicode="(" horiz-adv-x="712" d="M129 614q0 -141 36 -263t94 -226.5t133 -192.5t153 -157l67 63q-74 76 -133 159t-102 179t-66.5 208t-23.5 241q0 125 23.5 234.5t66.5 204.5t102.5 179t132.5 160l-67 63q-78 -72 -153 -157.5t-133 -191t-94 -230.5t-36 -273z" />
<glyph unicode=")" horiz-adv-x="712" d="M100 -162l68 -63q78 70 152.5 156.5t133 192t94.5 231t36 272.5q0 141 -36 263t-94.5 226.5t-133 191.5t-152.5 158l-68 -63q74 -76 133.5 -159t102.5 -179t66.5 -208t23.5 -241q0 -250 -90 -439t-236 -339z" />
<glyph unicode="*" horiz-adv-x="1024" d="M147 911l64 -110l272 203l-34 -340h126l-34 340l272 -203l64 110l-304 138l304 137l-64 110l-272 -202l34 340h-126l34 -340l-272 202l-64 -110l304 -137z" />
<glyph unicode="+" horiz-adv-x="1181" d="M113 635h403v-416h150v416h403v139h-403v416h-150v-416h-403v-139z" />
<glyph unicode="," horiz-adv-x="491" d="M123 -242h106l133 478h-208z" />
<glyph unicode="-" horiz-adv-x="659" d="M104 674h451v149h-451v-149z" />
<glyph unicode="." horiz-adv-x="491" d="M115 109q0 -53 39 -92.5t92 -39.5t92 39.5t39 92.5t-39 94t-92 41t-92 -41t-39 -94z" />
<glyph unicode="/" horiz-adv-x="870" d="M53 -184h152l612 1802h-151z" />
<glyph unicode="0" horiz-adv-x="1314" d="M121 717q0 -178 39 -316.5t109.5 -231.5t169 -142.5t218.5 -49.5q119 0 218.5 49.5t170 142.5t109.5 231.5t39 316.5t-39 316t-109.5 231.5t-170 142.5t-218.5 49q-121 0 -219 -49t-168.5 -142.5t-109.5 -231.5t-39 -316zM279 717q0 279 96 437.5t282 158.5t282.5 -158.5 t96.5 -437.5t-96 -437.5t-283 -158.5q-186 0 -282 158.5t-96 437.5z" />
<glyph unicode="1" horiz-adv-x="638" d="M31 1147h260v-1147h158v1434h-121q-18 -100 -98 -139.5t-199 -47.5v-100z" />
<glyph unicode="2" horiz-adv-x="1165" d="M80 0h942v152h-760q10 57 30.5 107t63.5 102.5t114 110.5t179 132q98 68 166 120t111 105.5t62.5 112.5t19.5 139q0 96 -34 167t-93.5 117t-141.5 68.5t-176 22.5q-78 0 -140.5 -11t-116.5 -32.5t-100 -51.5t-89 -65l92 -116q68 59 146.5 96t201.5 37q141 0 217 -64.5 t76 -175.5q0 -49 -12.5 -89t-47 -82t-95 -90t-154.5 -112q-102 -70 -184.5 -137t-141.5 -147t-94 -180.5t-41 -235.5z" />
<glyph unicode="3" horiz-adv-x="1153" d="M66 176q35 -39 83 -74.5t105 -63.5t122.5 -44.5t133.5 -16.5q238 0 374 115t136 320q0 80 -21.5 138t-57.5 100t-84 66.5t-99 37.5q92 47 147.5 125.5t55.5 210.5q0 92 -35 160.5t-95.5 114.5t-142.5 68.5t-176 22.5q-66 0 -123 -14.5t-107.5 -39t-91 -55t-71.5 -63.5 l100 -102q53 57 125 94t164 37q82 0 138 -18.5t91 -51.5t50.5 -78t15.5 -96q0 -115 -67.5 -184.5t-209.5 -69.5h-98v-137h94q154 0 247 -67.5t93 -202.5q0 -139 -84 -213t-260 -74q-104 0 -191 45t-155 117z" />
<glyph unicode="4" horiz-adv-x="1280" d="M80 340h766v-340h147v340h197v137h-197v957h-172l-741 -961v-133zM254 477q18 23 44 53.5t51.5 63.5t51 65.5t48.5 61.5l194 252q27 35 55.5 72.5t56 73.5t51 68t40.5 56v-131v-635h-463h-129z" />
<glyph unicode="5" horiz-adv-x="1239" d="M119 109q92 -59 205.5 -95.5t246.5 -36.5q119 0 217.5 30t170 91.5t111.5 155.5t40 223q0 96 -30.5 176t-91 137.5t-153 89t-214.5 31.5q-102 0 -182.5 -26.5t-133.5 -63.5l35 461h684v152h-821l-49 -697l157 -61q59 41 129 66.5t170 25.5q170 0 256 -80t86 -221 q0 -154 -91 -250t-277 -96q-109 0 -208.5 31.5t-178.5 83.5z" />
<glyph unicode="6" horiz-adv-x="1257" d="M125 543q0 -154 40 -261.5t109.5 -175t163.5 -98.5t201 -31q113 0 209 30t166.5 88.5t111.5 145t41 201.5q0 111 -37.5 194t-102 137t-150.5 81t-185 27q-152 0 -248 -47.5t-165 -120.5q55 274 223 425.5t452 176.5v141q-158 -10 -279.5 -55t-213.5 -116t-156.5 -160 t-104.5 -188t-57.5 -200.5t-17.5 -193.5zM283 434q0 137 98 220t270 83q170 0 264.5 -79t94.5 -224q0 -139 -92.5 -226t-272.5 -87q-82 0 -148.5 23.5t-114.5 65.5t-73.5 99.5t-25.5 124.5z" />
<glyph unicode="7" horiz-adv-x="1138" d="M33 1282h768q-98 -129 -181 -273.5t-144.5 -304t-97.5 -335.5t-42 -369h162q4 211 44 394.5t104.5 342t149.5 294.5t179 253v150h-942v-152z" />
<glyph unicode="8" horiz-adv-x="1302" d="M119 397q0 -104 37 -183t106.5 -131t166.5 -79t220 -27t221.5 27t168 81t107.5 133t38 183q0 141 -75 233.5t-210 137.5q102 43 162.5 114.5t60.5 188.5q0 84 -30.5 153.5t-90 121t-146.5 79t-202 27.5t-203 -28.5t-148 -80t-91 -122t-31 -154.5q0 -119 62.5 -191.5 t160.5 -111.5q-135 -45 -209.5 -137t-74.5 -234zM276 401q0 127 96.5 207t276.5 80t278.5 -82t98.5 -209t-91 -201.5t-282 -74.5q-190 0 -283.5 76.5t-93.5 203.5zM338 1075q0 45 16.5 88t53 76t96 53.5t145.5 20.5t146.5 -20.5t97.5 -54.5t54.5 -78t17.5 -89 q0 -100 -84 -170t-228 -70q-147 0 -231 70t-84 174z" />
<glyph unicode="9" horiz-adv-x="1257" d="M90 991q0 -111 37 -193.5t101.5 -137t151.5 -81t185 -26.5q152 0 248 47t166 121q-55 -274 -223 -426t-453 -176v-142q158 8 280 54.5t214 117t156.5 159.5t104.5 188.5t57.5 201t17.5 193.5q0 154 -40 261.5t-110 175t-164 98t-201 30.5q-113 0 -209 -29.5t-166.5 -88 t-111.5 -145.5t-41 -202zM248 999q0 139 92 226.5t272 87.5q82 0 148.5 -23.5t114 -65.5t74 -99.5t26.5 -125.5q0 -137 -98.5 -220t-270.5 -83q-170 0 -264 79t-94 224z" />
<glyph unicode=":" horiz-adv-x="491" d="M115 109q0 -53 39 -92.5t92 -39.5t92 39.5t39 92.5t-39 94t-92 41t-92 -41t-39 -94zM115 963q0 -53 39 -92.5t92 -39.5t92 39.5t39 92.5t-39 94t-92 41t-92 -41t-39 -94z" />
<glyph unicode=";" horiz-adv-x="491" d="M109 -242h106l133 478h-209zM115 963q0 -53 39 -92.5t92 -39.5t92 39.5t39 92.5t-39 94t-92 41t-92 -41t-39 -94z" />
<glyph unicode="&#x3c;" horiz-adv-x="788" d="M117 635l530 -508v195l-409 385l409 385v190l-530 -508v-139z" />
<glyph unicode="=" horiz-adv-x="1181" d="M164 410h854v143h-854v-143zM164 856h854v143h-854v-143z" />
<glyph unicode="&#x3e;" horiz-adv-x="788" d="M141 127l531 508v139l-531 508v-195l410 -385l-410 -385v-190z" />
<glyph unicode="?" horiz-adv-x="1148" d="M90 1266l103 -113q80 74 168 116t202 42q129 0 209 -60.5t80 -158.5q0 -88 -43 -138.5t-123 -99.5t-128 -90t-73.5 -91t-33 -118t-7.5 -170h158q0 80 5 133t21.5 90t47.5 65.5t82 59.5q59 37 106 72t80 76t50.5 95t17.5 128q0 88 -33 153.5t-91.5 109.5t-139 66.5 t-179.5 22.5q-156 0 -276.5 -55t-202.5 -135zM395 102q0 -51 37 -88t88 -37q49 0 87 37t38 88t-38 90t-87 39q-51 0 -88 -38.5t-37 -90.5z" />
<glyph unicode="@" horiz-adv-x="1712" d="M117 717q0 -160 55 -296t153.5 -234.5t234.5 -154t296 -55.5q88 0 157.5 14.5t157.5 55.5l-36 90q-66 -33 -131.5 -48t-147.5 -15q-139 0 -256 46t-201 131t-132 204.5t-48 265.5q0 143 48 262t132 202t201 129t256 46q137 0 254 -45t202 -127t133 -198t48 -255 q0 -92 -14.5 -154.5t-39 -102.5t-59 -57.5t-75.5 -17.5q-78 0 -112 39t-34 95v395q0 125 -83 176t-220 51q-76 0 -141.5 -16.5t-126.5 -46.5l45 -88q47 23 100 36t109 13q113 0 162 -33t49 -98v-121q-39 23 -93.5 39t-134.5 16q-70 0 -130 -17.5t-105 -51t-70.5 -84 t-25.5 -115.5q0 -72 23.5 -124t65.5 -87t99 -52.5t125 -17.5q86 0 152.5 35t113.5 94q29 -53 85 -91t134 -38q68 0 124.5 23.5t96 74t61 131t21.5 197.5q0 145 -54 276.5t-151.5 229.5t-233.5 155.5t-300 57.5q-160 0 -296 -55t-234.5 -153.5t-153.5 -234.5t-55 -296z M608 598q0 72 57.5 118t149.5 46q80 0 139.5 -18.5t98.5 -41.5v-165q-35 -53 -99.5 -88t-136.5 -35q-111 0 -160 47t-49 137z" />
<glyph unicode="A" d="M109 0h163l125 365h592l123 -365h168l-498 1434h-176zM446 510l158 467q12 37 26.5 79t27 81t21.5 71.5t15 55.5q6 -23 15.5 -56.5t21.5 -71.5t25.5 -79t25.5 -76l158 -471h-494z" />
<glyph unicode="B" horiz-adv-x="1282" d="M188 0h514q227 0 347 105.5t120 318.5q0 86 -24.5 148.5t-63.5 104.5t-88 67.5t-98 37.5q92 33 149.5 103.5t57.5 189.5q0 92 -29 160t-81 112t-122.5 65.5t-156.5 21.5h-525v-1434zM348 145v553h357q141 0 223 -73.5t82 -208.5q0 -123 -68 -197t-229 -74h-365zM348 842 v446h359q121 0 178 -60.5t57 -158.5q0 -94 -57.5 -160.5t-190.5 -66.5h-346z" />
<glyph unicode="C" horiz-adv-x="1286" d="M127 715q0 -158 41 -293t116.5 -233.5t183 -155t239.5 -56.5q158 0 274.5 66t194.5 172l-111 96q-70 -90 -154 -139t-200 -49q-90 0 -168 44t-135.5 123t-89 188.5t-31.5 240.5t31.5 239.5t87 186.5t133 122t170.5 44q117 0 190.5 -43t142.5 -138l127 97 q-166 229 -456 229q-129 0 -237.5 -56.5t-185.5 -154.5t-120 -234.5t-43 -295.5z" />
<glyph unicode="D" horiz-adv-x="1347" d="M188 0h351q143 0 268 40t217 128t144.5 226t52.5 333q0 184 -49.5 317.5t-136.5 220.5t-206.5 128t-261.5 41h-379v-1434zM348 145v1143h207q248 0 377 -145.5t129 -421.5q0 -154 -35 -263.5t-100.5 -179t-157.5 -101.5t-209 -32h-211z" />
<glyph unicode="E" horiz-adv-x="1202" d="M188 0h897v145h-737v547h410v146h-410v450h707v146h-867v-1434z" />
<glyph unicode="F" horiz-adv-x="1122" d="M188 0h160v668h393v145h-393v475h682v146h-842v-1434z" />
<glyph unicode="G" horiz-adv-x="1349" d="M127 715q0 -158 41 -293t116.5 -233.5t183 -155t239.5 -56.5q113 0 210 37t168.5 112t111.5 186.5t40 258.5v140h-414v-148h258v-12q0 -211 -95 -319.5t-275 -108.5q-90 0 -168 44t-134.5 123t-89 188.5t-32.5 240.5t31.5 239.5t87 186.5t133 122t170.5 44 q117 0 190.5 -43t142.5 -138l127 97q-166 229 -456 229q-129 0 -237.5 -56.5t-185.5 -154.5t-120 -234.5t-43 -295.5z" />
<glyph unicode="H" horiz-adv-x="1409" d="M188 0h160v676h713v-676h160v1434h-160v-613h-713v613h-160v-1434z" />
<glyph unicode="I" horiz-adv-x="557" d="M199 0h159v1434h-159v-1434z" />
<glyph unicode="J" horiz-adv-x="1183" d="M61 324q57 -168 165 -257.5t290 -89.5q490 1 490 572v885h-160v-879q0 -225 -76 -328.5t-248 -103.5q-127 0 -196.5 67.5t-112.5 184.5z" />
<glyph unicode="K" horiz-adv-x="1314" d="M188 0h160v412l273 352l423 -764h183l-500 895l420 539h-174l-416 -537q-23 -29 -52.5 -67.5t-60 -79.5t-56.5 -77t-40 -57v193v625h-160v-1434z" />
<glyph unicode="L" horiz-adv-x="1177" d="M188 0h869v145h-709v1289h-160v-1434z" />
<glyph unicode="M" horiz-adv-x="1613" d="M188 0h154v971v153q6 -20 15.5 -50t20.5 -61.5t23.5 -65.5t24.5 -60l377 -924l383 924q12 29 24.5 61.5t24.5 64t21.5 61.5t15.5 50v-153v-971h153v1434h-174l-342 -859q-12 -31 -27.5 -69.5t-29.5 -77.5t-26.5 -74t-18.5 -57q-6 23 -18.5 56.5t-26.5 72.5t-29.5 78 t-27.5 71l-338 859h-179v-1434z" />
<glyph unicode="N" horiz-adv-x="1409" d="M188 0h154v1063v98q6 -14 19.5 -36.5t27.5 -48t28.5 -51.5t26.5 -44l627 -981h150v1434h-154v-1082v-98q-6 14 -19.5 36.5t-27.5 48.5t-28.5 51.5t-26.5 43.5l-621 1000h-156v-1434z" />
<glyph unicode="O" horiz-adv-x="1443" d="M127 715q0 -162 42 -297t120 -233.5t187.5 -153t242.5 -54.5t243.5 55.5t189.5 154t122 234.5t43 298t-43 297t-121 233.5t-187.5 152.5t-242.5 54t-243.5 -55t-188.5 -153.5t-121 -234.5t-43 -298zM287 719q0 135 32.5 244.5t90 186.5t136.5 119t171 42q94 0 174 -42 t139.5 -121t93 -188.5t33.5 -244.5t-32.5 -245t-90 -186.5t-137.5 -118.5t-172 -42q-94 0 -174 42t-138.5 121t-92 188.5t-33.5 244.5z" />
<glyph unicode="P" horiz-adv-x="1265" d="M188 0h160v563h348q106 0 196.5 29t154 85t99.5 139.5t36 189.5q0 109 -35 189.5t-96.5 133.5t-144.5 79t-181 26h-537v-1434zM348 709v579h371q147 0 225 -75t78 -214q0 -290 -322 -290h-2h-350z" />
<glyph unicode="Q" horiz-adv-x="1443" d="M127 715q0 -162 42 -297t120 -233.5t187.5 -153t242.5 -54.5q115 0 217 46l90 -148l131 78l-92 149q117 98 184.5 257t67.5 360q0 162 -43 297t-121 233.5t-187.5 152.5t-242.5 54t-243.5 -55t-188.5 -153.5t-121 -234.5t-43 -298zM287 719q0 135 32.5 244.5t90 186.5 t136.5 119t171 42q94 0 174 -42t139.5 -121t93 -188.5t33.5 -244.5q0 -168 -45 -291t-123 -197l-115 189l-131 -78l117 -191q-59 -24 -129 -24h-6q-94 0 -174 42t-138.5 121t-92 188.5t-33.5 244.5z" />
<glyph unicode="R" horiz-adv-x="1331" d="M188 0h160v610h340l307 -610h185l-316 623q154 33 246 135t92 270q0 104 -34.5 180t-94 126t-141.5 75t-176 25h-568v-1434zM348 754v534h402q143 0 217.5 -66.5t74.5 -199.5q0 -135 -76.5 -201.5t-236.5 -66.5h-381z" />
<glyph unicode="S" horiz-adv-x="1212" d="M113 176q86 -86 209.5 -142.5t271.5 -56.5q113 0 201 31t149.5 84t93 127t31.5 158q0 80 -20.5 141.5t-68.5 112.5t-128 94t-199 86q-109 39 -175 71.5t-103 66.5t-49.5 70t-12.5 81q0 43 15.5 81t49.5 66.5t87 46t127 17.5q109 0 187.5 -34t156.5 -99l102 125 q-90 72 -191.5 112.5t-244.5 40.5q-100 0 -183 -24.5t-141.5 -72.5t-91 -115.5t-32.5 -153.5q0 -78 21.5 -137.5t69.5 -107.5t127 -90t195 -83q98 -35 164 -69t106 -68.5t56 -75.5t16 -90q0 -115 -83 -180.5t-226 -65.5q-111 0 -205 47t-176 125z" />
<glyph unicode="T" horiz-adv-x="1204" d="M100 1288h422v-1288h160v1288h422v146h-1004v-146z" />
<glyph unicode="U" d="M178 582q0 -299 130 -452t388 -153q260 0 387 155t127 454v848h-159v-852q0 -233 -80 -346t-266 -113q-367 0 -367 463v848h-160v-852z" />
<glyph unicode="V" horiz-adv-x="1368" d="M109 1434l487 -1434h176l488 1434h-164l-322 -977q-10 -31 -23.5 -73t-26.5 -83t-23.5 -77t-16.5 -54q-6 18 -16.5 53l-22.5 75t-25.5 81t-23.5 74l-320 981h-167z" />
<glyph unicode="W" horiz-adv-x="1753" d="M117 1434l286 -1434h177l225 918q8 37 18.5 79.5t19.5 85.5t17 84t14 74q6 -33 14.5 -75t17.5 -85t19.5 -86t18.5 -77l225 -918h181l286 1434h-155l-168 -922q-6 -35 -13.5 -80t-14.5 -89t-14 -84t-11 -66q-4 27 -12.5 65.5t-17.5 82.5t-19.5 88t-18.5 79l-227 926h-172 l-228 -926q-8 -35 -18 -79t-19.5 -88t-17.5 -83t-12 -65q-4 27 -11.5 66.5t-14.5 83.5t-14 89t-14 80l-168 922h-159z" />
<glyph unicode="X" horiz-adv-x="1294" d="M117 0h176l223 375q41 68 71.5 125t59.5 112q27 -53 58.5 -110.5t72.5 -126.5l219 -375h181l-447 750l410 684h-176l-185 -314q-41 -70 -72.5 -127t-58.5 -110q-29 55 -59.5 112.5t-71.5 124.5l-184 314h-180l409 -689z" />
<glyph unicode="Y" horiz-adv-x="1335" d="M96 1434l492 -867v-567h160v569l491 865h-178l-230 -412q-43 -78 -87 -161t-74 -146q-31 63 -75 146t-87 161l-229 412h-183z" />
<glyph unicode="Z" horiz-adv-x="1286" d="M125 0h1024v139h-690h-162q41 53 86 112.5t88 119.5l678 923v140h-983v-140h649h162q-41 -53 -86 -112.5t-88 -118.5l-678 -924v-139z" />
<glyph unicode="[" horiz-adv-x="720" d="M195 -225h397v125h-248v1409h248v125h-397v-1659z" />
<glyph unicode="\" horiz-adv-x="870" d="M53 1618l613 -1802h151l-612 1802h-152z" />
<glyph unicode="]" horiz-adv-x="720" d="M129 -100v-125h397v1659h-397v-125h248v-1409h-248z" />
<glyph unicode="^" horiz-adv-x="1142" d="M96 782h172l301 484l301 -484h177l-418 652h-115z" />
<glyph unicode="_" horiz-adv-x="1024" d="M0 -184v-129h1024v129h-1024z" />
<glyph unicode="`" horiz-adv-x="1024" d="M238 1546l309 -327h121l-211 327h-219z" />
<glyph unicode="a" horiz-adv-x="1103" d="M106 322q0 -98 30 -164t79 -106t110.5 -57.5t125.5 -17.5q117 0 197.5 46.5t137.5 107.5v-131h154v750q0 186 -101.5 267t-275.5 81q-104 0 -196.5 -23.5t-163.5 -62.5l57 -125q66 39 136.5 60.5t156.5 21.5q233 0 233 -238v-127q-47 27 -116.5 44.5t-151.5 17.5 q-80 0 -154.5 -19.5t-131 -61.5t-91.5 -107.5t-35 -155.5zM258 332q0 102 66.5 156.5t185.5 54.5q98 0 160.5 -16.5t115.5 -45.5v-217q-49 -68 -126.5 -115t-182.5 -47q-98 0 -158.5 54.5t-60.5 175.5z" />
<glyph unicode="b" horiz-adv-x="1144" d="M170 0h154v121q57 -66 128.5 -105t174.5 -39q84 0 157.5 37t129 110t87 180.5t31.5 250.5q0 141 -29.5 244.5t-82 169t-123 97.5t-150.5 32q-111 0 -188.5 -46t-134.5 -108v549l-154 -86v-1407zM324 272v537q57 72 127.5 114t156.5 42q129 0 201 -103.5t72 -308.5 q0 -217 -65.5 -329.5t-201.5 -112.5q-96 0 -170.5 47t-119.5 114z" />
<glyph unicode="c" horiz-adv-x="1013" d="M113 532q0 -141 37.5 -244.5t100 -173t144.5 -103.5t170 -34q115 0 197 40t149 110l-92 98q-55 -53 -112.5 -83.5t-135.5 -30.5q-143 0 -223 117.5t-80 316.5q0 100 22.5 178t62.5 132t94.5 82t117.5 28q82 0 140.5 -28t117.5 -81l92 115q-63 55 -146 91t-194 36 q-84 0 -166.5 -33t-148 -101.5t-106.5 -175t-41 -256.5z" />
<glyph unicode="d" horiz-adv-x="1144" d="M113 520q0 -141 29.5 -244.5t81.5 -169t123 -97.5t151 -32q111 0 188.5 46.5t134.5 107.5v-131h154v1493l-154 -86v-453q-57 66 -128.5 105t-174.5 39q-84 0 -157.5 -37t-129 -109.5t-87 -180t-31.5 -251.5zM264 522q0 217 65.5 330t200.5 113q96 0 171 -47.5t120 -114.5 v-537q-57 -72 -127.5 -113.5t-156.5 -41.5q-129 0 -201 103t-72 308z" />
<glyph unicode="e" horiz-adv-x="1105" d="M113 543q0 -158 41 -266.5t103 -175t140 -95.5t152 -29q61 0 110.5 8.5t94.5 24t88 39t92 53.5l-72 111q-74 -49 -138.5 -75.5t-158.5 -26.5q-133 0 -211 100t-88 274h717q4 18 5 36.5t1 47.5q0 115 -27.5 212.5t-83 168t-136 109.5t-185.5 39q-96 0 -177 -39 t-140.5 -110.5t-93 -174t-33.5 -231.5zM266 610q14 180 91 267.5t198 87.5q141 0 211 -98.5t80 -256.5h-580z" />
<glyph unicode="f" horiz-adv-x="729" d="M96 946h148v-946h153v946h211v129h-211v160q0 68 32 90.5t79 22.5q72 0 125 -25v145q-29 10 -58.5 14.5t-76.5 4.5q-113 0 -183.5 -60.5t-70.5 -203.5v-148h-148v-129z" />
<glyph unicode="g" horiz-adv-x="1144" d="M113 520q0 -141 29.5 -244.5t81.5 -169t123 -97.5t151 -32q111 0 188.5 46.5t134.5 107.5v-55q0 -94 -18.5 -160t-67.5 -107.5t-134 -62t-220 -25.5l49 -116q150 4 254 35.5t169 93t93.5 151.5t28.5 211v979h-154v-121q-57 66 -128.5 105t-174.5 39q-84 0 -157.5 -37 t-129 -109.5t-87 -180t-31.5 -251.5zM264 522q0 217 65.5 330t200.5 113q96 0 171 -47.5t120 -114.5v-537q-57 -72 -127.5 -113.5t-156.5 -41.5q-129 0 -201 103t-72 308z" />
<glyph unicode="h" horiz-adv-x="1161" d="M170 0h154v629q0 176 76.5 256t189.5 80q129 0 191.5 -81t62.5 -255v-629h153v655q0 117 -26.5 200t-75.5 137.5t-118.5 80t-155.5 25.5q-102 0 -176 -43t-121 -111v549l-154 -86v-1407z" />
<glyph unicode="i" horiz-adv-x="514" d="M147 1376q0 -45 33 -76.5t80 -31.5q43 0 75 31.5t32 76.5q0 47 -32 79t-75 32q-47 0 -80 -32t-33 -79zM180 0h154v1075h-154v-1075z" />
<glyph unicode="j" horiz-adv-x="514" d="M-35 -281l51 -114q100 25 163 59.5t97.5 83.5t46 117t11.5 160v1050h-154v-1048q0 -74 -6 -123t-28.5 -83t-64.5 -56.5t-116 -45.5zM147 1376q0 -45 33 -76.5t80 -31.5q43 0 75 31.5t32 76.5q0 47 -32 79t-75 32q-47 0 -80 -32t-33 -79z" />
<glyph unicode="k" horiz-adv-x="1034" d="M170 0h154v309l186 256l272 -565h166l-340 694l283 381h-172l-352 -500l-43 -65v55v928l-154 -86v-1407z" />
<glyph unicode="l" horiz-adv-x="514" d="M180 0h154v1493l-154 -86v-1407z" />
<glyph unicode="m" horiz-adv-x="1736" d="M170 0h154v629q0 178 64.5 257t174.5 79q113 0 172.5 -76t59.5 -260v-629h153v629q0 178 65.5 257t174.5 79q117 0 174 -76t57 -260v-629h154v655q0 236 -96.5 339.5t-259.5 103.5q-66 0 -116 -14.5t-89 -39t-68 -58.5t-53 -73q-39 78 -109.5 131.5t-185.5 53.5 q-96 0 -163.5 -42t-108.5 -112v131h-154v-1075z" />
<glyph unicode="n" horiz-adv-x="1161" d="M170 0h154v629q0 176 76.5 256t189.5 80q129 0 191.5 -81t62.5 -255v-629h153v655q0 117 -26.5 200t-75.5 137.5t-118.5 80t-155.5 25.5q-102 0 -176 -43t-121 -111v131h-154v-1075z" />
<glyph unicode="o" horiz-adv-x="1159" d="M113 537q0 -137 35.5 -242t97 -175.5t146.5 -106.5t183 -36t184.5 37t150 110t100.5 178.5t37 242.5t-36 240.5t-97.5 173t-146.5 104.5t-183 35t-184.5 -37t-150 -107.5t-100 -175t-36.5 -241.5zM268 541q0 213 85 318.5t227 105.5q141 0 227 -105.5t86 -318.5 t-86 -321.5t-227 -108.5t-226.5 108.5t-85.5 321.5z" />
<glyph unicode="p" horiz-adv-x="1144" d="M170 -395l154 86v430q57 -66 128.5 -105t174.5 -39q84 0 157.5 37t129 110t87 180.5t31.5 250.5q0 141 -29.5 244.5t-82 169t-123 97.5t-150.5 32q-111 0 -188.5 -46t-134.5 -108v131h-154v-1470zM324 272v537q57 72 127.5 114t156.5 42q129 0 201 -103.5t72 -308.5 q0 -217 -65.5 -329.5t-201.5 -112.5q-96 0 -170.5 47t-119.5 114z" />
<glyph unicode="q" horiz-adv-x="1144" d="M113 520q0 -141 29.5 -244.5t81.5 -169t123 -97.5t151 -32q111 0 188.5 46.5t134.5 107.5v-526l154 86v1384h-154v-121q-57 66 -128.5 105t-174.5 39q-84 0 -157.5 -37t-129 -109.5t-87 -180t-31.5 -251.5zM264 522q0 217 65.5 330t200.5 113q96 0 171 -47.5t120 -114.5 v-537q-57 -72 -127.5 -113.5t-156.5 -41.5q-129 0 -201 103t-72 308z" />
<glyph unicode="r" horiz-adv-x="833" d="M170 0h154v631q0 154 60 239.5t173 85.5q53 0 91 -11t71 -30l39 156q-29 12 -69 19.5t-99 7.5q-86 0 -158 -45t-108 -111v133h-154v-1075z" />
<glyph unicode="s" horiz-adv-x="956" d="M88 115q78 -61 173 -99.5t206 -38.5q70 0 136.5 17.5t117.5 54.5t83 94.5t32 137.5q0 72 -21.5 122t-63.5 87.5t-101.5 68.5t-135.5 66q-68 31 -114 54t-73.5 47t-39 48.5t-11.5 59.5q0 59 46.5 96t132.5 37t145 -23.5t123 -73.5l86 113q-61 51 -147.5 83t-196.5 32 q-74 0 -135.5 -19.5t-105.5 -56.5t-69.5 -87t-25.5 -112q0 -66 17.5 -111.5t54.5 -82.5t95 -69t138 -66q72 -31 120 -56.5t78 -51.5t43 -52.5t13 -59.5q0 -78 -53 -121.5t-164 -43.5q-80 0 -153.5 30.5t-139.5 87.5z" />
<glyph unicode="t" horiz-adv-x="761" d="M80 946h133v-725q0 -135 52 -189.5t153 -54.5q61 0 107 9.5t91 27.5l11 133q-37 -16 -71 -23t-81 -7q-61 0 -84.5 28.5t-23.5 100.5v700h266v129h-266v418l-154 -86v-332h-133v-129z" />
<glyph unicode="u" horiz-adv-x="1161" d="M164 420q0 -117 26.5 -200t75.5 -137t119 -80t156 -26q102 0 176 43t121 111v-131h153v1075h-153v-629q0 -176 -77 -255.5t-190 -79.5q-129 0 -191.5 80.5t-62.5 254.5v629h-153v-655z" />
<glyph unicode="v" horiz-adv-x="1069" d="M82 1075l385 -1075h135l385 1075h-160l-274 -846l-16 -51l-17 51l-274 846h-164z" />
<glyph unicode="w" horiz-adv-x="1495" d="M96 1075l285 -1075h137l195 721q4 14 8 33.5t9 41t9 42t6 34.5q2 -14 6.5 -34.5t8.5 -42t9 -41t9 -33.5l195 -721h141l285 1075h-154l-168 -710q-4 -14 -7 -34t-8 -41.5t-9 -42t-6 -34.5q-4 14 -8.5 34.5t-8.5 42t-9 41t-9 34.5l-193 710h-139l-193 -710q-4 -14 -9 -34 t-9 -41.5t-9 -42t-7 -34.5q-4 14 -7.5 34.5t-8.5 42t-9 41t-6 34.5l-168 710h-158z" />
<glyph unicode="x" horiz-adv-x="1032" d="M104 0h160l215 373l33 59l33 -59l213 -373h170l-332 559l309 516h-160l-192 -334l-33 -59l-33 59l-190 334h-170l309 -520z" />
<glyph unicode="y" horiz-adv-x="1087" d="M82 1075l383 -1063l-148 -391h154l535 1454h-162l-264 -782l-37 -109l-37 111l-262 780h-162z" />
<glyph unicode="z" horiz-adv-x="1007" d="M111 0h761v129h-587l587 834v112h-714v-129h540l-587 -833v-113z" />
<glyph unicode="{" horiz-adv-x="813" d="M117 535h49q70 0 95.5 -29t25.5 -119v-176q0 -217 100.5 -323.5t317.5 -112.5v129q-143 16 -205 81.5t-62 207.5v133q0 63 -6 108t-19.5 78t-37 54.5t-58.5 37.5q35 16 58.5 38t37 53.5t19.5 77.5t6 110v143q0 141 61.5 206.5t205.5 82.5v129q-217 -6 -317.5 -112.5 t-100.5 -323.5v-183q0 -90 -25.5 -118.5t-95.5 -28.5h-49v-143z" />
<glyph unicode="|" horiz-adv-x="622" d="M238 -379h147v2017h-147v-2017z" />
<glyph unicode="}" horiz-adv-x="813" d="M109 -96v-129q217 6 317 112.5t100 323.5v182q0 90 26 119t95 29h49v143h-49q-70 0 -95.5 28.5t-25.5 118.5v177q0 217 -100 323.5t-317 112.5v-129q143 -16 204.5 -82t61.5 -207v-133q0 -63 6 -109.5t19.5 -78t37 -53t58.5 -38.5q-35 -16 -58.5 -37.5t-37 -54.5 t-19.5 -78t-6 -108v-143q0 -141 -61.5 -207t-204.5 -82z" />
<glyph unicode="~" horiz-adv-x="1130" d="M88 655l135 -61q39 88 71 125t87 37q31 0 72 -19.5t104 -60.5q47 -31 89 -50.5t104 -19.5q111 0 175 64.5t117 193.5l-135 62q-41 -92 -71.5 -127t-85.5 -35q-37 0 -77 20.5t-100 59.5q-49 33 -91 51t-101 18q-111 0 -175.5 -64.5t-117.5 -193.5z" />
<glyph unicode="&#xa1;" horiz-adv-x="538" d="M145 1331q0 -51 38 -90t87 -39q51 0 88 39t37 90t-36.5 88t-88.5 37q-49 0 -87 -37t-38 -88zM190 0h158v674l-35 375h-86l-37 -375v-674z" />
<glyph unicode="&#xa2;" horiz-adv-x="1013" d="M113 725q0 -125 29.5 -221t80.5 -164t119 -109t143 -55v-199h158v199q84 12 148.5 49t119.5 94l-90 97q-55 -53 -113.5 -83t-136.5 -30q-143 0 -223 118t-80 316q0 100 22.5 178t62.5 132.5t94.5 82t117.5 27.5q84 0 140.5 -24.5t121.5 -79.5l88 110q-53 47 -119.5 80 t-152.5 43v189h-158v-193q-74 -16 -140 -56t-118.5 -108.5t-83 -166t-30.5 -226.5z" />
<glyph unicode="&#xa3;" horiz-adv-x="1251" d="M172 0h958v145h-778q33 41 62.5 88.5t53.5 102.5t39 120.5t17 143.5h297v139h-311q-14 49 -33.5 91t-40.5 77q-33 53 -49 98.5t-16 94.5q0 86 73.5 149.5t223.5 63.5q100 0 186 -39t164 -113l96 117q-96 86 -201.5 132t-240.5 46q-96 0 -180 -23.5t-145.5 -68.5 t-97.5 -112.5t-36 -153.5q0 -74 17.5 -123t52.5 -107q20 -35 37.5 -65.5t29.5 -63.5h-178v-139h201q0 -74 -14.5 -135.5t-41 -114.5t-63.5 -103t-82 -104v-143z" />
<glyph unicode="&#xa4;" horiz-adv-x="1218" d="M121 715q0 -176 38 -313.5t109.5 -231.5t173 -143.5t228.5 -49.5q78 0 141 17.5t115.5 48.5t96.5 75t85 97l-102 90q-72 -92 -146 -139t-186 -47q-160 0 -254 102.5t-127 288.5h553v129h-567q-2 20 -3 39v41v47q0 25 3 47h567v129h-551q35 178 129 275.5t248 97.5 q55 0 99 -10.5t80 -32t67.5 -56t64.5 -81.5l119 92q-41 59 -84 103t-94.5 72t-111.5 41t-136 13q-127 0 -229.5 -49t-175 -143.5t-111.5 -232.5t-39 -316z" />
<glyph unicode="&#xa5;" horiz-adv-x="1253" d="M76 1434l471 -867v-157h-336v-142h336v-268h160v268h317v142h-317v159l471 865h-179l-213 -412q-20 -39 -41.5 -81t-42 -84t-40 -82t-33.5 -70q-29 63 -73 150t-85 167l-213 412h-182z" />
<glyph unicode="&#xa6;" horiz-adv-x="1490" d="M41 707l340 -248q12 -8 18 -6q10 4 4 20l-61 164h338v-367l-164 62q-16 6 -20 -4q-2 -6 6 -19l248 -340l247 340q8 12 7 19q-4 10 -21 4l-164 -62v367h330l-62 -164q-6 -16 5 -20q6 -2 18 6l340 248l-340 247q-12 8 -18 7q-10 -4 -5 -21l62 -164h-330v387l164 -61 q16 -6 21 4q2 6 -7 18l-247 340l-248 -340q-8 -12 -6 -18q4 -10 20 -4l164 61v-387h-338l61 164q6 16 -4 21q-6 2 -18 -7z" />
<glyph unicode="&#xa7;" horiz-adv-x="1286" d="M113 571q0 -78 22.5 -136t76.5 -104t143 -84t225 -71q86 -23 142 -45t90 -48t47 -55.5t13 -64.5q0 -72 -60 -114t-155 -42q-51 0 -93 6.5t-80 19.5t-74.5 35.5t-77.5 57.5l-94 -114q88 -72 183 -110t212 -38q88 0 160.5 21.5t125 62.5t82 98.5t29.5 128.5 q0 72 -28.5 124.5t-81.5 93.5q53 31 100 66.5t81 79.5t53.5 96.5t19.5 113.5q0 76 -23 135t-77 105.5t-143 83t-224 71.5q-86 20 -142.5 44t-90.5 49.5t-47 55t-13 64.5q0 72 60.5 114t154.5 42q51 0 93 -6.5t80 -19.5t74.5 -36.5t77.5 -56.5l95 115q-88 72 -183.5 109.5 t-212.5 37.5q-88 0 -160.5 -21.5t-125 -62.5t-82 -98t-29.5 -129t28.5 -124t82.5 -93q-53 -31 -100.5 -67t-81 -80t-53 -96t-19.5 -114zM270 584q0 84 59.5 153.5t166.5 118.5q45 -18 94 -32.5t102 -28.5q102 -25 166 -52.5t98.5 -58.5t47 -67.5t12.5 -79.5 q0 -84 -59.5 -154t-165.5 -119q-45 18 -94.5 32.5t-102.5 29.5q-102 25 -165.5 52.5t-98.5 58t-47.5 67.5t-12.5 80z" />
<glyph unicode="&#xa8;" horiz-adv-x="1024" d="M201 1348q0 -47 33.5 -80t80.5 -33q45 0 78 33t33 80t-33 80.5t-78 33.5q-47 0 -80.5 -33.5t-33.5 -80.5zM598 1348q0 -47 33 -80t80 -33t79.5 33t32.5 80t-32.5 80.5t-79.5 33.5t-80 -33.5t-33 -80.5z" />
<glyph unicode="&#xa9;" horiz-adv-x="1712" d="M117 717q0 -166 56 -302t155.5 -233.5t234.5 -151t293 -53.5t293 53.5t234.5 151t155.5 233.5t56 302t-56 302t-155.5 233.5t-234.5 150.5t-293 53t-293 -53t-234.5 -150.5t-155.5 -233.5t-56 -302zM217 717q0 143 49 262t135 204t203 132t252 47t252 -47t203 -132 t135 -204t49 -262t-49 -262t-135 -204t-203 -132t-252 -47t-252 47t-203 132t-135 203.5t-49 262.5zM516 715q0 -90 24.5 -168t68.5 -134.5t106.5 -89t140.5 -32.5q92 0 163 37.5t122 105.5l-80 70q-45 -55 -91 -83t-112 -28q-49 0 -92 24.5t-73.5 67.5t-48 102.5 t-17.5 131.5q0 70 17.5 129t48 102t72.5 66.5t93 23.5q63 0 104.5 -23.5t86.5 -80.5l86 68q-53 72 -120 105.5t-155 33.5q-76 0 -139.5 -33t-108.5 -89t-70.5 -135t-25.5 -171z" />
<glyph unicode="&#xaa;" horiz-adv-x="931" d="M96 838q0 -78 24.5 -131.5t64.5 -86t91.5 -47t102.5 -14.5q88 0 151.5 32t108.5 77v-90h139v598q0 152 -83 216t-226 64q-86 0 -162 -19.5t-137 -52.5l55 -110q109 66 236 65q178 0 178 -178v-88q-39 18 -91 30.5t-116 12.5q-66 0 -127 -16.5t-107 -50t-74 -86 t-28 -125.5zM233 846q0 76 51.5 117t141.5 41q74 0 123 -12.5t90 -33.5v-163q-39 -51 -98.5 -86t-141.5 -35q-74 0 -120 41t-46 131z" />
<glyph unicode="&#xab;" horiz-adv-x="1179" d="M61 537l416 -537h174l-415 539l415 536h-174zM498 537l415 -537h174l-415 539l415 536h-174z" />
<glyph unicode="&#xac;" horiz-adv-x="1290" d="M113 635h809l-62 -154q-6 -10 6 -18q8 -6 23 4l360 240l-360 239q-14 10 -23 4q-12 -8 -6 -18l62 -154h-809v-143z" />
<glyph unicode="&#xad;" horiz-adv-x="659" d="M104 674h451v149h-451v-149z" />
<glyph unicode="&#xae;" horiz-adv-x="1712" d="M117 717q0 -166 56 -302t155.5 -233.5t234.5 -151t293 -53.5t293 53.5t234.5 151t155.5 233.5t56 302t-56 302t-155.5 233.5t-234.5 150.5t-293 53t-293 -53t-234.5 -150.5t-155.5 -233.5t-56 -302zM217 717q0 143 49 262t135 204t203 132t252 47t252 -47t203 -132 t135 -204t49 -262t-49 -262t-135 -204t-203 -132t-252 -47t-252 47t-203 132t-135 203.5t-49 262.5zM590 322h108v342h176l177 -342h127l-183 350q86 20 137.5 79.5t51.5 151.5q0 121 -76 178.5t-186 57.5h-332v-817zM698 766v276h217q78 0 119 -34.5t41 -104.5 q0 -137 -172 -137h-205z" />
<glyph unicode="&#xaf;" horiz-adv-x="1024" d="M233 1266h558v143h-558v-143z" />
<glyph unicode="&#xb0;" horiz-adv-x="974" d="M104 1065q0 -84 29 -156.5t80 -126t120.5 -83t153.5 -29.5t155 29.5t121 83t78.5 126t28.5 156.5q0 82 -28.5 153.5t-78.5 124t-121 83t-155 30.5t-153.5 -30.5t-120.5 -83t-80 -124t-29 -153.5zM240 1065q0 57 18 105.5t50 83t78 55t101 20.5q113 0 180.5 -74.5 t67.5 -189.5q0 -121 -67.5 -194.5t-180.5 -73.5q-111 0 -179 73.5t-68 194.5z" />
<glyph unicode="&#xb1;" horiz-adv-x="1490" d="M41 707l340 -248q12 -8 18 -6q10 4 4 20l-61 164h338v-367l-164 62q-16 6 -20 -4q-2 -6 6 -19l248 -340l247 340q8 12 7 19q-4 10 -21 4l-164 -62v367h330l-62 -164q-6 -16 5 -20q6 -2 18 6l340 248l-340 247q-12 8 -18 7q-10 -4 -5 -21l62 -164h-330v387l164 -61 q16 -6 21 4q2 6 -7 18l-247 340l-248 -340q-8 -12 -6 -18q4 -10 20 -4l164 61v-387h-338l61 164q6 16 -4 21q-6 2 -18 -7z" />
<glyph unicode="&#xb2;" horiz-adv-x="1490" d="M41 707l340 -248q12 -8 18 -6q10 4 4 20l-61 164h338v-367l-164 62q-16 6 -20 -4q-2 -6 6 -19l248 -340l247 340q8 12 7 19q-4 10 -21 4l-164 -62v367h330l-62 -164q-6 -16 5 -20q6 -2 18 6l340 248l-340 247q-12 8 -18 7q-10 -4 -5 -21l62 -164h-330v387l164 -61 q16 -6 21 4q2 6 -7 18l-247 340l-248 -340q-8 -12 -6 -18q4 -10 20 -4l164 61v-387h-338l61 164q6 16 -4 21q-6 2 -18 -7z" />
<glyph unicode="&#xb3;" horiz-adv-x="1490" d="M41 707l340 -248q12 -8 18 -6q10 4 4 20l-61 164h338v-367l-164 62q-16 6 -20 -4q-2 -6 6 -19l248 -340l247 340q8 12 7 19q-4 10 -21 4l-164 -62v367h330l-62 -164q-6 -16 5 -20q6 -2 18 6l340 248l-340 247q-12 8 -18 7q-10 -4 -5 -21l62 -164h-330v387l164 -61 q16 -6 21 4q2 6 -7 18l-247 340l-248 -340q-8 -12 -6 -18q4 -10 20 -4l164 61v-387h-338l61 164q6 16 -4 21q-6 2 -18 -7z" />
<glyph unicode="&#xb4;" horiz-adv-x="1024" d="M356 1219h121l309 327h-219z" />
<glyph unicode="&#xb6;" horiz-adv-x="1409" d="M96 985q0 -109 37 -192.5t100.5 -141t148.5 -87t179 -29.5h156v-914h157v1673h187v-1673h158v1813h-658q-94 0 -178 -30t-147.5 -87t-101.5 -141t-38 -191z" />
<glyph unicode="&#xb7;" horiz-adv-x="491" d="M115 752q0 -53 39 -92t92 -39t92 39t39 92t-39 94t-92 41t-92 -41t-39 -94z" />
<glyph unicode="&#xb8;" horiz-adv-x="1024" d="M279 -322q53 -35 115.5 -54t125.5 -19q49 0 93 9t78 29.5t53.5 55.5t19.5 84q0 39 -13.5 65.5t-34 44t-45 24.5t-44.5 7q-37 0 -63.5 -7t-49.5 -21l35 104h-92l-51 -164l73 -29q39 37 99 37q33 0 49 -18.5t16 -48.5q0 -35 -28.5 -61.5t-108.5 -26.5q-102 0 -189 55z" />
<glyph unicode="&#xb9;" horiz-adv-x="1490" d="M41 707l340 -248q12 -8 18 -6q10 4 4 20l-61 164h338v-367l-164 62q-16 6 -20 -4q-2 -6 6 -19l248 -340l247 340q8 12 7 19q-4 10 -21 4l-164 -62v367h330l-62 -164q-6 -16 5 -20q6 -2 18 6l340 248l-340 247q-12 8 -18 7q-10 -4 -5 -21l62 -164h-330v387l164 -61 q16 -6 21 4q2 6 -7 18l-247 340l-248 -340q-8 -12 -6 -18q4 -10 20 -4l164 61v-387h-338l61 164q6 16 -4 21q-6 2 -18 -7z" />
<glyph unicode="&#xba;" horiz-adv-x="983" d="M111 1008q0 -109 28.5 -193t78.5 -140.5t120 -85t149 -28.5q82 0 152 30t122 87t81.5 142t29.5 194q0 111 -28.5 193.5t-78.5 138t-120 83t-149 27.5q-82 0 -152 -28.5t-122 -86t-81.5 -140.5t-29.5 -193zM250 1012q0 164 65.5 242.5t176.5 78.5t176 -78.5t65 -242.5 q0 -166 -65.5 -247t-175.5 -81q-111 0 -176.5 81t-65.5 247z" />
<glyph unicode="&#xbb;" horiz-adv-x="1179" d="M92 0h174l416 539l-416 536h-174l416 -538zM528 0h174l416 539l-416 536h-174l416 -538z" />
<glyph unicode="&#xbc;" horiz-adv-x="1490" d="M41 707l340 -248q12 -8 18 -6q10 4 4 20l-61 164h338v-367l-164 62q-16 6 -20 -4q-2 -6 6 -19l248 -340l247 340q8 12 7 19q-4 10 -21 4l-164 -62v367h330l-62 -164q-6 -16 5 -20q6 -2 18 6l340 248l-340 247q-12 8 -18 7q-10 -4 -5 -21l62 -164h-330v387l164 -61 q16 -6 21 4q2 6 -7 18l-247 340l-248 -340q-8 -12 -6 -18q4 -10 20 -4l164 61v-387h-338l61 164q6 16 -4 21q-6 2 -18 -7z" />
<glyph unicode="&#xbd;" horiz-adv-x="1490" d="M41 707l340 -248q12 -8 18 -6q10 4 4 20l-61 164h338v-367l-164 62q-16 6 -20 -4q-2 -6 6 -19l248 -340l247 340q8 12 7 19q-4 10 -21 4l-164 -62v367h330l-62 -164q-6 -16 5 -20q6 -2 18 6l340 248l-340 247q-12 8 -18 7q-10 -4 -5 -21l62 -164h-330v387l164 -61 q16 -6 21 4q2 6 -7 18l-247 340l-248 -340q-8 -12 -6 -18q4 -10 20 -4l164 61v-387h-338l61 164q6 16 -4 21q-6 2 -18 -7z" />
<glyph unicode="&#xbe;" horiz-adv-x="1490" d="M41 707l340 -248q12 -8 18 -6q10 4 4 20l-61 164h338v-367l-164 62q-16 6 -20 -4q-2 -6 6 -19l248 -340l247 340q8 12 7 19q-4 10 -21 4l-164 -62v367h330l-62 -164q-6 -16 5 -20q6 -2 18 6l340 248l-340 247q-12 8 -18 7q-10 -4 -5 -21l62 -164h-330v387l164 -61 q16 -6 21 4q2 6 -7 18l-247 340l-248 -340q-8 -12 -6 -18q4 -10 20 -4l164 61v-387h-338l61 164q6 16 -4 21q-6 2 -18 -7z" />
<glyph unicode="&#xbf;" horiz-adv-x="1148" d="M137 330q0 -88 33 -153.5t91 -109.5t139 -67t180 -23q156 0 276.5 55.5t202.5 135.5l-103 113q-80 -74 -168 -116t-202 -42q-129 0 -209 60.5t-80 158.5q0 88 43 138t123 99.5t128 90.5t73.5 91t33 117.5t7.5 170.5h-158q0 -80 -5 -133.5t-21.5 -90.5t-47.5 -65.5 t-82 -59.5q-59 -37 -106 -71.5t-80 -75.5t-50.5 -95.5t-17.5 -127.5zM504 1331q0 -51 38 -90t87 -39q51 0 88 39t37 90t-37 88t-88 37q-49 0 -87 -37t-38 -88z" />
<glyph unicode="&#xc0;" d="M109 0h163l125 365h592l123 -365h168l-498 1434h-176zM328 1853l309 -327h121l-211 327h-219zM446 510l158 467q12 37 26.5 79t27 81t21.5 71.5t15 55.5q6 -23 15.5 -56.5t21.5 -71.5t25.5 -79t25.5 -76l158 -471h-494z" />
<glyph unicode="&#xc1;" d="M109 0h163l125 365h592l123 -365h168l-498 1434h-176zM446 510l158 467q12 37 26.5 79t27 81t21.5 71.5t15 55.5q6 -23 15.5 -56.5t21.5 -71.5t25.5 -79t25.5 -76l158 -471h-494zM629 1526h121l309 327h-219z" />
<glyph unicode="&#xc2;" d="M109 0h163l125 365h592l123 -365h168l-498 1434h-176zM356 1485h129l207 211l207 -211h133l-252 327h-172zM446 510l158 467q12 37 26.5 79t27 81t21.5 71.5t15 55.5q6 -23 15.5 -56.5t21.5 -71.5t25.5 -79t25.5 -76l158 -471h-494z" />
<glyph unicode="&#xc3;" d="M109 0h163l125 365h592l123 -365h168l-498 1434h-176zM330 1538h127q10 80 30.5 108.5t49.5 28.5q16 0 29.5 -3t29.5 -13t41 -27.5t61 -46.5q39 -29 75 -41t77 -12t79 16.5t66.5 49t46 82.5t17.5 118h-127q-10 -72 -28.5 -104.5t-51.5 -32.5q-14 0 -27.5 3t-31 13.5 t-42 27.5t-61.5 46q-39 29 -74.5 41t-76.5 12t-79 -16t-66.5 -49t-46 -83t-17.5 -118zM446 510l158 467q12 37 26.5 79t27 81t21.5 71.5t15 55.5q6 -23 15.5 -56.5t21.5 -71.5t25.5 -79t25.5 -76l158 -471h-494z" />
<glyph unicode="&#xc4;" d="M109 0h163l125 365h592l123 -365h168l-498 1434h-176zM385 1655q0 -47 34 -80t81 -33q45 0 77.5 33t32.5 80t-32.5 80.5t-77.5 33.5q-47 0 -81 -33.5t-34 -80.5zM446 510l158 467q12 37 26.5 79t27 81t21.5 71.5t15 55.5q6 -23 15.5 -56.5t21.5 -71.5t25.5 -79t25.5 -76 l158 -471h-494zM782 1655q0 -47 33 -80t80 -33t80 33t33 80t-33 80.5t-80 33.5t-80 -33.5t-33 -80.5z" />
<glyph unicode="&#xc5;" d="M109 0h163l125 365h592l123 -365h168l-473 1350q57 31 91 87t34 126q0 49 -17.5 93t-50.5 75.5t-77 50t-95 18.5q-53 0 -96 -18.5t-76 -50t-50 -75.5t-17 -93q0 -72 33.5 -128.5t93.5 -86.5zM446 510l158 467q12 37 26.5 79t27 81t21.5 71.5t15 55.5q6 -23 15.5 -56.5 t21.5 -71.5t25.5 -79t25.5 -76l158 -471h-494zM549 1563q0 63 39 104t104 41q66 0 105 -41t39 -104q0 -66 -39 -107t-105 -41t-104.5 41t-38.5 107z" />
<glyph unicode="&#xc6;" horiz-adv-x="2043" d="M49 0h182l240 365h559v-365h897v145h-745v547h417v146h-417v450h714v146h-884zM565 510l336 512q16 25 34.5 53.5l37 57t35 54.5t26.5 42q0 -23 -1 -53.5t-1 -67.5q0 -35 -1 -73t-1 -70v-455h-465z" />
<glyph unicode="&#xc7;" horiz-adv-x="1286" d="M127 715q0 -147 36 -274.5t102.5 -223.5t159.5 -158.5t210 -76.5l-45 -146l74 -29q39 37 98 37q33 0 49 -18.5t16 -48.5q0 -35 -28.5 -61.5t-108.5 -26.5q-102 0 -188 55l-39 -66q53 -35 115.5 -54t126.5 -19q49 0 93 9t77.5 29.5t53 55.5t19.5 84q0 39 -13 65.5 t-33.5 44t-45.5 24.5t-45 7q-37 0 -63.5 -7t-49.5 -21l27 81q152 4 263.5 69t187.5 169l-111 96q-70 -90 -154 -139t-200 -49q-90 0 -168 44t-135.5 123t-89 188.5t-31.5 240.5t31.5 239.5t87 186.5t133 122t170.5 44q117 0 190.5 -43t142.5 -138l127 97q-166 229 -456 229 q-129 0 -237.5 -56.5t-185.5 -154.5t-120 -234.5t-43 -295.5z" />
<glyph unicode="&#xc8;" horiz-adv-x="1202" d="M188 0h897v145h-737v547h410v146h-410v450h707v146h-867v-1434zM301 1853l309 -327h121l-211 327h-219z" />
<glyph unicode="&#xc9;" horiz-adv-x="1202" d="M188 0h897v145h-737v547h410v146h-410v450h707v146h-867v-1434zM522 1526h121l309 327h-219z" />
<glyph unicode="&#xca;" horiz-adv-x="1202" d="M188 0h897v145h-737v547h410v146h-410v450h707v146h-867v-1434zM283 1526h129l206 211l207 -211h133l-251 327h-172z" />
<glyph unicode="&#xcb;" horiz-adv-x="1202" d="M188 0h897v145h-737v547h410v146h-410v450h707v146h-867v-1434zM311 1655q0 -47 34 -80t81 -33q45 0 78 33t33 80t-33 80.5t-78 33.5q-47 0 -81 -33.5t-34 -80.5zM709 1655q0 -47 32.5 -80t79.5 -33t80 33t33 80t-33 80.5t-80 33.5t-79.5 -33.5t-32.5 -80.5z" />
<glyph unicode="&#xcc;" horiz-adv-x="557" d="M-78 1853l309 -327h121l-211 327h-219zM199 0h159v1434h-159v-1434z" />
<glyph unicode="&#xcd;" horiz-adv-x="557" d="M199 0h159v1434h-159v-1434zM207 1526h121l309 327h-219z" />
<glyph unicode="&#xce;" horiz-adv-x="557" d="M-66 1516h129l207 210l207 -210h133l-252 327h-172zM199 0h159v1434h-159v-1434z" />
<glyph unicode="&#xcf;" horiz-adv-x="557" d="M-35 1663q0 -47 34 -80t81 -33q45 0 77.5 33t32.5 80t-32.5 81t-77.5 34q-47 0 -81 -34t-34 -81zM199 0h159v1434h-159v-1434zM362 1663q0 -47 33 -80t80 -33t80 33t33 80t-33 81t-80 34t-80 -34t-33 -81z" />
<glyph unicode="&#xd0;" horiz-adv-x="1396" d="M82 678h127v-678h350q143 0 268 40t217.5 128t144.5 226t52 333q0 184 -49 317.5t-136 220.5t-207 128t-261 41h-379v-613h-127v-143zM365 145v533h290v143h-290v467h210q248 0 377 -145.5t129 -421.5q0 -154 -34.5 -263.5t-100 -179t-158 -101.5t-208.5 -32h-215z" />
<glyph unicode="&#xd1;" horiz-adv-x="1409" d="M188 0h154v1063v98q6 -14 19.5 -36.5t27.5 -48t28.5 -51.5t26.5 -44l627 -981h150v1434h-154v-1082v-98q-6 14 -19.5 36.5t-27.5 48.5t-28.5 51.5t-26.5 43.5l-621 1000h-156v-1434zM350 1546h127q10 80 30.5 108.5t49.5 28.5q16 0 29.5 -3t30 -13t41 -27.5t61.5 -46.5 q39 -29 74.5 -41t76.5 -12t79 16.5t66.5 49t46 82.5t17.5 118h-127q-10 -72 -28.5 -104.5t-51.5 -32.5q-14 0 -27.5 3t-30.5 13.5t-41.5 28t-61.5 45.5q-39 29 -75 41t-77 12t-79 -16t-66.5 -49t-46 -83t-17.5 -118z" />
<glyph unicode="&#xd2;" horiz-adv-x="1443" d="M127 715q0 -162 42 -297t120 -233.5t187.5 -153t242.5 -54.5t243.5 55.5t189.5 154t122 234.5t43 298t-43 297t-121 233.5t-187.5 152.5t-242.5 54t-243.5 -55t-188.5 -153.5t-121 -234.5t-43 -298zM287 719q0 135 32.5 244.5t90 186.5t136.5 119t171 42q94 0 174 -42 t139.5 -121t93 -188.5t33.5 -244.5t-32.5 -245t-90 -186.5t-137.5 -118.5t-172 -42q-94 0 -174 42t-138.5 121t-92 188.5t-33.5 244.5zM373 1853l309 -327h121l-211 327h-219z" />
<glyph unicode="&#xd3;" horiz-adv-x="1443" d="M127 715q0 -162 42 -297t120 -233.5t187.5 -153t242.5 -54.5t243.5 55.5t189.5 154t122 234.5t43 298t-43 297t-121 233.5t-187.5 152.5t-242.5 54t-243.5 -55t-188.5 -153.5t-121 -234.5t-43 -298zM287 719q0 135 32.5 244.5t90 186.5t136.5 119t171 42q94 0 174 -42 t139.5 -121t93 -188.5t33.5 -244.5t-32.5 -245t-90 -186.5t-137.5 -118.5t-172 -42q-94 0 -174 42t-138.5 121t-92 188.5t-33.5 244.5zM635 1526h121l309 327h-219z" />
<glyph unicode="&#xd4;" horiz-adv-x="1443" d="M127 715q0 -162 42 -297t120 -233.5t187.5 -153t242.5 -54.5t243.5 55.5t189.5 154t122 234.5t43 298t-43 297t-121 233.5t-187.5 152.5t-242.5 54t-243.5 -55t-188.5 -153.5t-121 -234.5t-43 -298zM287 719q0 135 32.5 244.5t90 186.5t136.5 119t171 42q94 0 174 -42 t139.5 -121t93 -188.5t33.5 -244.5t-32.5 -245t-90 -186.5t-137.5 -118.5t-172 -42q-94 0 -174 42t-138.5 121t-92 188.5t-33.5 244.5zM381 1516h129l207 210l207 -210h133l-252 327h-172z" />
<glyph unicode="&#xd5;" horiz-adv-x="1443" d="M127 715q0 -162 42 -297t120 -233.5t187.5 -153t242.5 -54.5t243.5 55.5t189.5 154t122 234.5t43 298t-43 297t-121 233.5t-187.5 152.5t-242.5 54t-243.5 -55t-188.5 -153.5t-121 -234.5t-43 -298zM287 719q0 135 32.5 244.5t90 186.5t136.5 119t171 42q94 0 174 -42 t139.5 -121t93 -188.5t33.5 -244.5t-32.5 -245t-90 -186.5t-137.5 -118.5t-172 -42q-94 0 -174 42t-138.5 121t-92 188.5t-33.5 244.5zM354 1538h127q10 80 30.5 108.5t49.5 28.5q16 0 29.5 -3t30 -13t41 -27.5t61.5 -46.5q39 -29 75 -41t76 -12q41 0 79 16.5t67 49t46 82.5 t17 118h-127q-10 -72 -28.5 -104.5t-50.5 -32.5q-14 0 -27.5 3t-31 13.5t-42 27.5t-61.5 46q-39 29 -75 41t-77 12t-79 -16t-66.5 -49t-46 -83t-17.5 -118z" />
<glyph unicode="&#xd6;" horiz-adv-x="1443" d="M127 715q0 -162 42 -297t120 -233.5t187.5 -153t242.5 -54.5t243.5 55.5t189.5 154t122 234.5t43 298t-43 297t-121 233.5t-187.5 152.5t-242.5 54t-243.5 -55t-188.5 -153.5t-121 -234.5t-43 -298zM287 719q0 135 32.5 244.5t90 186.5t136.5 119t171 42q94 0 174 -42 t139.5 -121t93 -188.5t33.5 -244.5t-32.5 -245t-90 -186.5t-137.5 -118.5t-172 -42q-94 0 -174 42t-138.5 121t-92 188.5t-33.5 244.5zM410 1655q0 -47 33.5 -80t80.5 -33q45 0 78 33t33 80t-33 80.5t-78 33.5q-47 0 -80.5 -33.5t-33.5 -80.5zM807 1655q0 -47 32.5 -80 t80.5 -33q47 0 79.5 33t32.5 80t-32.5 80.5t-79.5 33.5t-80 -33.5t-33 -80.5z" />
<glyph unicode="&#xd7;" horiz-adv-x="1490" d="M41 707l340 -248q12 -8 18 -6q10 4 4 20l-61 164h338v-367l-164 62q-16 6 -20 -4q-2 -6 6 -19l248 -340l247 340q8 12 7 19q-4 10 -21 4l-164 -62v367h330l-62 -164q-6 -16 5 -20q6 -2 18 6l340 248l-340 247q-12 8 -18 7q-10 -4 -5 -21l62 -164h-330v387l164 -61 q16 -6 21 4q2 6 -7 18l-247 340l-248 -340q-8 -12 -6 -18q4 -10 20 -4l164 61v-387h-338l61 164q6 16 -4 21q-6 2 -18 -7z" />
<glyph unicode="&#xd8;" horiz-adv-x="1443" d="M127 715q0 -197 60.5 -351.5t170.5 -252.5l-98 -213h141l64 139q113 -59 254 -60q133 0 243.5 55.5t189.5 154t122 234.5t43 298q0 207 -67.5 367.5t-188.5 254.5l88 195h-141l-58 -127q-106 47 -227 47q-133 0 -243.5 -55t-188.5 -153.5t-121 -234.5t-43 -298zM281 719 q0 137 32.5 247.5t91 188.5t138.5 120t174 42q90 0 172 -41l-463 -1016q-68 78 -106.5 194.5t-38.5 264.5zM526 172l469 1026q78 -78 123 -200.5t45 -282.5q0 -137 -33.5 -248t-92 -188.5t-138.5 -119.5t-174 -42q-111 0 -199 55z" />
<glyph unicode="&#xd9;" d="M178 582q0 -299 130 -452t388 -153q260 0 387 155t127 454v848h-159v-852q0 -233 -80 -346t-266 -113q-367 0 -367 463v848h-160v-852zM346 1823l309 -328h121l-211 328h-219z" />
<glyph unicode="&#xda;" d="M178 582q0 -299 130 -452t388 -153q260 0 387 155t127 454v848h-159v-852q0 -233 -80 -346t-266 -113q-367 0 -367 463v848h-160v-852zM608 1495h121l309 328h-219z" />
<glyph unicode="&#xdb;" d="M178 582q0 -299 130 -452t388 -153q260 0 387 155t127 454v848h-159v-852q0 -233 -80 -346t-266 -113q-367 0 -367 463v848h-160v-852zM356 1526h129l207 211l207 -211h133l-252 327h-172z" />
<glyph unicode="&#xdc;" d="M178 582q0 -299 130 -452t388 -153q260 0 387 155t127 454v848h-159v-852q0 -233 -80 -346t-266 -113q-367 0 -367 463v848h-160v-852zM383 1655q0 -47 34 -80t81 -33q45 0 77.5 33t32.5 80t-32.5 80.5t-77.5 33.5q-47 0 -81 -33.5t-34 -80.5zM780 1655q0 -47 33 -80 t80 -33t80 33t33 80t-33 80.5t-80 33.5t-80 -33.5t-33 -80.5z" />
<glyph unicode="&#xdd;" horiz-adv-x="1335" d="M96 1434l492 -867v-567h160v569l491 865h-178l-230 -412q-43 -78 -87 -161t-74 -146q-31 63 -75 146t-87 161l-229 412h-183zM592 1487h121l309 328h-219z" />
<glyph unicode="&#xde;" horiz-adv-x="1265" d="M188 0h160v305h348q106 0 196.5 28.5t154 85t99.5 140t36 189.5q0 109 -35 189.5t-96.5 133.5t-144.5 79t-181 26h-377v258h-160v-1434zM348 451v579h371q147 0 225 -75t78 -214q0 -291 -324 -290h-350z" />
<glyph unicode="&#xdf;" horiz-adv-x="1171" d="M170 -395l154 86v1392q0 133 65.5 202t167.5 69q109 0 173.5 -62.5t64.5 -169.5q0 -123 -65.5 -182t-184.5 -59h-47v-133h41q72 0 138 -16.5t116.5 -53.5t81 -93.5t30.5 -135.5q0 -166 -96 -240t-274 -74h-37v-135h30q109 0 205 24.5t169 80t115 143.5t42 215 q0 86 -26.5 148.5t-68.5 106.5t-95.5 70.5t-106.5 38.5q37 16 69.5 41t59.5 61t42 84t15 111q0 76 -27.5 142.5t-77.5 116t-122 77t-160 27.5q-178 0 -284.5 -109.5t-106.5 -320.5v-1452z" />
<glyph unicode="&#xe0;" horiz-adv-x="1103" d="M106 322q0 -98 30 -164t79 -106t110.5 -57.5t125.5 -17.5q117 0 197.5 46.5t137.5 107.5v-131h154v750q0 186 -101.5 267t-275.5 81q-104 0 -196.5 -23.5t-163.5 -62.5l57 -125q66 39 136.5 60.5t156.5 21.5q233 0 233 -238v-127q-47 27 -116.5 44.5t-151.5 17.5 q-80 0 -154.5 -19.5t-131 -61.5t-91.5 -107.5t-35 -155.5zM223 1546l309 -327h121l-211 327h-219zM258 332q0 102 66.5 156.5t185.5 54.5q98 0 160.5 -16.5t115.5 -45.5v-217q-49 -68 -126.5 -115t-182.5 -47q-98 0 -158.5 54.5t-60.5 175.5z" />
<glyph unicode="&#xe1;" horiz-adv-x="1103" d="M106 322q0 -98 30 -164t79 -106t110.5 -57.5t125.5 -17.5q117 0 197.5 46.5t137.5 107.5v-131h154v750q0 186 -101.5 267t-275.5 81q-104 0 -196.5 -23.5t-163.5 -62.5l57 -125q66 39 136.5 60.5t156.5 21.5q233 0 233 -238v-127q-47 27 -116.5 44.5t-151.5 17.5 q-80 0 -154.5 -19.5t-131 -61.5t-91.5 -107.5t-35 -155.5zM258 332q0 102 66.5 156.5t185.5 54.5q98 0 160.5 -16.5t115.5 -45.5v-217q-49 -68 -126.5 -115t-182.5 -47q-98 0 -158.5 54.5t-60.5 175.5zM465 1219h121l309 327h-219z" />
<glyph unicode="&#xe2;" horiz-adv-x="1103" d="M106 322q0 -98 30 -164t79 -106t110.5 -57.5t125.5 -17.5q117 0 197.5 46.5t137.5 107.5v-131h154v750q0 186 -101.5 267t-275.5 81q-104 0 -196.5 -23.5t-163.5 -62.5l57 -125q66 39 136.5 60.5t156.5 21.5q233 0 233 -238v-127q-47 27 -116.5 44.5t-151.5 17.5 q-80 0 -154.5 -19.5t-131 -61.5t-91.5 -107.5t-35 -155.5zM217 1208h129l207 211l207 -211h133l-252 328h-172zM258 332q0 102 66.5 156.5t185.5 54.5q98 0 160.5 -16.5t115.5 -45.5v-217q-49 -68 -126.5 -115t-182.5 -47q-98 0 -158.5 54.5t-60.5 175.5z" />
<glyph unicode="&#xe3;" horiz-adv-x="1103" d="M106 322q0 -98 30 -164t79 -106t110.5 -57.5t125.5 -17.5q117 0 197.5 46.5t137.5 107.5v-131h154v750q0 186 -101.5 267t-275.5 81q-104 0 -196.5 -23.5t-163.5 -62.5l57 -125q66 39 136.5 60.5t156.5 21.5q233 0 233 -238v-127q-47 27 -116.5 44.5t-151.5 17.5 q-80 0 -154.5 -19.5t-131 -61.5t-91.5 -107.5t-35 -155.5zM188 1231h127q10 80 31 108.5t49 28.5q16 0 29.5 -3t30 -13.5t41 -27.5t61.5 -46q39 -29 75 -41t77 -12t78.5 16t66.5 49t46.5 83t17.5 118h-127q-10 -72 -29 -104.5t-51 -32.5q-14 0 -27.5 3t-31 13t-42 27.5 t-61.5 46.5q-39 29 -75 41t-77 12t-78.5 -16.5t-66.5 -49t-46.5 -83t-17.5 -117.5zM258 332q0 102 66.5 156.5t185.5 54.5q98 0 160.5 -16.5t115.5 -45.5v-217q-49 -68 -126.5 -115t-182.5 -47q-98 0 -158.5 54.5t-60.5 175.5z" />
<glyph unicode="&#xe4;" horiz-adv-x="1103" d="M106 322q0 -98 30 -164t79 -106t110.5 -57.5t125.5 -17.5q117 0 197.5 46.5t137.5 107.5v-131h154v750q0 186 -101.5 267t-275.5 81q-104 0 -196.5 -23.5t-163.5 -62.5l57 -125q66 39 136.5 60.5t156.5 21.5q233 0 233 -238v-127q-47 27 -116.5 44.5t-151.5 17.5 q-80 0 -154.5 -19.5t-131 -61.5t-91.5 -107.5t-35 -155.5zM242 1337q0 -47 33.5 -79.5t80.5 -32.5q45 0 78 32.5t33 79.5t-33 81t-78 34q-47 0 -80.5 -34t-33.5 -81zM258 332q0 102 66.5 156.5t185.5 54.5q98 0 160.5 -16.5t115.5 -45.5v-217q-49 -68 -126.5 -115 t-182.5 -47q-98 0 -158.5 54.5t-60.5 175.5zM639 1337q0 -47 33 -79.5t80 -32.5t79.5 32.5t32.5 79.5t-32.5 81t-79.5 34t-80 -34t-33 -81z" />
<glyph unicode="&#xe5;" horiz-adv-x="1103" d="M106 322q0 -98 30 -164t79 -106t110.5 -57.5t125.5 -17.5q117 0 197.5 46.5t137.5 107.5v-131h154v750q0 186 -101.5 267t-275.5 81q-104 0 -196.5 -23.5t-163.5 -62.5l57 -125q66 39 136.5 60.5t156.5 21.5q233 0 233 -238v-127q-47 27 -116.5 44.5t-151.5 17.5 q-80 0 -154.5 -19.5t-131 -61.5t-91.5 -107.5t-35 -155.5zM258 332q0 102 66.5 156.5t185.5 54.5q98 0 160.5 -16.5t115.5 -45.5v-217q-49 -68 -126.5 -115t-182.5 -47q-98 0 -158.5 54.5t-60.5 175.5zM315 1466q0 -49 17.5 -93t50.5 -76.5t76 -51t96 -18.5q51 0 95 18.5 t77 51t50.5 76.5t17.5 93t-17.5 93.5t-50.5 76t-77 50t-95 18.5q-53 0 -96 -18.5t-76 -50t-50.5 -75.5t-17.5 -94zM412 1466q0 63 38.5 104.5t104.5 41.5t104.5 -41.5t38.5 -104.5q0 -66 -38.5 -106.5t-104.5 -40.5t-104.5 41t-38.5 106z" />
<glyph unicode="&#xe6;" horiz-adv-x="1716" d="M106 322q0 -98 28 -164t74 -106t105.5 -57.5t122.5 -17.5q68 0 124 10.5t104.5 34t91.5 58.5t86 84q63 -102 152 -144.5t180 -42.5q61 0 108 8.5t89 24t83 39t90 53.5l-71 111q-37 -25 -68 -44t-63.5 -31.5t-68.5 -19.5t-83 -7q-133 0 -204 100t-81 274h688q4 18 5 36.5 t1 47.5q0 115 -25.5 212.5t-77.5 168t-131 109.5t-183 39q-111 0 -192 -51.5t-128 -143.5q-18 92 -94 143.5t-219 51.5q-104 0 -189.5 -23.5t-156.5 -62.5l57 -125q66 39 129.5 60.5t149.5 21.5q119 0 169 -58.5t50 -179.5v-127q-47 27 -109.5 44.5t-144.5 17.5 q-80 0 -151.5 -19.5t-127 -61.5t-87.5 -107.5t-32 -155.5zM258 332q0 102 59.5 156.5t178.5 54.5q49 0 85.5 -4t66.5 -12.5t55.5 -18.5t50.5 -25q5 -116 32 -198q-78 -102 -163.5 -142.5t-159.5 -40.5q-98 0 -151.5 54.5t-53.5 175.5zM905 610q14 180 84 267.5t191 87.5 q70 0 121 -26t83.5 -73t50 -112.5t21.5 -143.5h-551z" />
<glyph unicode="&#xe7;" horiz-adv-x="1013" d="M113 532q0 -123 28.5 -218t78.5 -163.5t116.5 -109.5t142.5 -55l-47 -150l74 -29q39 37 98 37q33 0 49.5 -18.5t16.5 -48.5q0 -35 -29 -61.5t-109 -26.5q-102 0 -188 55l-39 -66q53 -35 115.5 -54t126.5 -19q49 0 93 9t78 29.5t53.5 55.5t19.5 84q0 39 -13.5 65.5t-34 44 t-45 24.5t-45.5 7q-37 0 -63.5 -7t-48.5 -21l26 81q115 0 196 40t148 110l-92 98q-55 -53 -112.5 -83.5t-135.5 -30.5q-143 0 -223 117.5t-80 316.5q0 100 22.5 178t62.5 132t94.5 82t117.5 28q82 0 140.5 -28t117.5 -81l92 115q-63 55 -146 91t-194 36q-84 0 -166.5 -33 t-148 -101.5t-106.5 -175t-41 -256.5z" />
<glyph unicode="&#xe8;" horiz-adv-x="1105" d="M113 543q0 -158 41 -266.5t103 -175t140 -95.5t152 -29q61 0 110.5 8.5t94.5 24t88 39t92 53.5l-72 111q-74 -49 -138.5 -75.5t-158.5 -26.5q-133 0 -211 100t-88 274h717q4 18 5 36.5t1 47.5q0 115 -27.5 212.5t-83 168t-136 109.5t-185.5 39q-96 0 -177 -39 t-140.5 -110.5t-93 -174t-33.5 -231.5zM223 1546l309 -327h121l-211 327h-219zM266 610q14 180 91 267.5t198 87.5q141 0 211 -98.5t80 -256.5h-580z" />
<glyph unicode="&#xe9;" horiz-adv-x="1105" d="M113 543q0 -158 41 -266.5t103 -175t140 -95.5t152 -29q61 0 110.5 8.5t94.5 24t88 39t92 53.5l-72 111q-74 -49 -138.5 -75.5t-158.5 -26.5q-133 0 -211 100t-88 274h717q4 18 5 36.5t1 47.5q0 115 -27.5 212.5t-83 168t-136 109.5t-185.5 39q-96 0 -177 -39 t-140.5 -110.5t-93 -174t-33.5 -231.5zM266 610q14 180 91 267.5t198 87.5q141 0 211 -98.5t80 -256.5h-580zM465 1219h121l309 327h-219z" />
<glyph unicode="&#xea;" horiz-adv-x="1105" d="M113 543q0 -158 41 -266.5t103 -175t140 -95.5t152 -29q61 0 110.5 8.5t94.5 24t88 39t92 53.5l-72 111q-74 -49 -138.5 -75.5t-158.5 -26.5q-133 0 -211 100t-88 274h717q4 18 5 36.5t1 47.5q0 115 -27.5 212.5t-83 168t-136 109.5t-185.5 39q-96 0 -177 -39 t-140.5 -110.5t-93 -174t-33.5 -231.5zM217 1198h129l207 211l207 -211h133l-252 328h-172zM266 610q14 180 91 267.5t198 87.5q141 0 211 -98.5t80 -256.5h-580z" />
<glyph unicode="&#xeb;" horiz-adv-x="1105" d="M113 543q0 -158 41 -266.5t103 -175t140 -95.5t152 -29q61 0 110.5 8.5t94.5 24t88 39t92 53.5l-72 111q-74 -49 -138.5 -75.5t-158.5 -26.5q-133 0 -211 100t-88 274h717q4 18 5 36.5t1 47.5q0 115 -27.5 212.5t-83 168t-136 109.5t-185.5 39q-96 0 -177 -39 t-140.5 -110.5t-93 -174t-33.5 -231.5zM244 1337q0 -47 33.5 -79.5t80.5 -32.5q45 0 78 32.5t33 79.5t-33 81t-78 34q-47 0 -80.5 -34t-33.5 -81zM266 610q14 180 91 267.5t198 87.5q141 0 211 -98.5t80 -256.5h-580zM641 1337q0 -47 33 -79.5t80 -32.5t79.5 32.5t32.5 79.5 t-32.5 81t-79.5 34t-80 -34t-33 -81z" />
<glyph unicode="&#xec;" horiz-adv-x="514" d="M-106 1546l309 -327h121l-211 327h-219zM180 0h154v1075h-154v-1075z" />
<glyph unicode="&#xed;" horiz-adv-x="514" d="M180 0h154v1075h-154v-1075zM190 1219h121l310 327h-220z" />
<glyph unicode="&#xee;" horiz-adv-x="514" d="M-82 1188h129l207 211l207 -211h133l-252 328h-172zM180 0h154v1075h-154v-1075z" />
<glyph unicode="&#xef;" horiz-adv-x="514" d="M-55 1327q0 -47 33.5 -80t80.5 -33q45 0 78 33t33 80t-33 81t-78 34q-47 0 -80.5 -34t-33.5 -81zM180 0h154v1075h-154v-1075zM342 1327q0 -47 33 -80t80 -33t79.5 33t32.5 80t-32.5 81t-79.5 34t-80 -34t-33 -81z" />
<glyph unicode="&#xf0;" horiz-adv-x="1159" d="M113 481q0 -123 37.5 -217t101 -157.5t147.5 -96.5t176 -33q111 0 198 37t147.5 115t93.5 196.5t33 284.5q0 244 -77 416t-204 277l59 65l-104 88l-70 -76q-127 66 -276 76v-135q51 -4 97 -16.5t87 -28.5l-98 -111l104 -88l115 129q166 -129 227 -401q-55 82 -140 132 t-224 50q-84 0 -161 -32.5t-137.5 -96t-96 -159t-35.5 -218.5zM268 485q0 180 80 274.5t217 94.5q143 0 235.5 -88t92.5 -281q0 -96 -24.5 -165.5t-66.5 -116.5t-99.5 -69.5t-122.5 -22.5q-66 0 -123.5 22.5t-99.5 69.5t-65.5 116.5t-23.5 165.5z" />
<glyph unicode="&#xf1;" horiz-adv-x="1161" d="M170 0h154v629q0 176 76.5 256t189.5 80q129 0 191.5 -81t62.5 -255v-629h153v655q0 117 -26.5 200t-75.5 137.5t-118.5 80t-155.5 25.5q-102 0 -176 -43t-121 -111v131h-154v-1075zM209 1231h127q10 80 30.5 108.5t49.5 28.5q16 0 29.5 -3t30 -13.5t41 -27.5t61.5 -46 q39 -29 74.5 -41t76.5 -12t79 16t66.5 49t46 83t17.5 118h-127q-10 -72 -28.5 -104.5t-51.5 -32.5q-14 0 -27.5 3t-31 13t-42 27.5t-61.5 46.5q-39 29 -74.5 41t-76.5 12t-79 -16.5t-66.5 -49t-46 -83t-17.5 -117.5z" />
<glyph unicode="&#xf2;" horiz-adv-x="1159" d="M113 537q0 -137 35.5 -242t97 -175.5t146.5 -106.5t183 -36t184.5 37t150 110t100.5 178.5t37 242.5t-36 240.5t-97.5 173t-146.5 104.5t-183 35t-184.5 -37t-150 -107.5t-100 -175t-36.5 -241.5zM240 1546l309 -327h121l-211 327h-219zM268 541q0 213 85 318.5 t227 105.5q141 0 227 -105.5t86 -318.5t-86 -321.5t-227 -108.5t-226.5 108.5t-85.5 321.5z" />
<glyph unicode="&#xf3;" horiz-adv-x="1159" d="M113 537q0 -137 35.5 -242t97 -175.5t146.5 -106.5t183 -36t184.5 37t150 110t100.5 178.5t37 242.5t-36 240.5t-97.5 173t-146.5 104.5t-183 35t-184.5 -37t-150 -107.5t-100 -175t-36.5 -241.5zM268 541q0 213 85 318.5t227 105.5q141 0 227 -105.5t86 -318.5 t-86 -321.5t-227 -108.5t-226.5 108.5t-85.5 321.5zM481 1219h121l309 327h-219z" />
<glyph unicode="&#xf4;" horiz-adv-x="1159" d="M113 537q0 -137 35.5 -242t97 -175.5t146.5 -106.5t183 -36t184.5 37t150 110t100.5 178.5t37 242.5t-36 240.5t-97.5 173t-146.5 104.5t-183 35t-184.5 -37t-150 -107.5t-100 -175t-36.5 -241.5zM240 1198h129l206 211l207 -211h133l-251 328h-172zM268 541 q0 213 85 318.5t227 105.5q141 0 227 -105.5t86 -318.5t-86 -321.5t-227 -108.5t-226.5 108.5t-85.5 321.5z" />
<glyph unicode="&#xf5;" horiz-adv-x="1159" d="M113 537q0 -137 35.5 -242t97 -175.5t146.5 -106.5t183 -36t184.5 37t150 110t100.5 178.5t37 242.5t-36 240.5t-97.5 173t-146.5 104.5t-183 35t-184.5 -37t-150 -107.5t-100 -175t-36.5 -241.5zM213 1231h127q10 80 30.5 108.5t49.5 28.5q16 0 29.5 -3t30 -13.5 t41 -27.5t61.5 -46q39 -29 74.5 -41t76.5 -12t79 16t66.5 49t46 83t17.5 118h-127q-10 -72 -28.5 -104.5t-51.5 -32.5q-14 0 -27.5 3t-31 13t-42 27.5t-61.5 46.5q-39 29 -74.5 41t-76.5 12t-79 -16.5t-66.5 -49t-46 -83t-17.5 -117.5zM268 541q0 213 85 318.5t227 105.5 q141 0 227 -105.5t86 -318.5t-86 -321.5t-227 -108.5t-226.5 108.5t-85.5 321.5z" />
<glyph unicode="&#xf6;" horiz-adv-x="1159" d="M113 537q0 -137 35.5 -242t97 -175.5t146.5 -106.5t183 -36t184.5 37t150 110t100.5 178.5t37 242.5t-36 240.5t-97.5 173t-146.5 104.5t-183 35t-184.5 -37t-150 -107.5t-100 -175t-36.5 -241.5zM266 1327q0 -47 34 -80t81 -33q45 0 78 33t33 80t-33 81t-78 34 q-47 0 -81 -34t-34 -81zM268 541q0 213 85 318.5t227 105.5q141 0 227 -105.5t86 -318.5t-86 -321.5t-227 -108.5t-226.5 108.5t-85.5 321.5zM664 1327q0 -47 32.5 -80t79.5 -33t80 33t33 80t-33 81t-80 34t-79.5 -34t-32.5 -81z" />
<glyph unicode="&#xf7;" horiz-adv-x="1490" d="M41 707l340 -248q12 -8 18 -6q10 4 4 20l-61 164h338v-367l-164 62q-16 6 -20 -4q-2 -6 6 -19l248 -340l247 340q8 12 7 19q-4 10 -21 4l-164 -62v367h330l-62 -164q-6 -16 5 -20q6 -2 18 6l340 248l-340 247q-12 8 -18 7q-10 -4 -5 -21l62 -164h-330v387l164 -61 q16 -6 21 4q2 6 -7 18l-247 340l-248 -340q-8 -12 -6 -18q4 -10 20 -4l164 61v-387h-338l61 164q6 16 -4 21q-6 2 -18 -7z" />
<glyph unicode="&#xf8;" horiz-adv-x="1159" d="M113 537q0 -162 48 -279t134 -184l-84 -176h135l53 112q78 -33 176 -33t184.5 37t150 110t100.5 178.5t37 242.5q0 160 -47.5 273.5t-129.5 180.5l86 179h-135l-55 -115q-86 35 -182 35q-98 0 -184.5 -37t-150 -107.5t-100 -175t-36.5 -241.5zM264 541q0 215 87 321.5 t229 106.5q74 0 129 -27l-351 -735q-45 55 -69.5 138t-24.5 196zM457 131l350 733q43 -53 66.5 -133.5t23.5 -189.5q0 -215 -88 -325t-229 -110q-68 0 -123 25z" />
<glyph unicode="&#xf9;" horiz-adv-x="1161" d="M164 420q0 -117 26.5 -200t75.5 -137t119 -80t156 -26q102 0 176 43t121 111v-131h153v1075h-153v-629q0 -176 -77 -255.5t-190 -79.5q-129 0 -191.5 80.5t-62.5 254.5v629h-153v-655zM221 1546l309 -327h121l-211 327h-219z" />
<glyph unicode="&#xfa;" horiz-adv-x="1161" d="M164 420q0 -117 26.5 -200t75.5 -137t119 -80t156 -26q102 0 176 43t121 111v-131h153v1075h-153v-629q0 -176 -77 -255.5t-190 -79.5q-129 0 -191.5 80.5t-62.5 254.5v629h-153v-655zM494 1219h120l310 327h-219z" />
<glyph unicode="&#xfb;" horiz-adv-x="1161" d="M164 420q0 -117 26.5 -200t75.5 -137t119 -80t156 -26q102 0 176 43t121 111v-131h153v1075h-153v-629q0 -176 -77 -255.5t-190 -79.5q-129 0 -191.5 80.5t-62.5 254.5v629h-153v-655zM242 1219h129l207 211l206 -211h134l-252 327h-172z" />
<glyph unicode="&#xfc;" horiz-adv-x="1161" d="M164 420q0 -117 26.5 -200t75.5 -137t119 -80t156 -26q102 0 176 43t121 111v-131h153v1075h-153v-629q0 -176 -77 -255.5t-190 -79.5q-129 0 -191.5 80.5t-62.5 254.5v629h-153v-655zM268 1348q0 -47 34 -80t81 -33q45 0 78 33t33 80t-33 80.5t-78 33.5q-47 0 -81 -33.5 t-34 -80.5zM666 1348q0 -47 32.5 -80t79.5 -33t80 33t33 80t-33 80.5t-80 33.5t-79.5 -33.5t-32.5 -80.5z" />
<glyph unicode="&#xfd;" horiz-adv-x="1087" d="M82 1075l383 -1063l-148 -391h154l535 1454h-162l-264 -782l-37 -109l-37 111l-262 780h-162zM461 1198h121l309 328h-219z" />
<glyph unicode="&#xfe;" horiz-adv-x="1144" d="M170 -395l154 86v430q57 -66 128.5 -105t174.5 -39q84 0 157.5 37t129 110t87 180.5t31.5 250.5q0 141 -29.5 244.5t-82 169t-123 97.5t-150.5 32q-111 0 -188.5 -46t-134.5 -108v549l-154 -86v-1802zM324 272v537q57 72 127.5 114t156.5 42q129 0 201 -103.5t72 -308.5 q0 -217 -65.5 -329.5t-201.5 -112.5q-96 0 -170.5 47t-119.5 114z" />
<glyph unicode="&#xff;" horiz-adv-x="1087" d="M82 1075l383 -1063l-148 -391h154l535 1454h-162l-264 -782l-37 -109l-37 111l-262 780h-162zM233 1327q0 -47 34 -80t81 -33q45 0 78 33t33 80t-33 81t-78 34q-47 0 -81 -34t-34 -81zM631 1327q0 -47 32.5 -80t79.5 -33t80 33t33 80t-32.5 81t-80.5 34q-47 0 -79.5 -34 t-32.5 -81z" />
<glyph unicode="&#x152;" horiz-adv-x="2136" d="M127 717q0 -162 42 -298t119 -234.5t185.5 -153t241.5 -54.5q86 0 151.5 19.5t116.5 54.5t90 83t72 104v-238h874v145h-731v547h404v146h-404v450h701v146h-844v-232q-31 51 -72 98.5t-94 81t-118.5 54t-145.5 20.5q-133 0 -241.5 -54t-185.5 -152.5t-119 -234.5 t-42 -298zM287 719q0 135 31.5 244.5t88 186.5t134 119t170.5 42q94 0 173 -42t137 -121t91 -188.5t33 -244.5t-32 -245t-88 -186.5t-135 -118.5t-171 -42q-94 0 -173 42t-136.5 121t-90 188.5t-32.5 244.5z" />
<glyph unicode="&#x153;" horiz-adv-x="1835" d="M113 537q0 -137 35.5 -242t97 -175.5t144.5 -106.5t175 -36q72 0 131.5 20.5t105.5 55.5t79.5 81t56.5 99q20 -53 55 -99t80 -81t100.5 -55.5t114.5 -20.5q115 0 197 32t178 93l-72 111q-74 -49 -136 -75.5t-150 -26.5q-127 0 -203 100t-86 274h696q4 18 5 36.5t1 47.5 q0 115 -28.5 212.5t-83 168t-132 109.5t-178.5 39q-131 0 -221 -75t-133 -179q-20 51 -54 97t-80 81t-105.5 55.5t-129.5 20.5q-94 0 -178 -37t-146.5 -107.5t-99 -175t-36.5 -241.5zM268 541q0 213 84 318.5t217 105.5t218 -105.5t85 -318.5t-85 -321.5t-218 -108.5 t-217 108.5t-84 321.5zM1016 610q14 180 89 267.5t189 87.5q68 0 118 -26t85 -73t54.5 -112.5t23.5 -143.5h-559z" />
<glyph unicode="&#x178;" horiz-adv-x="1335" d="M96 1434l492 -867v-567h160v569l491 865h-178l-230 -412q-43 -78 -87 -161t-74 -146q-31 63 -75 146t-87 161l-229 412h-183zM354 1634q0 -47 34 -79.5t81 -32.5q45 0 78 32.5t33 79.5t-33 81t-78 34q-47 0 -81 -34t-34 -81zM752 1634q0 -47 32.5 -79.5t79.5 -32.5 t80 32.5t33 79.5t-33 81t-80 34t-79.5 -34t-32.5 -81z" />
<glyph unicode="&#x2c6;" horiz-adv-x="1024" d="M174 1219h129l207 211l207 -211h133l-252 327h-172z" />
<glyph unicode="&#x2dc;" horiz-adv-x="1024" d="M147 1231h127q10 80 31 108.5t49 28.5q16 0 29.5 -3t30 -13.5t41 -27.5t61.5 -46q39 -29 75 -41t77 -12t78.5 16t66.5 49t46.5 83t17.5 118h-127q-10 -72 -29 -104.5t-51 -32.5q-14 0 -27.5 3t-31 13t-42 27.5t-61.5 46.5q-39 29 -75 41t-77 12t-78.5 -16.5t-66.5 -49 t-46.5 -83t-17.5 -117.5z" />
<glyph unicode="&#x2000;" horiz-adv-x="926" />
<glyph unicode="&#x2001;" horiz-adv-x="1853" />
<glyph unicode="&#x2002;" horiz-adv-x="926" />
<glyph unicode="&#x2003;" horiz-adv-x="1853" />
<glyph unicode="&#x2004;" horiz-adv-x="617" />
<glyph unicode="&#x2005;" horiz-adv-x="463" />
<glyph unicode="&#x2006;" horiz-adv-x="308" />
<glyph unicode="&#x2007;" horiz-adv-x="308" />
<glyph unicode="&#x2008;" horiz-adv-x="231" />
<glyph unicode="&#x2009;" horiz-adv-x="370" />
<glyph unicode="&#x200a;" horiz-adv-x="102" />
<glyph unicode="&#x2010;" horiz-adv-x="659" d="M104 674h451v149h-451v-149z" />
<glyph unicode="&#x2011;" horiz-adv-x="659" d="M104 674h451v149h-451v-149z" />
<glyph unicode="&#x2012;" horiz-adv-x="659" d="M104 674h451v149h-451v-149z" />
<glyph unicode="&#x2013;" horiz-adv-x="864" d="M104 676h656v145h-656v-145z" />
<glyph unicode="&#x2014;" horiz-adv-x="1187" d="M104 676h979v145h-979v-145z" />
<glyph unicode="&#x2018;" horiz-adv-x="516" d="M123 977h209l30 457h-106z" />
<glyph unicode="&#x2019;" horiz-adv-x="516" d="M154 977h106l133 457h-209z" />
<glyph unicode="&#x201a;" horiz-adv-x="516" d="M154 -221h106l133 457h-209z" />
<glyph unicode="&#x201c;" horiz-adv-x="960" d="M123 977h209l30 457h-106zM567 977h209l31 457h-107z" />
<glyph unicode="&#x201d;" horiz-adv-x="960" d="M154 977h106l133 457h-209zM598 977h107l133 457h-209z" />
<glyph unicode="&#x201e;" horiz-adv-x="960" d="M154 -221h106l133 457h-209zM598 -221h107l133 457h-209z" />
<glyph unicode="&#x2022;" horiz-adv-x="765" d="M164 750q0 -45 17.5 -85t47 -70t69.5 -47.5t85 -17.5t85 17.5t69.5 47.5t47 70t17.5 85t-17.5 86t-47 71.5t-69.5 48t-85 17.5t-85 -17.5t-69.5 -48t-47 -71.5t-17.5 -86z" />
<glyph unicode="&#x2026;" horiz-adv-x="1474" d="M115 109q0 -53 39 -92.5t92 -39.5t92 39.5t39 92.5t-39 94t-92 41t-92 -41t-39 -94zM606 109q0 -53 39 -92.5t92 -39.5t92 39.5t39 92.5t-38.5 94t-92.5 41q-53 0 -92 -41t-39 -94zM1098 109q0 -53 39 -92.5t92 -39.5t92 39.5t39 92.5t-39 94t-92 41t-92 -41t-39 -94z " />
<glyph unicode="&#x202f;" horiz-adv-x="370" />
<glyph unicode="&#x2039;" horiz-adv-x="743" d="M61 537l416 -537h174l-415 539l415 536h-174z" />
<glyph unicode="&#x203a;" horiz-adv-x="743" d="M92 0h174l416 539l-416 536h-174l416 -538z" />
<glyph unicode="&#x205f;" horiz-adv-x="463" />
<glyph unicode="&#x20ac;" horiz-adv-x="1218" d="M121 715q0 -176 38 -313.5t109.5 -231.5t173 -143.5t228.5 -49.5q78 0 141 17.5t115.5 48.5t96.5 75t85 97l-102 90q-72 -92 -146 -139t-186 -47q-160 0 -254 102.5t-127 288.5h553v129h-567q-2 20 -3 39v41v47q0 25 3 47h567v129h-551q35 178 129 275.5t248 97.5 q55 0 99 -10.5t80 -32t67.5 -56t64.5 -81.5l119 92q-41 59 -84 103t-94.5 72t-111.5 41t-136 13q-127 0 -229.5 -49t-175 -143.5t-111.5 -232.5t-39 -316z" />
<glyph unicode="&#x2122;" horiz-adv-x="1560" d="M45 1348h238v-732h98v732h237v86h-573v-86zM762 616h92v543v88q6 -25 20.5 -64.5t28.5 -72.5l209 -516l215 516q14 35 28.5 74t20.5 63v-88v-543h92v818h-104l-195 -490q-14 -37 -29.5 -80t-23.5 -69q-8 27 -23.5 69.5t-31.5 79.5l-193 490h-106v-818z" />
<glyph unicode="&#x25fc;" horiz-adv-x="1075" d="M0 0v1075h1075v-1075h-1075z" />
<glyph unicode="&#xfb01;" horiz-adv-x="1222" d="M96 946h148v-946h153v946h211v129h-211v160q0 68 32 90.5t79 22.5q72 0 125 -25v145q-29 10 -58.5 14.5t-76.5 4.5q-113 0 -183.5 -60.5t-70.5 -203.5v-148h-148v-129zM856 1376q0 -45 33 -76.5t80 -31.5q43 0 74.5 31.5t31.5 76.5q0 47 -31.5 79t-74.5 32q-47 0 -80 -32 t-33 -79zM889 0h153v1075h-153v-1075z" />
<glyph unicode="&#xfb02;" horiz-adv-x="1222" d="M96 946h148v-946h153v946h211v129h-211v160q0 68 32 90.5t79 22.5q72 0 125 -25v145q-29 10 -58.5 14.5t-76.5 4.5q-113 0 -183.5 -60.5t-70.5 -203.5v-148h-148v-129zM889 0h153v1493l-153 -86v-1407z" />
</font>
</defs>
</svg>
