<?xml version="1.0" standalone="no"?>
<!DOCTYPE svg PUBLIC "-//W3C//DTD SVG 1.1//EN" "http://www.w3.org/Graphics/SVG/1.1/DTD/svg11.dtd" >
<svg xmlns="http://www.w3.org/2000/svg">
<metadata></metadata>
<defs>
<font id="interstate-boldcondensedRg" horiz-adv-x="1576" >
<font-face units-per-em="2048" ascent="1638" descent="-410" />
<missing-glyph horiz-adv-x="471" />
<glyph horiz-adv-x="2048" />
<glyph horiz-adv-x="2048" />
<glyph unicode="&#xd;" horiz-adv-x="1024" />
<glyph unicode=" "  horiz-adv-x="471" />
<glyph unicode="&#x09;" horiz-adv-x="471" />
<glyph unicode="&#xa0;" horiz-adv-x="471" />
<glyph unicode="!" horiz-adv-x="542" d="M104 143q0 -68 49.5 -117t116.5 -49q68 0 117 49t49 117t-49 117t-117 49t-117 -49t-49 -117zM143 745l39 -315h178l39 315v689h-256v-689z" />
<glyph unicode="&#x22;" horiz-adv-x="964" d="M109 1434l65 -670h164l65 670h-294zM561 1434l66 -670h164l65 670h-295z" />
<glyph unicode="#" horiz-adv-x="1351" d="M92 287h205v-287h242v287h274v-287h242v287h205v221h-205v418h205v221h-205v287h-242v-287h-274v287h-242v-287h-205v-221h205v-418h-205v-221zM539 508v418h274v-418h-274z" />
<glyph unicode="$" horiz-adv-x="964" d="M49 223q59 -72 135 -130t176 -83v-174h258v178q137 37 213 137.5t76 245.5q0 90 -20.5 155.5t-64.5 117t-111.5 96.5t-159.5 94q-59 31 -98 56.5t-62.5 49t-34 49t-10.5 58.5q0 53 37 89t98 36q37 0 65.5 -6t54.5 -21.5t51.5 -40t56.5 -59.5l170 160q-55 72 -118 120 t-143 68v178h-258v-178q-129 -35 -201.5 -131t-72.5 -227q0 -90 23.5 -154.5t67.5 -116t107.5 -93.5t143.5 -83q125 -66 172 -113.5t47 -109.5q0 -72 -40 -113.5t-120 -41.5q-66 0 -132 39.5t-132 123.5z" />
<glyph unicode="%" horiz-adv-x="1763" d="M55 1008q0 -205 82 -324t242 -119t245 121t85 326t-80 324.5t-246 119.5q-162 0 -245 -119.5t-83 -328.5zM264 1012q0 129 23.5 194.5t93.5 65.5t94.5 -67.5t24.5 -196.5q0 -117 -23.5 -188.5t-93.5 -71.5t-94.5 67.5t-24.5 196.5zM410 0h206l736 1434h-207zM1055 420 q0 -205 82 -324t241 -119q160 0 245 121t85 326t-80 324.5t-246 119.5q-162 0 -244.5 -119.5t-82.5 -328.5zM1264 424q0 129 23.5 194.5t92.5 65.5q70 0 94.5 -67.5t24.5 -196.5q0 -117 -23.5 -188.5t-93.5 -71.5t-94 67.5t-24 196.5z" />
<glyph unicode="&#x26;" horiz-adv-x="1110" d="M66 362q0 -180 96 -282.5t293 -102.5q84 0 157.5 33t135.5 92l69 -102h275l-203 307q68 143 102 332l-192 86q-10 -55 -23.5 -105.5t-30.5 -97.5l-276 420q-35 53 -51.5 87t-16.5 83q0 43 31 74t82 31q70 0 128 -23t118 -68l119 209q-84 61 -168 91t-195 30 q-82 0 -149.5 -22.5t-116.5 -65.5t-77 -107.5t-28 -146.5q0 -80 28 -144.5t75 -131.5l49 -74q-119 -86 -175 -182.5t-56 -219.5zM307 371q0 55 23.5 107t89.5 106l203 -297q-70 -74 -162 -74q-74 0 -114 43t-40 115z" />
<glyph unicode="'" horiz-adv-x="522" d="M109 1434l65 -670h174l66 670h-305z" />
<glyph unicode="(" horiz-adv-x="665" d="M92 614q0 -135 29 -255.5t79 -227t116.5 -196t140.5 -160.5l143 108q-55 70 -100 146.5t-77 167t-49.5 196t-17.5 232.5q0 236 64.5 416t179.5 317l-143 108q-78 -78 -144.5 -168t-116 -195.5t-77 -227t-27.5 -261.5z" />
<glyph unicode=")" horiz-adv-x="665" d="M66 -117l143 -108q78 76 144.5 167t115.5 196.5t76.5 227.5t27.5 261q0 135 -28.5 256t-78.5 227.5t-116.5 195.5t-140.5 160l-143 -108q55 -70 100 -146.5t76.5 -167t49 -196t17.5 -232.5q0 -236 -64.5 -416t-178.5 -317z" />
<glyph unicode="*" horiz-adv-x="901" d="M51 909l94 -166l226 152l-19 -272h197l-21 268l224 -150l98 168l-264 121l264 119l-98 168l-224 -152l21 269h-197l19 -271l-226 152l-94 -168l260 -119z" />
<glyph unicode="+" horiz-adv-x="1050" d="M72 588h331v-365h244v365h332v233h-332v365h-244v-365h-331v-233z" />
<glyph unicode="," horiz-adv-x="503" d="M100 -229h168l152 530h-293z" />
<glyph unicode="-" horiz-adv-x="706" d="M92 618h522v250h-522v-250z" />
<glyph unicode="." horiz-adv-x="503" d="M82 147q0 -70 50 -120t120 -50t120 50t50 120t-50 120t-120 50t-120 -50t-50 -120z" />
<glyph unicode="/" horiz-adv-x="829" d="M4 -184h256l565 1802h-256z" />
<glyph unicode="0" horiz-adv-x="1081" d="M82 715q0 -154 24.5 -289t78 -234.5t140.5 -157t212 -57.5t212 57.5t141 158t78.5 235.5t24.5 291q0 154 -24.5 289t-77.5 234t-139 156.5t-211 57.5t-212 -57.5t-142.5 -157.5t-80 -235.5t-24.5 -290.5zM342 719q0 244 45 365.5t150 121.5q104 0 150 -123.5t46 -367.5 t-45 -366t-147 -122q-104 0 -151.5 124t-47.5 368z" />
<glyph unicode="1" horiz-adv-x="645" d="M45 1067h195v-1067h256v1434h-220q-23 -80 -73.5 -138.5t-157.5 -68.5v-160z" />
<glyph unicode="2" horiz-adv-x="1064" d="M92 0h821v250h-532q4 57 22.5 105t54.5 94.5t89 93.5t127 102q51 39 94 82t74.5 94t49 112.5t17.5 135.5q0 188 -113.5 287.5t-299.5 99.5q-133 0 -230.5 -53t-169.5 -146l160 -186q51 59 106.5 94t122.5 35q164 0 164 -168q0 -66 -30.5 -115t-104.5 -102 q-102 -74 -178 -148.5t-128 -167.5t-81 -214t-35 -285z" />
<glyph unicode="3" horiz-adv-x="1040" d="M35 240q86 -135 190.5 -199t249.5 -64q217 0 338 121t121 332q0 76 -20.5 133.5t-54.5 98t-77 67.5t-90 39q90 33 145.5 103.5t55.5 193.5q0 88 -28.5 160.5t-83 124t-130.5 79t-168 27.5q-72 0 -128 -12t-103 -37t-87 -59.5t-79 -77.5l174 -174q55 55 101.5 80.5 t105.5 25.5q92 0 130 -48t38 -120q0 -78 -48 -116.5t-138 -38.5h-101v-248h98q100 0 165 -48t65 -159q0 -88 -50.5 -141.5t-142.5 -53.5q-72 0 -129 34t-116 120z" />
<glyph unicode="4" horiz-adv-x="1044" d="M45 293h563v-293h238v293h147v219h-147v922h-273l-528 -938v-203zM305 510q20 33 47 79t49 87l113 209q35 66 59.5 119t40.5 94q-4 -53 -5 -107.5t-1 -132.5v-346h-135q-47 0 -92 -1t-76 -1z" />
<glyph unicode="5" horiz-adv-x="1017" d="M55 133q78 -72 181.5 -114t214.5 -42q231 0 358 132t127 374q0 111 -28.5 194t-78 138t-117 83t-145.5 28q-72 0 -118 -14.5t-84 -39.5l18 314h479v248h-706l-35 -734l209 -98q84 80 180 80q78 0 123 -52t45 -161q0 -111 -52.5 -175.5t-162.5 -64.5q-74 0 -132.5 21.5 t-131.5 77.5z" />
<glyph unicode="6" horiz-adv-x="1048" d="M82 557q0 -154 34 -264.5t92 -180t139 -102.5t175 -33q100 0 182 33t141.5 96.5t92.5 156.5t33 216q0 111 -31 195t-82 139t-117.5 84t-136.5 29q-92 0 -152.5 -24.5t-113.5 -84.5q18 68 52 133.5t90.5 119.5t137 89t191.5 41v256q-190 -14 -328.5 -88t-226.5 -192.5 t-130 -276.5t-42 -342zM332 469q0 45 12 86t37 71.5t62.5 49t91.5 18.5q94 0 140 -65.5t46 -165.5q0 -49 -11.5 -94t-34 -79t-57 -54.5t-81.5 -20.5q-57 0 -96.5 20.5t-64 55.5t-34.5 81t-10 97z" />
<glyph unicode="7" horiz-adv-x="940" d="M55 1196h545q-162 -242 -240.5 -539t-78.5 -657h245q0 190 20.5 355t61.5 309.5t105.5 271.5t152.5 242v256h-811v-238z" />
<glyph unicode="8" horiz-adv-x="1060" d="M82 428q0 -96 27.5 -178t84 -142.5t140.5 -95.5t196 -35q113 0 197 35t140.5 95.5t84 142.5t27.5 178q0 141 -60.5 224t-144.5 122q66 35 108 104.5t42 168.5q0 88 -26 163.5t-75 130t-122.5 85t-170.5 30.5q-96 0 -169.5 -30.5t-123 -85t-75 -130t-25.5 -163.5 q0 -98 44 -169t106 -104q-84 -39 -144.5 -122t-60.5 -224zM328 428q0 98 52 155.5t150 57.5t150.5 -57.5t52.5 -155.5q0 -92 -53 -153.5t-150 -61.5q-96 0 -149 61.5t-53 153.5zM371 1049q0 72 34.5 124t124.5 52t125 -52t35 -124t-41 -124.5t-119 -52.5t-118.5 52.5 t-40.5 124.5z" />
<glyph unicode="9" horiz-adv-x="1048" d="M78 954q0 -111 30.5 -194.5t82 -139t117 -84t136.5 -28.5q92 0 152.5 24.5t114.5 83.5q-18 -68 -52 -133t-90.5 -119.5t-137.5 -89t-191 -41.5v-256q190 14 328.5 88t226.5 193t130 277t42 342q0 154 -34 264t-92.5 180t-139 102.5t-175.5 32.5q-100 0 -182 -32.5 t-141.5 -96t-92 -157t-32.5 -216.5zM328 971q0 49 11 94t33.5 79t57.5 54.5t82 20.5q57 0 96 -20.5t63.5 -55.5t35 -81t10.5 -97q0 -45 -12.5 -86t-37 -72t-62.5 -49.5t-91 -18.5q-94 0 -140 65.5t-46 166.5z" />
<glyph unicode=":" horiz-adv-x="503" d="M82 147q0 -70 50 -120t120 -50t120 50t50 120t-50 120t-120 50t-120 -50t-50 -120zM82 928q0 -70 50 -120t120 -50t120 50t50 120t-50 120t-120 50t-120 -50.5t-50 -119.5z" />
<glyph unicode=";" horiz-adv-x="503" d="M82 928q0 -70 50 -120t120 -50t120 50t50 120t-50 120t-120 50t-120 -50.5t-50 -119.5zM88 -229h168l152 530h-293z" />
<glyph unicode="&#x3c;" horiz-adv-x="839" d="M86 608l637 -551v328l-389 322l389 319v326l-637 -551v-193z" />
<glyph unicode="=" horiz-adv-x="1071" d="M123 338h825v256h-825v-256zM123 815h825v256h-825v-256z" />
<glyph unicode="&#x3e;" horiz-adv-x="839" d="M117 57l637 551v193l-637 551v-328l389 -322l-389 -319v-326z" />
<glyph unicode="?" horiz-adv-x="909" d="M18 1223l170 -162q53 68 111.5 105.5t124.5 37.5q88 0 130 -41t42 -106q0 -43 -23.5 -87t-62.5 -75q-63 -49 -105.5 -96t-68 -101.5t-35.5 -119t-10 -148.5h241q0 111 31 176.5t94 116.5q86 70 139.5 150.5t53.5 205.5q0 96 -31 167t-85 118t-126.5 69.5t-158.5 22.5 q-152 0 -252.5 -63.5t-178.5 -169.5zM246 143q0 -68 49 -117t117 -49t117 49t49 117t-49.5 117t-116.5 49q-68 0 -117 -49t-49 -117z" />
<glyph unicode="@" horiz-adv-x="1302" d="M82 717q0 -168 43 -304.5t118.5 -233.5t180 -149.5t227.5 -52.5q68 0 126.5 13.5t129.5 60.5l-45 96q-55 -31 -105 -41t-102 -10q-102 0 -186 45t-143.5 127t-91 198t-31.5 255t31.5 252.5t90 194.5t141.5 125t185 44q98 0 182.5 -40t143.5 -115.5t93 -187t34 -253.5 q0 -168 -28.5 -239.5t-90.5 -71.5q-45 0 -60.5 32t-15.5 83v356q0 133 -68.5 196.5t-195.5 63.5q-55 0 -114.5 -19.5t-112.5 -60.5l61 -127q43 35 79 47.5t75 12.5q59 0 88 -23.5t29 -77.5v-79q-31 16 -69 27t-79 11q-47 0 -91 -16t-78 -50t-54.5 -86t-20.5 -122 q0 -76 21.5 -131t56.5 -92t81 -54.5t93 -17.5q57 0 113.5 35t89.5 82q18 -41 62.5 -75t103.5 -34q68 0 115 31t74.5 87t40 135t12.5 173q0 162 -42 295t-117 227.5t-180.5 145.5t-230.5 51q-123 0 -227.5 -52t-180 -149.5t-118.5 -233.5t-43 -304zM520 602q0 53 22.5 89 t75.5 36q45 0 78 -15.5t54 -37.5v-119q-18 -47 -51 -73.5t-72 -26.5q-66 0 -86.5 41t-20.5 106z" />
<glyph unicode="A" horiz-adv-x="1097" d="M57 0h262l68 299h322l67 -299h264l-366 1434h-250zM442 539l39 174q10 43 20.5 92t18.5 96t15.5 87t11.5 69q4 -27 11 -69t16.5 -90t19.5 -98t20 -91l39 -170h-211z" />
<glyph unicode="B" horiz-adv-x="1050" d="M133 0h373q231 0 353 110.5t122 333.5q0 133 -62.5 212t-148.5 114q86 37 131 112.5t45 168.5q0 180 -113.5 281.5t-312.5 101.5h-387v-1434zM383 236v419h129q113 0 164 -52t51 -165q0 -90 -48 -146t-159 -56h-137zM383 885v313h139q94 0 132 -42t38 -116 q0 -61 -34.5 -108t-129.5 -47h-145z" />
<glyph unicode="C" horiz-adv-x="1024" d="M82 715q0 -154 27.5 -289t85 -234.5t145.5 -157t207 -57.5q166 0 263 94.5t148 272.5l-221 94q-20 -59 -39.5 -98t-41 -62.5t-47 -34t-58.5 -10.5q-104 0 -155.5 128t-51.5 358q0 229 49 355t154 126q72 0 106.5 -43t63.5 -141l239 78q-20 78 -52 144.5t-80 114.5 t-114.5 75.5t-158.5 27.5q-119 0 -207 -57.5t-146.5 -157.5t-87 -235.5t-28.5 -290.5z" />
<glyph unicode="D" horiz-adv-x="1085" d="M133 0h318q125 0 227 41t175 129t112 224.5t39 324.5t-37 323.5t-108 222.5t-172 128t-230 41h-324v-1434zM389 250v934h68q86 0 141 -36t87 -99.5t44 -149.5t12 -184t-12 -183.5t-44 -147.5t-87 -98t-141 -36h-68z" />
<glyph unicode="E" horiz-adv-x="974" d="M133 0h754v246h-498v397h322v242h-322v303h479v246h-735v-1434z" />
<glyph unicode="F" horiz-adv-x="950" d="M133 0h256v621h336v247h-336v318h500v248h-756v-1434z" />
<glyph unicode="G" horiz-adv-x="1101" d="M82 715q0 -154 27.5 -289t85 -234.5t147.5 -157t215 -57.5q225 0 340 140.5t115 400.5v246h-453v-240h205q0 -160 -43 -225.5t-160 -65.5t-167 128t-50 358q0 229 48 355t165 126q74 0 123 -41t78 -143l239 78q-47 186 -159.5 274t-276.5 88q-125 0 -216 -57.5 t-149.5 -157.5t-86 -235.5t-27.5 -290.5z" />
<glyph unicode="H" horiz-adv-x="1105" d="M133 0h256v618h328v-618h256v1434h-256v-566h-328v566h-256v-1434z" />
<glyph unicode="I" horiz-adv-x="542" d="M143 0h256v1434h-256v-1434z" />
<glyph unicode="J" horiz-adv-x="983" d="M37 401q23 -205 126 -314.5t277 -109.5q115 0 194 39t128 114t71.5 181.5t22.5 241.5v881h-256v-889q0 -178 -37 -246t-117 -68t-117.5 67t-47.5 177z" />
<glyph unicode="K" horiz-adv-x="1073" d="M133 0h256v385l129 231l232 -616h286l-348 897l305 537h-272l-223 -422q-29 -53 -59.5 -114.5t-53.5 -106.5q2 47 3 101t1 118v424h-256v-1434z" />
<glyph unicode="L" horiz-adv-x="907" d="M133 0h705v250h-449v1184h-256v-1434z" />
<glyph unicode="M" horiz-adv-x="1310" d="M133 0h229v463q0 129 -1 241.5t-3 192.5q23 -78 57 -190.5t72 -235.5l166 -508l166 508q41 123 74 235.5t55 190.5q-2 -80 -3 -192.5t-1 -241.5v-463h234v1434h-254l-170 -531q-31 -96 -58.5 -183t-38.5 -140q-10 51 -36.5 137t-59.5 186l-170 531h-258v-1434z" />
<glyph unicode="N" horiz-adv-x="1114" d="M133 0h234v604v76t-1 88t-2.5 87t-1.5 75q20 -63 50 -143t59 -148l264 -639h246v1434h-233v-594q0 -35 1 -78t2 -89t3 -90t2 -77q-10 31 -24.5 68.5t-30 78.5t-31 80t-27.5 72l-252 629h-258v-1434z" />
<glyph unicode="O" horiz-adv-x="1116" d="M82 715q0 -154 27.5 -289t85 -234.5t147.5 -157t215 -57.5t215 57.5t148.5 158t86 235.5t27.5 291q0 154 -27.5 289t-85 234t-146.5 156.5t-214 57.5t-216 -57.5t-149.5 -157.5t-86 -235.5t-27.5 -290.5zM344 719q0 229 48 355t165 126q115 0 165 -128t50 -357 t-48 -355.5t-163 -126.5q-117 0 -167 128t-50 358z" />
<glyph unicode="P" horiz-adv-x="1019" d="M133 0h256v514h115q92 0 176 28.5t148.5 87t103.5 144.5t39 203q0 113 -33 199t-93.5 143t-144.5 86t-186 29h-381v-1434zM389 764v420h123q113 0 158 -60.5t45 -150.5q0 -98 -50.5 -153.5t-148.5 -55.5h-127z" />
<glyph unicode="Q" horiz-adv-x="1116" d="M82 715q0 -154 27.5 -289t85 -234.5t147.5 -157t215 -57.5q78 0 154 35l84 -141l174 106l-101 166q78 102 122 250t44 326q0 154 -27.5 289t-85 234t-146.5 156.5t-214 57.5t-216 -57.5t-149.5 -157.5t-86 -235.5t-27.5 -290.5zM344 719q0 229 48 355t165 126 q115 0 165 -128t50 -357q0 -123 -9 -207t-28 -143l-78 131l-174 -107l103 -170q-8 -2 -25 -2q-57 0 -98 36t-67.5 101.5t-39 157.5t-12.5 207z" />
<glyph unicode="R" horiz-adv-x="1044" d="M133 0h256v545h84l223 -545h279l-246 596q104 49 173 144.5t69 246.5q0 223 -124 335t-333 112h-381v-1434zM389 784v400h113q117 0 165 -51.5t48 -149.5q0 -199 -199 -199h-127z" />
<glyph unicode="S" horiz-adv-x="964" d="M49 203q74 -92 178.5 -159t249.5 -67q100 0 180 31t135.5 85t85 129t29.5 165t-20.5 156.5t-64.5 121t-111.5 100.5t-159.5 95q-59 31 -98 57.5t-62.5 53t-34 53.5t-10.5 59q0 53 37 89t98 36q37 0 65.5 -6t54.5 -21.5t51.5 -40t56.5 -59.5l170 170q-78 100 -167 152.5 t-225 52.5q-90 0 -164.5 -29.5t-127 -82t-81 -123t-28.5 -150.5q0 -90 23.5 -156.5t67.5 -120t107.5 -96.5t143.5 -84q125 -66 172 -119t47 -114q0 -72 -40 -114t-120 -42q-66 0 -132 40t-132 124z" />
<glyph unicode="T" horiz-adv-x="952" d="M51 1188h297v-1188h256v1188h297v246h-850v-246z" />
<glyph unicode="U" horiz-adv-x="1105" d="M127 569q0 -133 23.5 -242.5t74.5 -187.5t132 -120t196 -42q119 0 200 41t131 118t72.5 187.5t22.5 249.5v861h-256v-865q0 -186 -39 -262t-129 -76q-88 0 -130 76t-42 262v865h-256v-865z" />
<glyph unicode="V" horiz-adv-x="1048" d="M55 1434l346 -1434h250l342 1434h-262l-137 -693q-8 -39 -18.5 -91t-20.5 -105t-18.5 -98.5t-10.5 -69.5q-4 25 -11 70t-17.5 97t-20.5 104t-18 93l-140 693h-264z" />
<glyph unicode="W" horiz-adv-x="1349" d="M41 1434l231 -1434h215l121 602q23 104 38.5 194.5t25.5 166.5q10 -74 25.5 -165t37.5 -196l121 -602h221l232 1434h-240l-70 -535q-6 -39 -12 -93t-12 -111.5t-11.5 -111t-9.5 -89.5q-4 37 -13 90t-18.5 110.5t-19.5 111.5t-18 93l-105 535h-211l-104 -535 q-8 -39 -17.5 -93t-19.5 -111.5t-18.5 -111t-12.5 -89.5q-4 37 -9 90t-11 110.5t-12.5 111.5t-12.5 93l-69 535h-242z" />
<glyph unicode="X" horiz-adv-x="1052" d="M45 0h277l118 270q23 47 47.5 111.5t38.5 107.5l40 -107.5t46 -111.5l119 -270h277l-344 737l325 697h-276l-101 -230q-23 -47 -46 -111.5t-40 -107.5q-14 43 -38.5 107.5t-47.5 111.5l-100 230h-277l324 -699z" />
<glyph unicode="Y" horiz-adv-x="1064" d="M35 1434l368 -897v-537h256v541l371 893h-278l-111 -291q-16 -45 -33.5 -93.5t-32 -93.5t-24.5 -83.5t-16 -63.5q-4 25 -15.5 62.5t-26 82.5t-31 93.5t-34.5 95.5l-111 291h-282z" />
<glyph unicode="Z" horiz-adv-x="960" d="M76 0h782v231h-332q-53 0 -98 -1t-84 -3q23 37 48.5 82t53.5 99l412 798v228h-747v-232h301q53 0 98 1t84 3q-23 -37 -48.5 -82t-53.5 -98l-416 -799v-227z" />
<glyph unicode="[" horiz-adv-x="747" d="M154 -225h485v205h-233v1249h233v205h-485v-1659z" />
<glyph unicode="\" horiz-adv-x="829" d="M4 1618l565 -1802h256l-565 1802h-256z" />
<glyph unicode="]" horiz-adv-x="747" d="M109 -20v-205h485v1659h-485v-205h233v-1249h-233z" />
<glyph unicode="^" horiz-adv-x="950" d="M61 782h246l166 402l166 -402h250l-293 652h-242z" />
<glyph unicode="_" horiz-adv-x="778" d="M0 -147v-215h778v215h-778z" />
<glyph unicode="`" horiz-adv-x="819" d="M133 1546l297 -327h199l-178 327h-318z" />
<glyph unicode="a" horiz-adv-x="909" d="M55 352q0 -174 88 -274.5t230 -100.5q53 0 104 25t88 72v-74h242v739q0 178 -83 268.5t-271 90.5q-98 0 -178 -27t-154 -78l98 -176q51 35 100.5 50.5t116.5 15.5q72 0 100.5 -38t28.5 -95v-82q-35 23 -71.5 33t-108.5 10t-132 -26t-104.5 -72t-69 -112.5t-24.5 -148.5z M301 356q0 68 33 109t84 41q55 0 87 -13.5t60 -37.5v-172q-23 -39 -60.5 -64.5t-80.5 -25.5q-59 0 -91 43t-32 120z" />
<glyph unicode="b" horiz-adv-x="950" d="M113 0h241v59q35 -37 84 -59.5t103 -22.5q88 0 151.5 42t103.5 116t59 177.5t19 226.5q0 287 -80.5 423t-232.5 136q-59 0 -112.5 -27t-94.5 -70v492l-241 -121v-1372zM354 295v487q23 33 64 61.5t86 28.5q76 0 100.5 -82t24.5 -260q0 -94 -7.5 -156.5t-21.5 -100 t-36.5 -54t-55.5 -16.5q-51 0 -90 28.5t-64 63.5z" />
<glyph unicode="c" horiz-adv-x="880" d="M72 535q0 -135 29.5 -240t84 -175.5t128 -106.5t163.5 -36q125 0 207 73t129 186l-178 129q-27 -68 -65 -113t-91 -45q-86 0 -124 90t-38 242t36 240.5t118 88.5q53 0 88 -40t64 -105l194 131q-49 121 -133 182.5t-209 61.5q-88 0 -161.5 -37t-128 -108.5t-84 -177 t-29.5 -240.5z" />
<glyph unicode="d" horiz-adv-x="950" d="M76 537q0 -287 81 -423.5t232 -136.5q59 0 112.5 27t94.5 70v-74h242v1493l-242 -121v-356q-35 37 -84 59.5t-102 22.5q-88 0 -151.5 -42t-103.5 -116t-59.5 -177.5t-19.5 -225.5zM322 545q0 94 7 156.5t21.5 100.5t37 54t54.5 16q51 0 90 -28.5t64 -63.5v-487 q-23 -33 -63.5 -61.5t-86.5 -28.5q-76 0 -100 82t-24 260z" />
<glyph unicode="e" horiz-adv-x="933" d="M72 537q0 -125 26.5 -227.5t78.5 -176.5t129 -115t177 -41q106 0 195.5 48.5t148.5 146.5l-172 129q-35 -47 -68.5 -70.5t-99.5 -23.5q-72 0 -117.5 57.5t-54.5 181.5h543q2 23 3 45.5t1 45.5q0 111 -23.5 212t-71.5 179t-123 124t-175 46q-88 0 -160.5 -37t-125 -108.5 t-82 -176t-29.5 -239.5zM315 645q18 236 152 236q39 0 66.5 -18.5t45 -50.5t28 -75t14.5 -92h-306z" />
<glyph unicode="f" horiz-adv-x="645" d="M61 846h109v-846h242v846h172v229h-172v88q0 59 21.5 82t72.5 23q65 -1 108 -21v209q-35 16 -76.5 23.5t-105.5 7.5q-55 0 -102 -16.5t-83 -50.5t-56.5 -88t-20.5 -128v-129h-109v-229z" />
<glyph unicode="g" horiz-adv-x="950" d="M76 537q0 -287 81 -423.5t232 -136.5q59 0 112.5 27t94.5 70q0 -74 -9 -121t-40 -79t-88.5 -51.5t-151.5 -37.5l66 -180q137 18 227 54t143.5 96.5t74 147.5t20.5 208v964h-242v-59q-35 37 -84 59.5t-102 22.5q-88 0 -151.5 -42t-103.5 -116t-59.5 -177.5t-19.5 -225.5z M322 545q0 94 7 156.5t21.5 100.5t37 54t54.5 16q51 0 90 -28.5t64 -63.5v-487q-23 -33 -63.5 -61.5t-86.5 -28.5q-76 0 -100 82t-24 260z" />
<glyph unicode="h" horiz-adv-x="944" d="M113 0h241v782q23 33 63 61.5t81 28.5q66 0 84 -37.5t18 -138.5v-696h242v705q0 94 -12.5 167.5t-45 124t-88 76t-141.5 25.5q-59 0 -109.5 -27t-91.5 -70v492l-241 -121v-1372z" />
<glyph unicode="i" horiz-adv-x="487" d="M90 1333q0 -63 45 -108t109 -45q63 0 108 45t45 108t-45 108.5t-108 45.5t-108.5 -45t-45.5 -109zM123 0h242v1075h-242v-1075z" />
<glyph unicode="j" horiz-adv-x="487" d="M-104 -211l67 -184q123 20 201 50t122 82t61.5 132t17.5 199v1007h-242v-1018q0 -68 -7 -111.5t-30 -73.5t-69 -48.5t-121 -34.5zM90 1333q0 -63 45 -108t109 -45q63 0 108 45t45 108t-45 108.5t-108 45.5t-108.5 -45t-45.5 -109z" />
<glyph unicode="k" horiz-adv-x="907" d="M113 0h241v336l97 158l159 -494h252l-246 725l234 350h-266l-150 -254q-18 -31 -40.5 -71.5t-41.5 -81.5q0 45 1 75.5t1 75.5v674l-241 -121v-1372z" />
<glyph unicode="l" horiz-adv-x="487" d="M123 0h242v1493l-242 -121v-1372z" />
<glyph unicode="m" horiz-adv-x="1398" d="M113 0h241v782q23 33 60 61.5t75 28.5q59 0 77 -37.5t18 -138.5v-696h241v782q23 33 60 61.5t76 28.5q59 0 76.5 -37.5t17.5 -138.5v-696h241v705q0 94 -11 167.5t-42 124t-85 76t-140 25.5q-78 0 -134.5 -36t-101.5 -83q-29 53 -83 86t-152 33q-53 0 -102.5 -27 t-90.5 -70v74h-241v-1075z" />
<glyph unicode="n" horiz-adv-x="944" d="M113 0h241v782q23 33 63 61.5t81 28.5q66 0 84 -37.5t18 -138.5v-696h242v705q0 94 -12.5 167.5t-45 124t-88 76t-141.5 25.5q-59 0 -109.5 -27t-91.5 -70v74h-241v-1075z" />
<glyph unicode="o" horiz-adv-x="958" d="M72 535q0 -135 29.5 -240t83 -175.5t129 -106.5t165.5 -36t165 37t129 108t84 176.5t30 240.5t-30 239.5t-83 175t-128 107.5t-165 37t-165.5 -37t-130 -108.5t-84 -177t-29.5 -240.5zM317 539q0 152 36 240.5t124 88.5q86 0 125 -91.5t39 -241.5q0 -68 -9 -127.5 t-27.5 -104.5t-49.5 -70.5t-74 -25.5q-88 0 -126 90t-38 242z" />
<glyph unicode="p" horiz-adv-x="950" d="M113 -395l241 121v333q35 -37 84 -59.5t103 -22.5q88 0 151.5 42t103.5 116t59 177.5t19 226.5q0 287 -80.5 423t-232.5 136q-59 0 -112.5 -27t-94.5 -70v74h-241v-1470zM354 295v487q23 33 64 61.5t86 28.5q76 0 100.5 -82t24.5 -260q0 -94 -7.5 -156.5t-21.5 -100 t-36.5 -54t-55.5 -16.5q-51 0 -90 28.5t-64 63.5z" />
<glyph unicode="q" horiz-adv-x="950" d="M76 537q0 -287 81 -423.5t232 -136.5q59 0 112.5 27t94.5 70v-469l242 121v1349h-242v-59q-35 37 -84 59.5t-102 22.5q-88 0 -151.5 -42t-103.5 -116t-59.5 -177.5t-19.5 -225.5zM322 545q0 94 7 156.5t21.5 100.5t37 54t54.5 16q51 0 90 -28.5t64 -63.5v-487 q-23 -33 -63.5 -61.5t-86.5 -28.5q-76 0 -100 82t-24 260z" />
<glyph unicode="r" horiz-adv-x="745" d="M113 0h241v768q63 92 156 92q43 0 77 -14.5t64 -38.5l70 235q-39 29 -78 42.5t-92 13.5q-59 0 -112.5 -31t-84.5 -66v74h-241v-1075z" />
<glyph unicode="s" horiz-adv-x="847" d="M72 94q76 -59 157.5 -88t182.5 -29q154 0 253 86t99 252q0 127 -64.5 201t-183.5 131q-55 27 -90 46.5t-55.5 35.5t-27.5 31.5t-7 34.5q0 33 24.5 53t65.5 20q59 0 107.5 -14t117.5 -51l84 196q-72 49 -144.5 74t-158.5 25q-72 0 -133 -21.5t-105 -61.5t-69 -97.5 t-25 -129.5q0 -125 58.5 -199.5t175.5 -131.5q57 -29 94 -48.5t59.5 -38t31.5 -36t9 -39.5q0 -41 -27.5 -64.5t-84.5 -23.5q-125 0 -258 94z" />
<glyph unicode="t" horiz-adv-x="747" d="M51 846h133v-539q0 -178 64.5 -254t195.5 -76q53 0 98.5 12.5t86.5 35.5l28 233q-70 -51 -143 -51q-43 0 -65.5 23.5t-22.5 82.5v533h217v229h-217v418l-242 -121v-297h-133v-229z" />
<glyph unicode="u" horiz-adv-x="944" d="M102 371q0 -94 12.5 -168t45.5 -124t88 -76t141 -26q59 0 109.5 27t91.5 70v-74h241v1075h-241v-782q-23 -33 -63 -61.5t-81 -28.5q-66 0 -84 38t-18 138v696h-242v-704z" />
<glyph unicode="v" horiz-adv-x="892" d="M41 1075l274 -1075h263l274 1075h-238l-100 -465q-6 -31 -15.5 -78t-19.5 -97t-18 -94t-12 -65q-4 20 -12.5 63.5t-17.5 92.5t-19.5 97.5t-16.5 80.5l-100 465h-242z" />
<glyph unicode="w" horiz-adv-x="1196" d="M41 1075l238 -1075h180l73 369q8 37 17.5 85l19 96t16.5 90t11 71q4 -29 11 -71t16.5 -90t18.5 -94t17 -83l78 -373h181l237 1075h-221l-55 -315q-6 -39 -14.5 -87t-16.5 -97.5t-14.5 -93.5t-10.5 -70q-4 27 -12 70.5t-18.5 93t-20.5 97.5t-18 85l-70 317h-172l-70 -317 q-8 -37 -18 -85t-20.5 -97.5t-18.5 -93.5t-12 -70q-4 27 -10.5 70.5t-14.5 93t-16 97.5t-15 87l-55 315h-221z" />
<glyph unicode="x" horiz-adv-x="913" d="M47 0h254l80 172q23 47 40 93t34 91q16 -45 33.5 -91t39.5 -93l80 -172h258l-286 557l266 518h-254l-60 -131q-23 -47 -40 -93t-33 -91q-16 43 -33.5 90t-40.5 94l-59 131h-258l266 -518z" />
<glyph unicode="y" horiz-adv-x="925" d="M41 1075l319 -1057l-108 -397h223l410 1454h-252l-90 -403q-8 -37 -18.5 -87t-20.5 -99.5t-18.5 -92.5t-12.5 -65q-4 23 -13 64.5t-19.5 90.5t-22.5 99.5t-23 91.5l-100 401h-254z" />
<glyph unicode="z" horiz-adv-x="849" d="M78 0h680v217h-205q-66 0 -123 -1t-106 -3q35 45 74.5 100.5t80.5 120.5l279 430v211h-649v-217h180q66 0 123 1t104 3q-33 -43 -73 -100t-81 -121l-284 -430v-211z" />
<glyph unicode="{" horiz-adv-x="768" d="M51 502h45q59 0 91 -34t32 -108v-153q0 -106 25.5 -187t81 -135.5t144.5 -82t216 -27.5v166q-70 8 -109.5 26.5t-61 51t-28 78.5t-6.5 110v82q0 82 -11 137t-35.5 91t-61.5 56.5t-86 34.5q49 14 86 35t61.5 56.5t35.5 90t11 138.5v84q0 63 6.5 109t28 79t61 51.5 t109.5 26.5v166q-127 0 -216 -27.5t-144.5 -82t-81 -135.5t-25.5 -187v-156q0 -74 -31.5 -107.5t-91.5 -33.5h-45v-213z" />
<glyph unicode="|" horiz-adv-x="528" d="M152 -379h225v2017h-225v-2017z" />
<glyph unicode="}" horiz-adv-x="768" d="M82 -59v-166q127 0 216 27.5t144.5 82t81 135t25.5 187.5v155q0 74 31.5 108t91.5 34h45v213h-45q-59 0 -91 33.5t-32 107.5v154q0 106 -25.5 187t-81 135.5t-144.5 82t-216 27.5v-166q70 -8 109.5 -26.5t61 -51.5t28 -79t6.5 -109v-82q0 -84 11 -138.5t35.5 -90 t61.5 -56t86 -35.5q-49 -14 -86 -34.5t-61.5 -56.5t-35.5 -91t-11 -137v-84q0 -63 -6.5 -109.5t-28 -79t-61 -51t-109.5 -26.5z" />
<glyph unicode="~" horiz-adv-x="1150" d="M86 651l147 -76q43 88 73 122t79 34q29 0 66.5 -18.5t103.5 -63.5q51 -35 92 -52t105 -17q115 0 186.5 73.5t126.5 214.5l-147 76q-23 -45 -40.5 -74.5t-34 -48t-36 -26t-43.5 -7.5q-49 0 -168 82q-51 35 -92 52.5t-105 17.5q-115 0 -186.5 -73.5t-126.5 -215.5z" />
<glyph unicode="&#xa1;" horiz-adv-x="542" d="M106 1268q0 -68 49.5 -117t116.5 -49q68 0 117 49t49 117t-49 117t-117 49t-117 -49.5t-49 -116.5zM143 -23h256v689l-39 315h-178l-39 -315v-689z" />
<glyph unicode="&#xa2;" horiz-adv-x="880" d="M72 725q0 -215 70.5 -348t191.5 -182v-218h244v205q84 27 141 91.5t94 152.5l-178 123q-27 -68 -65 -113t-91 -45q-84 0 -123 93.5t-39 244.5q0 152 36 244t118 92q53 0 88 -40t64 -105l194 124q-78 188 -239 232v180h-244v-196q-119 -49 -190.5 -184.5t-71.5 -350.5z " />
<glyph unicode="&#xa3;" horiz-adv-x="1001" d="M123 0h803v223h-518q51 80 82.5 162t41.5 178h218v211h-232q-14 55 -41 115q-23 47 -36 98t-13 92q0 59 36 94t107 35q70 0 130.5 -26.5t119.5 -73.5l133 195q-88 72 -183 112.5t-216 40.5q-176 0 -278.5 -97t-102.5 -265q0 -63 16.5 -125t38.5 -109q20 -43 37 -86h-143 v-211h168q-8 -100 -48 -182t-120 -172v-209z" />
<glyph unicode="&#xa4;" horiz-adv-x="1024" d="M82 715q0 -154 27.5 -289t85 -234.5t142.5 -157t200 -57.5q168 0 269 89.5t152 267.5l-221 94q-20 -61 -39.5 -100t-41 -62.5t-47 -33t-58.5 -9.5q-156 0 -199 266h355v179h-371v51v45h371v178h-357q37 268 187 268q74 0 113.5 -47t66.5 -137l239 78q-23 80 -54.5 144.5 t-79.5 110.5t-113.5 71.5t-157.5 25.5q-119 0 -207 -57.5t-146.5 -157.5t-87 -235.5t-28.5 -290.5z" />
<glyph unicode="&#xa5;" horiz-adv-x="1015" d="M31 1434l356 -932v-53h-215v-220h215v-229h240v229h215v220h-215v57l358 928h-278l-95 -291q-12 -41 -27.5 -90t-29.5 -98.5t-26.5 -92.5t-18.5 -74q-6 29 -17.5 73t-25.5 93.5t-30.5 98.5t-28.5 90l-95 291h-282z" />
<glyph unicode="&#xa6;" d="M41 717l360 -273q16 -10 31 -10q14 0 23 6q33 23 18 64l-29 102h234v-233l-103 28q-41 14 -63 -18q-6 -8 -6 -23q0 -14 10 -30l272 -361l267 361q12 16 12 30t-6 23q-20 33 -62 18l-104 -28v233h238l-29 -102q-14 -41 18 -64q8 -6 23 -6q14 0 31 10l360 273l-360 266 q-16 12 -31 12q-14 0 -23 -6q-33 -20 -18 -61l29 -105h-238v238l104 -29q41 -14 62 19q6 8 6 22t-12 31l-267 360l-272 -360q-10 -16 -10 -31q0 -14 6 -22q23 -33 63 -19l103 29v-238h-234l29 105q14 41 -18 61q-8 6 -23 6q-14 0 -31 -12z" />
<glyph unicode="&#xa7;" horiz-adv-x="1079" d="M90 586q0 -76 19.5 -133.5t60.5 -103.5t103.5 -87t150.5 -84q68 -33 111 -56.5t67.5 -45t33.5 -42t9 -46.5q0 -92 -129 -92q-61 0 -124.5 23.5t-121.5 60.5l-110 -199q84 -53 172 -85t188 -32q88 0 159 24.5t121 68.5t76.5 105.5t26.5 135.5q0 72 -23.5 124t-72.5 97 q78 51 130 126t52 190q0 76 -19.5 133t-60.5 103t-103.5 87t-150.5 84q-68 33 -110.5 56.5t-67 45t-34 42t-9.5 47.5q0 92 129 92q61 0 125 -23.5t121 -60.5l111 198q-84 53 -172.5 85t-188.5 32q-88 0 -158.5 -24.5t-121 -68.5t-77 -105.5t-26.5 -135.5q0 -72 23.5 -124 t70.5 -97q-78 -51 -129 -126t-51 -189zM346 604q0 59 28.5 100t86.5 74q10 -6 23.5 -12t25.5 -12q66 -33 109 -58.5t68.5 -52.5t35.5 -57.5t10 -69.5q0 -59 -28.5 -100t-86.5 -74q-10 6 -23 12t-26 13q-66 33 -108.5 58.5t-68 52t-36 56t-10.5 70.5z" />
<glyph unicode="&#xa8;" horiz-adv-x="819" d="M68 1364q0 -29 12 -55.5t31.5 -47t46 -31.5t57.5 -11q59 0 102 43t43 102q0 31 -12 57.5t-31.5 46t-46 31.5t-55.5 12q-59 0 -103 -44t-44 -103zM459 1364q0 -29 12 -55.5t31.5 -47t46 -31.5t57.5 -11q59 0 102.5 43t43.5 102q0 31 -12.5 57.5t-32 46t-46 31.5t-55.5 12 q-59 0 -103 -44t-44 -103z" />
<glyph unicode="&#xa9;" horiz-adv-x="1323" d="M82 717q0 -168 43 -304.5t118.5 -233.5t180 -149.5t227.5 -52.5t227.5 52.5t180.5 149.5t119 233.5t43 304.5t-43 304t-119 233.5t-180.5 149.5t-227.5 52t-227.5 -52t-180 -149.5t-118.5 -233.5t-43 -304zM207 721q0 139 30.5 252.5t89 194.5t140.5 125t184 44 q100 0 182 -45t140.5 -127t90.5 -197.5t32 -254.5t-31 -253t-88 -195t-139 -125t-183 -44q-102 0 -185 45t-141.5 127t-90 198t-31.5 255zM395 719q0 -86 15.5 -162t48.5 -132t81 -88t115 -32q92 0 147.5 53.5t84.5 153.5l-125 51q-23 -66 -45.5 -90t-59.5 -24 q-59 0 -86.5 71.5t-27.5 200.5t26.5 199.5t85.5 70.5q41 0 59.5 -24.5t35.5 -79.5l135 43q-23 88 -74 146.5t-154 58.5q-68 0 -116.5 -33t-80.5 -89.5t-48.5 -132t-16.5 -161.5z" />
<glyph unicode="&#xaa;" horiz-adv-x="811" d="M86 852q0 -141 70.5 -222t187.5 -81q41 0 83 19.5t73 58.5v-60h194v598q0 143 -66.5 217t-219.5 74q-80 0 -144.5 -22.5t-124.5 -63.5l80 -141q41 29 81 41t95 12q59 0 82 -30.5t23 -77.5v-66q-29 16 -58.5 25.5t-89.5 9.5q-117 0 -191.5 -78t-74.5 -213zM285 856 q0 53 26.5 87t67.5 34q47 0 71.5 -11.5t49.5 -31.5v-139q-18 -31 -49 -51.5t-66 -20.5q-100 0 -100 133z" />
<glyph unicode="&#xab;" horiz-adv-x="1044" d="M41 537l276 -537h242l-266 539l266 536h-242zM455 537l276 -537h242l-266 539l266 536h-242z" />
<glyph unicode="&#xac;" horiz-adv-x="1187" d="M92 588h606l-32 -113q-14 -47 20 -72q10 -6 25 -6q16 0 34 11l402 303l-402 297q-18 14 -33.5 13t-25.5 -7q-35 -23 -20 -68l32 -117h-606v-241z" />
<glyph unicode="&#xad;" horiz-adv-x="706" d="M92 618h522v250h-522v-250z" />
<glyph unicode="&#xae;" horiz-adv-x="1323" d="M82 717q0 -168 43 -304.5t118.5 -233.5t180 -149.5t227.5 -52.5t227.5 52.5t180.5 149.5t119 233.5t43 304.5t-43 304t-119 233.5t-180.5 149.5t-227.5 52t-227.5 -52t-180 -149.5t-118.5 -233.5t-43 -304zM207 721q0 139 30.5 252.5t89 194.5t140.5 125t184 44 q100 0 182 -45t140.5 -127t90.5 -197.5t32 -254.5t-31 -253t-88 -195t-139 -125t-183 -44q-102 0 -185 45t-141.5 127t-90 198t-31.5 255zM440 332h144v305h47l125 -305h157l-139 334q59 27 98 80t39 139q0 125 -69.5 187.5t-186.5 62.5h-215v-803zM584 770v223h63 q66 0 93.5 -28.5t27.5 -83.5q0 -111 -113 -111h-71z" />
<glyph unicode="&#xaf;" horiz-adv-x="819" d="M143 1249h533v195h-533v-195z" />
<glyph unicode="&#xb0;" horiz-adv-x="866" d="M61 1087q0 -80 29 -148.5t79 -118.5t117.5 -78.5t145.5 -28.5q80 0 147.5 28.5t118 78.5t79 118.5t28.5 148.5q0 76 -28.5 143.5t-79 118t-118 79t-147.5 28.5q-78 0 -145.5 -28.5t-117.5 -79t-79 -118t-29 -143.5zM252 1087q0 37 14.5 70t39 57.5t57 39t69.5 14.5 t71 -14.5t58.5 -39t38.5 -57.5t14 -70q0 -78 -53 -132t-129 -54q-37 0 -69.5 14.5t-57 40t-39 59.5t-14.5 72z" />
<glyph unicode="&#xb1;" d="M41 717l360 -273q16 -10 31 -10q14 0 23 6q33 23 18 64l-29 102h234v-233l-103 28q-41 14 -63 -18q-6 -8 -6 -23q0 -14 10 -30l272 -361l267 361q12 16 12 30t-6 23q-20 33 -62 18l-104 -28v233h238l-29 -102q-14 -41 18 -64q8 -6 23 -6q14 0 31 10l360 273l-360 266 q-16 12 -31 12q-14 0 -23 -6q-33 -20 -18 -61l29 -105h-238v238l104 -29q41 -14 62 19q6 8 6 22t-12 31l-267 360l-272 -360q-10 -16 -10 -31q0 -14 6 -22q23 -33 63 -19l103 29v-238h-234l29 105q14 41 -18 61q-8 6 -23 6q-14 0 -31 -12z" />
<glyph unicode="&#xb2;" d="M41 717l360 -273q16 -10 31 -10q14 0 23 6q33 23 18 64l-29 102h234v-233l-103 28q-41 14 -63 -18q-6 -8 -6 -23q0 -14 10 -30l272 -361l267 361q12 16 12 30t-6 23q-20 33 -62 18l-104 -28v233h238l-29 -102q-14 -41 18 -64q8 -6 23 -6q14 0 31 10l360 273l-360 266 q-16 12 -31 12q-14 0 -23 -6q-33 -20 -18 -61l29 -105h-238v238l104 -29q41 -14 62 19q6 8 6 22t-12 31l-267 360l-272 -360q-10 -16 -10 -31q0 -14 6 -22q23 -33 63 -19l103 29v-238h-234l29 105q14 41 -18 61q-8 6 -23 6q-14 0 -31 -12z" />
<glyph unicode="&#xb3;" d="M41 717l360 -273q16 -10 31 -10q14 0 23 6q33 23 18 64l-29 102h234v-233l-103 28q-41 14 -63 -18q-6 -8 -6 -23q0 -14 10 -30l272 -361l267 361q12 16 12 30t-6 23q-20 33 -62 18l-104 -28v233h238l-29 -102q-14 -41 18 -64q8 -6 23 -6q14 0 31 10l360 273l-360 266 q-16 12 -31 12q-14 0 -23 -6q-33 -20 -18 -61l29 -105h-238v238l104 -29q41 -14 62 19q6 8 6 22t-12 31l-267 360l-272 -360q-10 -16 -10 -31q0 -14 6 -22q23 -33 63 -19l103 29v-238h-234l29 105q14 41 -18 61q-8 6 -23 6q-14 0 -31 -12z" />
<glyph unicode="&#xb4;" horiz-adv-x="819" d="M190 1219h199l297 327h-317z" />
<glyph unicode="&#xb6;" horiz-adv-x="1269" d="M86 975q0 -113 33 -199t93 -144.5t144 -88t187 -29.5h16v-893h215v1616h131v-1616h215v1813h-567q-92 0 -176 -29t-148.5 -85t-103.5 -142t-39 -203z" />
<glyph unicode="&#xb7;" horiz-adv-x="503" d="M82 752q0 -70 50 -120t120 -50t120 50t50 120t-50 120t-120 50t-120 -50.5t-50 -119.5z" />
<glyph unicode="&#xb8;" horiz-adv-x="819" d="M203 -322q51 -35 104 -54t133 -19q92 0 152.5 43t60.5 135q0 72 -37.5 107.5t-97.5 35.5q-47 0 -74 -12l25 111h-117l-43 -181l74 -28q27 18 61 18q53 0 54 -57q0 -35 -23.5 -54.5t-77.5 -19.5q-41 0 -72.5 14.5t-78.5 38.5z" />
<glyph unicode="&#xb9;" d="M41 717l360 -273q16 -10 31 -10q14 0 23 6q33 23 18 64l-29 102h234v-233l-103 28q-41 14 -63 -18q-6 -8 -6 -23q0 -14 10 -30l272 -361l267 361q12 16 12 30t-6 23q-20 33 -62 18l-104 -28v233h238l-29 -102q-14 -41 18 -64q8 -6 23 -6q14 0 31 10l360 273l-360 266 q-16 12 -31 12q-14 0 -23 -6q-33 -20 -18 -61l29 -105h-238v238l104 -29q41 -14 62 19q6 8 6 22t-12 31l-267 360l-272 -360q-10 -16 -10 -31q0 -14 6 -22q23 -33 63 -19l103 29v-238h-234l29 105q14 41 -18 61q-8 6 -23 6q-14 0 -31 -12z" />
<glyph unicode="&#xba;" horiz-adv-x="815" d="M78 999q0 -221 91 -335.5t239 -114.5q147 0 238 116t91 339q0 221 -90 336.5t-237 115.5t-239.5 -116.5t-92.5 -340.5zM276 1004q0 123 29 194.5t101 71.5t102.5 -74t30.5 -197q0 -55 -7.5 -103t-22.5 -84t-40 -56.5t-59 -20.5q-72 0 -103 73t-31 196z" />
<glyph unicode="&#xbb;" horiz-adv-x="1044" d="M72 0h241l277 539l-277 536h-241l266 -538zM485 0h242l277 539l-277 536h-242l267 -538z" />
<glyph unicode="&#xbc;" d="M41 717l360 -273q16 -10 31 -10q14 0 23 6q33 23 18 64l-29 102h234v-233l-103 28q-41 14 -63 -18q-6 -8 -6 -23q0 -14 10 -30l272 -361l267 361q12 16 12 30t-6 23q-20 33 -62 18l-104 -28v233h238l-29 -102q-14 -41 18 -64q8 -6 23 -6q14 0 31 10l360 273l-360 266 q-16 12 -31 12q-14 0 -23 -6q-33 -20 -18 -61l29 -105h-238v238l104 -29q41 -14 62 19q6 8 6 22t-12 31l-267 360l-272 -360q-10 -16 -10 -31q0 -14 6 -22q23 -33 63 -19l103 29v-238h-234l29 105q14 41 -18 61q-8 6 -23 6q-14 0 -31 -12z" />
<glyph unicode="&#xbd;" d="M41 717l360 -273q16 -10 31 -10q14 0 23 6q33 23 18 64l-29 102h234v-233l-103 28q-41 14 -63 -18q-6 -8 -6 -23q0 -14 10 -30l272 -361l267 361q12 16 12 30t-6 23q-20 33 -62 18l-104 -28v233h238l-29 -102q-14 -41 18 -64q8 -6 23 -6q14 0 31 10l360 273l-360 266 q-16 12 -31 12q-14 0 -23 -6q-33 -20 -18 -61l29 -105h-238v238l104 -29q41 -14 62 19q6 8 6 22t-12 31l-267 360l-272 -360q-10 -16 -10 -31q0 -14 6 -22q23 -33 63 -19l103 29v-238h-234l29 105q14 41 -18 61q-8 6 -23 6q-14 0 -31 -12z" />
<glyph unicode="&#xbe;" d="M41 717l360 -273q16 -10 31 -10q14 0 23 6q33 23 18 64l-29 102h234v-233l-103 28q-41 14 -63 -18q-6 -8 -6 -23q0 -14 10 -30l272 -361l267 361q12 16 12 30t-6 23q-20 33 -62 18l-104 -28v233h238l-29 -102q-14 -41 18 -64q8 -6 23 -6q14 0 31 10l360 273l-360 266 q-16 12 -31 12q-14 0 -23 -6q-33 -20 -18 -61l29 -105h-238v238l104 -29q41 -14 62 19q6 8 6 22t-12 31l-267 360l-272 -360q-10 -16 -10 -31q0 -14 6 -22q23 -33 63 -19l103 29v-238h-234l29 105q14 41 -18 61q-8 6 -23 6q-14 0 -31 -12z" />
<glyph unicode="&#xbf;" horiz-adv-x="909" d="M59 354q0 -96 31 -166.5t85 -117.5t127 -70t159 -23q150 0 251 62.5t179 171.5l-170 162q-53 -68 -111.5 -106t-124.5 -38q-88 0 -130 41t-42 107q0 43 23.5 87t62.5 75q63 49 105.5 96t68 101.5t35.5 119t10 148.5h-241q0 -111 -31 -176.5t-94 -116.5 q-86 -70 -139.5 -151t-53.5 -206zM332 1290q0 -68 49 -117t117 -49t117 49t49 117t-49.5 117t-116.5 49q-68 0 -117 -49t-49 -117z" />
<glyph unicode="&#xc0;" horiz-adv-x="1097" d="M57 0h262l68 299h322l67 -299h264l-366 1434h-250zM166 1853l297 -327h199l-179 327h-317zM442 539l39 174q10 43 20.5 92t18.5 96t15.5 87t11.5 69q4 -27 11 -69t16.5 -90t19.5 -98t20 -91l39 -170h-211z" />
<glyph unicode="&#xc1;" horiz-adv-x="1097" d="M57 0h262l68 299h322l67 -299h264l-366 1434h-250zM426 1526h199l297 327h-318zM442 539l39 174q10 43 20.5 92t18.5 96t15.5 87t11.5 69q4 -27 11 -69t16.5 -90t19.5 -98t20 -91l39 -170h-211z" />
<glyph unicode="&#xc2;" horiz-adv-x="1097" d="M57 0h262l68 299h322l67 -299h264l-366 1434h-250zM211 1516h176l158 149l157 -149h181l-224 327h-225zM442 539l39 174q10 43 20.5 92t18.5 96t15.5 87t11.5 69q4 -27 11 -69t16.5 -90t19.5 -98t20 -91l39 -170h-211z" />
<glyph unicode="&#xc3;" horiz-adv-x="1097" d="M57 0h262l68 299h322l67 -299h264l-366 1434h-250zM205 1526h157q8 49 20.5 68.5t37.5 19.5q18 0 34.5 -6t57.5 -31q51 -31 86 -44t90 -13q90 0 145.5 71.5t55.5 194.5h-158q-8 -49 -20.5 -68.5t-36.5 -19.5q-18 0 -34.5 6t-57.5 31q-27 14 -47.5 25.5t-40 18.5t-41 10 t-47.5 3q-90 0 -145.5 -71.5t-55.5 -194.5zM442 539l39 174q10 43 20.5 92t18.5 96t15.5 87t11.5 69q4 -27 11 -69t16.5 -90t19.5 -98t20 -91l39 -170h-211z" />
<glyph unicode="&#xc4;" horiz-adv-x="1097" d="M57 0h262l68 299h322l67 -299h264l-366 1434h-250zM201 1671q0 -29 12 -55.5t31.5 -47t46 -31.5t57.5 -11q59 0 102.5 43t43.5 102q0 31 -12.5 57.5t-32 46t-46 32t-55.5 12.5q-59 0 -103 -44t-44 -104zM442 539l39 174q10 43 20.5 92t18.5 96t15.5 87t11.5 69 q4 -27 11 -69t16.5 -90t19.5 -98t20 -91l39 -170h-211zM592 1671q0 -29 12 -55.5t31.5 -47t46.5 -31.5t57 -11q59 0 102.5 43t43.5 102q0 31 -12.5 57.5t-32 46t-46 32t-55.5 12.5q-59 0 -103 -44t-44 -104z" />
<glyph unicode="&#xc5;" horiz-adv-x="1097" d="M57 0h262l68 299h322l67 -299h264l-338 1321q41 33 66 82t25 108q0 51 -18.5 96.5t-51.5 78t-78 51t-96 18.5q-53 0 -97 -18.5t-77 -51t-51.5 -77.5t-18.5 -97q0 -59 24.5 -108t65.5 -82zM442 539l39 174q10 43 20.5 92t18.5 96t15.5 87t11.5 69q4 -27 11 -69t16.5 -90 t19.5 -98t20 -91l39 -170h-211zM442 1511q0 47 31 78t76 31t75.5 -31t30.5 -78t-30.5 -77.5t-75.5 -30.5t-76 30.5t-31 77.5z" />
<glyph unicode="&#xc6;" horiz-adv-x="1501" d="M35 0h258l96 289h301v-289h723v238h-479v409h303v234h-303v315h461v238h-850zM467 522l141 424q20 59 44 131t40 129q-2 -53 -2 -125v-116v-443h-223z" />
<glyph unicode="&#xc7;" horiz-adv-x="1024" d="M82 715q0 -139 22.5 -262t68.5 -219.5t116.5 -161t167.5 -84.5l-35 -144l74 -28q27 18 61 18q53 0 53 -57q0 -35 -23.5 -54.5t-76.5 -19.5q-41 0 -72.5 14.5t-79.5 38.5l-43 -78q51 -35 104.5 -54t133.5 -19q92 0 152.5 43t60.5 135q0 72 -38 107.5t-97 35.5 q-47 0 -74 -12l14 63q154 8 246 101.5t141 265.5l-221 94q-20 -59 -39.5 -98t-41 -62.5t-47 -34t-58.5 -10.5q-104 0 -155.5 128t-51.5 358q0 229 49 355t154 126q72 0 106.5 -43t63.5 -141l239 78q-20 78 -52 144.5t-80 114.5t-114.5 75.5t-158.5 27.5q-119 0 -207 -57.5 t-146.5 -157.5t-87 -235.5t-28.5 -290.5z" />
<glyph unicode="&#xc8;" horiz-adv-x="974" d="M111 1853l297 -327h198l-178 327h-317zM133 0h754v246h-498v397h322v242h-322v303h479v246h-735v-1434z" />
<glyph unicode="&#xc9;" horiz-adv-x="974" d="M133 0h754v246h-498v397h322v242h-322v303h479v246h-735v-1434zM360 1526h199l297 327h-317z" />
<glyph unicode="&#xca;" horiz-adv-x="974" d="M133 0h754v246h-498v397h322v242h-322v303h479v246h-735v-1434zM158 1526h176l158 149l157 -149h180l-223 327h-225z" />
<glyph unicode="&#xcb;" horiz-adv-x="974" d="M133 0h754v246h-498v397h322v242h-322v303h479v246h-735v-1434zM145 1671q0 -29 12.5 -55.5t32 -47t46 -31.5t57.5 -11q59 0 102 43t43 102q0 31 -12 57.5t-31.5 46t-46 32t-55.5 12.5q-59 0 -103.5 -44t-44.5 -104zM537 1671q0 -29 12 -55.5t31.5 -47t46 -31.5t57.5 -11 q59 0 102 43t43 102q0 31 -12 57.5t-31.5 46t-46 32t-55.5 12.5q-59 0 -103 -44t-44 -104z" />
<glyph unicode="&#xcc;" horiz-adv-x="542" d="M-111 1853l297 -327h199l-178 327h-318zM143 0h256v1434h-256v-1434z" />
<glyph unicode="&#xcd;" horiz-adv-x="542" d="M143 0h256v1434h-256v-1434zM156 1526h198l297 327h-317z" />
<glyph unicode="&#xce;" horiz-adv-x="542" d="M-63 1511h176l157 150l158 -150h180l-223 328h-225zM143 0h256v1434h-256v-1434z" />
<glyph unicode="&#xcf;" horiz-adv-x="542" d="M-76 1671q0 -29 12.5 -55.5t32 -47t46 -31.5t57.5 -11q59 0 102 43t43 102q0 31 -12 57.5t-31.5 46t-46.5 32t-55 12.5q-59 0 -103.5 -44t-44.5 -104zM143 0h256v1434h-256v-1434zM315 1671q0 -29 12.5 -55.5t32 -47t46 -31.5t57.5 -11q59 0 102 43t43 102q0 31 -12 57.5 t-31.5 46t-46 32t-55.5 12.5q-59 0 -103.5 -44t-44.5 -104z" />
<glyph unicode="&#xd0;" horiz-adv-x="1116" d="M61 633h103v-633h317q125 0 227.5 41t175 129t111.5 224.5t39 324.5t-36.5 323.5t-107.5 222.5t-172.5 128t-230.5 41h-323v-572h-103v-229zM410 250v383h168v229h-168v322h77q86 0 141.5 -36t87.5 -99.5t44 -149.5t12 -184t-12 -183.5t-44 -147.5t-87.5 -98t-141.5 -36 h-77z" />
<glyph unicode="&#xd1;" horiz-adv-x="1114" d="M133 0h234v604v76t-1 88t-2.5 87t-1.5 75q20 -63 50 -143t59 -148l264 -639h246v1434h-233v-594q0 -35 1 -78t2 -89t3 -90t2 -77q-10 31 -24.5 68.5t-30 78.5t-31 80t-27.5 72l-252 629h-258v-1434zM221 1526h158q8 49 20.5 68.5t36.5 19.5q18 0 34.5 -6t57.5 -31 q51 -31 86 -44t91 -13q90 0 145 71.5t55 194.5h-157q-8 -49 -20.5 -68.5t-37.5 -19.5q-18 0 -34.5 6t-57.5 31q-27 14 -47.5 25.5t-39.5 18.5t-40.5 10t-48.5 3q-90 0 -145.5 -71.5t-55.5 -194.5z" />
<glyph unicode="&#xd2;" horiz-adv-x="1116" d="M82 715q0 -154 27.5 -289t85 -234.5t147.5 -157t215 -57.5t215 57.5t148.5 158t86 235.5t27.5 291q0 154 -27.5 289t-85 234t-146.5 156.5t-214 57.5t-216 -57.5t-149.5 -157.5t-86 -235.5t-27.5 -290.5zM168 1853l297 -327h199l-179 327h-317zM344 719q0 229 48 355 t165 126q115 0 165 -128t50 -357t-48 -355.5t-163 -126.5q-117 0 -167 128t-50 358z" />
<glyph unicode="&#xd3;" horiz-adv-x="1116" d="M82 715q0 -154 27.5 -289t85 -234.5t147.5 -157t215 -57.5t215 57.5t148.5 158t86 235.5t27.5 291q0 154 -27.5 289t-85 234t-146.5 156.5t-214 57.5t-216 -57.5t-149.5 -157.5t-86 -235.5t-27.5 -290.5zM344 719q0 229 48 355t165 126q115 0 165 -128t50 -357 t-48 -355.5t-163 -126.5q-117 0 -167 128t-50 358zM418 1526h198l297 327h-317z" />
<glyph unicode="&#xd4;" horiz-adv-x="1116" d="M82 715q0 -154 27.5 -289t85 -234.5t147.5 -157t215 -57.5t215 57.5t148.5 158t86 235.5t27.5 291q0 154 -27.5 289t-85 234t-146.5 156.5t-214 57.5t-216 -57.5t-149.5 -157.5t-86 -235.5t-27.5 -290.5zM215 1516h176l158 149l158 -149h180l-223 327h-226zM344 719 q0 229 48 355t165 126q115 0 165 -128t50 -357t-48 -355.5t-163 -126.5q-117 0 -167 128t-50 358z" />
<glyph unicode="&#xd5;" horiz-adv-x="1116" d="M82 715q0 -154 27.5 -289t85 -234.5t147.5 -157t215 -57.5t215 57.5t148.5 158t86 235.5t27.5 291q0 154 -27.5 289t-85 234t-146.5 156.5t-214 57.5t-216 -57.5t-149.5 -157.5t-86 -235.5t-27.5 -290.5zM217 1526h158q8 49 20.5 68.5t36.5 19.5q18 0 34.5 -6t57.5 -31 q51 -31 86 -44t90 -13q90 0 145.5 71.5t55.5 194.5h-158q-8 -49 -20 -68.5t-37 -19.5q-18 0 -34.5 6t-57.5 31q-27 14 -47.5 25.5t-40 18.5t-41 10t-47.5 3q-90 0 -145.5 -71.5t-55.5 -194.5zM344 719q0 229 48 355t165 126q115 0 165 -128t50 -357t-48 -355.5t-163 -126.5 q-117 0 -167 128t-50 358z" />
<glyph unicode="&#xd6;" horiz-adv-x="1116" d="M82 715q0 -154 27.5 -289t85 -234.5t147.5 -157t215 -57.5t215 57.5t148.5 158t86 235.5t27.5 291q0 154 -27.5 289t-85 234t-146.5 156.5t-214 57.5t-216 -57.5t-149.5 -157.5t-86 -235.5t-27.5 -290.5zM219 1671q0 -29 12.5 -55.5t32 -47t46 -31.5t57.5 -11 q59 0 102 43t43 102q0 31 -12.5 57.5t-31.5 46t-46 32t-55 12.5q-59 0 -103.5 -44t-44.5 -104zM344 719q0 229 48 355t165 126q115 0 165 -128t50 -357t-48 -355.5t-163 -126.5q-117 0 -167 128t-50 358zM610 1671q0 -29 12.5 -55.5t32 -47t46 -31.5t57.5 -11q59 0 102 43 t43 102q0 31 -12 57.5t-31.5 46t-46.5 32t-55 12.5q-59 0 -103.5 -44t-44.5 -104z" />
<glyph unicode="&#xd7;" d="M41 717l360 -273q16 -10 31 -10q14 0 23 6q33 23 18 64l-29 102h234v-233l-103 28q-41 14 -63 -18q-6 -8 -6 -23q0 -14 10 -30l272 -361l267 361q12 16 12 30t-6 23q-20 33 -62 18l-104 -28v233h238l-29 -102q-14 -41 18 -64q8 -6 23 -6q14 0 31 10l360 273l-360 266 q-16 12 -31 12q-14 0 -23 -6q-33 -20 -18 -61l29 -105h-238v238l104 -29q41 -14 62 19q6 8 6 22t-12 31l-267 360l-272 -360q-10 -16 -10 -31q0 -14 6 -22q23 -33 63 -19l103 29v-238h-234l29 105q14 41 -18 61q-8 6 -23 6q-14 0 -31 -12z" />
<glyph unicode="&#xd8;" horiz-adv-x="1116" d="M82 715q0 -174 34 -320.5t107 -247.5l-94 -249h223l43 110q74 -31 162 -31q125 0 215 57.5t148.5 158t86 235.5t27.5 291q0 174 -33.5 319.5t-105.5 245.5l96 252h-223l-45 -111q-74 31 -162 31q-125 0 -216 -57.5t-149.5 -157.5t-86 -235.5t-27.5 -290.5zM334 719 q0 236 52 365.5t171 129.5q41 0 76 -18l-277 -737q-12 53 -17 118.5t-5 141.5zM485 236l277 735q10 -53 15 -117.5t5 -138.5q0 -236 -52 -366t-169 -130q-39 0 -76 17z" />
<glyph unicode="&#xd9;" horiz-adv-x="1105" d="M127 569q0 -133 23.5 -242.5t74.5 -187.5t132 -120t196 -42q119 0 200 41t131 118t72.5 187.5t22.5 249.5v861h-256v-865q0 -186 -39 -262t-129 -76q-88 0 -130 76t-42 262v865h-256v-865zM170 1833l297 -328h199l-179 328h-317z" />
<glyph unicode="&#xda;" horiz-adv-x="1105" d="M127 569q0 -133 23.5 -242.5t74.5 -187.5t132 -120t196 -42q119 0 200 41t131 118t72.5 187.5t22.5 249.5v861h-256v-865q0 -186 -39 -262t-129 -76q-88 0 -130 76t-42 262v865h-256v-865zM420 1505h198l297 328h-317z" />
<glyph unicode="&#xdb;" horiz-adv-x="1105" d="M127 569q0 -133 23.5 -242.5t74.5 -187.5t132 -120t196 -42q119 0 200 41t131 118t72.5 187.5t22.5 249.5v861h-256v-865q0 -186 -39 -262t-129 -76q-88 0 -130 76t-42 262v865h-256v-865zM217 1526h176l158 149l158 -149h180l-223 327h-226z" />
<glyph unicode="&#xdc;" horiz-adv-x="1105" d="M127 569q0 -133 23.5 -242.5t74.5 -187.5t132 -120t196 -42q119 0 200 41t131 118t72.5 187.5t22.5 249.5v861h-256v-865q0 -186 -39 -262t-129 -76q-88 0 -130 76t-42 262v865h-256v-865zM209 1671q0 -29 12 -55.5t31.5 -47t46.5 -31.5t57 -11q59 0 102.5 43t43.5 102 q0 31 -12.5 57.5t-32 46t-46 32t-55.5 12.5q-59 0 -103 -44t-44 -104zM600 1671q0 -29 12.5 -55.5t32 -47t46 -31.5t57.5 -11q59 0 102 43t43 102q0 31 -12.5 57.5t-32 46t-46 32t-54.5 12.5q-59 0 -103.5 -44t-44.5 -104z" />
<glyph unicode="&#xdd;" horiz-adv-x="1064" d="M35 1434l368 -897v-537h256v541l371 893h-278l-111 -291q-16 -45 -33.5 -93.5t-32 -93.5t-24.5 -83.5t-16 -63.5q-4 25 -15.5 62.5t-26 82.5t-31 93.5t-34.5 95.5l-111 291h-282zM406 1516h198l297 327h-317z" />
<glyph unicode="&#xde;" horiz-adv-x="1019" d="M133 0h256v289h115q92 0 176 28.5t148.5 87t103.5 144.5t39 203q0 113 -33 198.5t-93.5 143t-144.5 86t-186 28.5h-125v226h-256v-1434zM389 539v419h123q113 0 158 -60t45 -150q0 -98 -50.5 -153.5t-148.5 -55.5h-127z" />
<glyph unicode="&#xdf;" horiz-adv-x="1026" d="M113 -395l241 121v1372q0 164 148 164q68 0 107.5 -39t39.5 -121q0 -182 -157 -182h-19v-220h16q92 0 154 -56t62 -187q0 -129 -54.5 -182.5t-152.5 -53.5h-25v-221h31q231 0 338.5 117t107.5 340q0 82 -19.5 142t-53 104.5t-76.5 73t-92 46.5q90 35 138 106.5t48 188.5 q0 180 -106.5 274.5t-282.5 94.5q-182 0 -287.5 -95.5t-105.5 -304.5v-1482z" />
<glyph unicode="&#xe0;" horiz-adv-x="909" d="M55 352q0 -174 88 -274.5t230 -100.5q53 0 104 25t88 72v-74h242v739q0 178 -83 268.5t-271 90.5q-98 0 -178 -27t-154 -78l98 -176q51 35 100.5 50.5t116.5 15.5q72 0 100.5 -38t28.5 -95v-82q-35 23 -71.5 33t-108.5 10t-132 -26t-104.5 -72t-69 -112.5t-24.5 -148.5z M74 1546l297 -327h198l-178 327h-317zM301 356q0 68 33 109t84 41q55 0 87 -13.5t60 -37.5v-172q-23 -39 -60.5 -64.5t-80.5 -25.5q-59 0 -91 43t-32 120z" />
<glyph unicode="&#xe1;" horiz-adv-x="909" d="M55 352q0 -174 88 -274.5t230 -100.5q53 0 104 25t88 72v-74h242v739q0 178 -83 268.5t-271 90.5q-98 0 -178 -27t-154 -78l98 -176q51 35 100.5 50.5t116.5 15.5q72 0 100.5 -38t28.5 -95v-82q-35 23 -71.5 33t-108.5 10t-132 -26t-104.5 -72t-69 -112.5t-24.5 -148.5z M301 356q0 68 33 109t84 41q55 0 87 -13.5t60 -37.5v-172q-23 -39 -60.5 -64.5t-80.5 -25.5q-59 0 -91 43t-32 120zM324 1219h198l297 327h-317z" />
<glyph unicode="&#xe2;" horiz-adv-x="909" d="M55 352q0 -174 88 -274.5t230 -100.5q53 0 104 25t88 72v-74h242v739q0 178 -83 268.5t-271 90.5q-98 0 -178 -27t-154 -78l98 -176q51 35 100.5 50.5t116.5 15.5q72 0 100.5 -38t28.5 -95v-82q-35 23 -71.5 33t-108.5 10t-132 -26t-104.5 -72t-69 -112.5t-24.5 -148.5z M111 1208h176l157 150l158 -150h180l-223 328h-225zM301 356q0 68 33 109t84 41q55 0 87 -13.5t60 -37.5v-172q-23 -39 -60.5 -64.5t-80.5 -25.5q-59 0 -91 43t-32 120z" />
<glyph unicode="&#xe3;" horiz-adv-x="909" d="M55 352q0 -174 88 -274.5t230 -100.5q53 0 104 25t88 72v-74h242v739q0 178 -83 268.5t-271 90.5q-98 0 -178 -27t-154 -78l98 -176q51 35 100.5 50.5t116.5 15.5q72 0 100.5 -38t28.5 -95v-82q-35 23 -71.5 33t-108.5 10t-132 -26t-104.5 -72t-69 -112.5t-24.5 -148.5z M104 1219h158q8 49 20.5 68.5t36.5 19.5q18 0 35 -6.5t58 -30.5q51 -31 85.5 -44.5t90.5 -13.5q90 0 145 72t55 195h-157q-8 -49 -20.5 -68.5t-37.5 -19.5q-18 0 -34.5 6t-57.5 30q-27 14 -47 25.5t-39.5 19t-41 10.5t-48.5 3q-90 0 -145.5 -72t-55.5 -194zM301 356 q0 68 33 109t84 41q55 0 87 -13.5t60 -37.5v-172q-23 -39 -60.5 -64.5t-80.5 -25.5q-59 0 -91 43t-32 120z" />
<glyph unicode="&#xe4;" horiz-adv-x="909" d="M55 352q0 -174 88 -274.5t230 -100.5q53 0 104 25t88 72v-74h242v739q0 178 -83 268.5t-271 90.5q-98 0 -178 -27t-154 -78l98 -176q51 35 100.5 50.5t116.5 15.5q72 0 100.5 -38t28.5 -95v-82q-35 23 -71.5 33t-108.5 10t-132 -26t-104.5 -72t-69 -112.5t-24.5 -148.5z M104 1354q0 -29 12.5 -55.5t32 -47t46 -32t57.5 -11.5q59 0 102 43.5t43 102.5q0 31 -12 57.5t-31.5 46t-46 31.5t-55.5 12q-59 0 -103.5 -44t-44.5 -103zM301 356q0 68 33 109t84 41q55 0 87 -13.5t60 -37.5v-172q-23 -39 -60.5 -64.5t-80.5 -25.5q-59 0 -91 43t-32 120z M496 1354q0 -29 12 -55.5t31.5 -47t46 -32t57.5 -11.5q59 0 102 43.5t43 102.5q0 31 -12 57.5t-31.5 46t-46 31.5t-55.5 12q-59 0 -103 -44t-44 -103z" />
<glyph unicode="&#xe5;" horiz-adv-x="909" d="M55 352q0 -174 88 -274.5t230 -100.5q53 0 104 25t88 72v-74h242v739q0 178 -83 268.5t-271 90.5q-98 0 -178 -27t-154 -78l98 -176q51 35 100.5 50.5t116.5 15.5q72 0 100.5 -38t28.5 -95v-82q-35 23 -71.5 33t-108.5 10t-132 -26t-104.5 -72t-69 -112.5t-24.5 -148.5z M203 1460q0 -53 18.5 -97t51 -76t76.5 -50t97 -18q51 0 96.5 18t78 50t51 76t18.5 97q0 51 -18.5 96.5t-51 78t-77.5 51t-97 18.5q-53 0 -97 -18.5t-76.5 -51t-51 -78t-18.5 -96.5zM301 356q0 68 33 109t84 41q55 0 87 -13.5t60 -37.5v-172q-23 -39 -60.5 -64.5t-80.5 -25.5 q-59 0 -91 43t-32 120zM340 1460q0 47 30.5 78t75.5 31t76 -31t31 -78t-30.5 -77.5t-76.5 -30.5q-45 0 -75.5 30.5t-30.5 77.5z" />
<glyph unicode="&#xe6;" horiz-adv-x="1415" d="M55 352q0 -174 88 -274.5t230 -100.5q92 0 165.5 37t145.5 119q47 -74 114.5 -115t166.5 -41q106 0 195 48.5t149 146.5l-172 129q-35 -47 -69 -70.5t-99 -23.5q-72 0 -118 57.5t-54 181.5h542q2 23 3 45.5t1 45.5q0 111 -23.5 212t-71.5 179t-122.5 124t-175.5 46 q-88 0 -146.5 -37t-98.5 -90q-16 27 -37 50t-49.5 39.5t-69.5 27t-96 10.5q-98 0 -178 -27t-154 -78l98 -176q51 35 100.5 50.5t116.5 15.5q72 0 100.5 -38t28.5 -95v-82q-35 23 -71.5 33t-108.5 10t-132 -26t-104.5 -72t-69 -112.5t-24.5 -148.5zM301 356q0 68 33 109 t84 41q55 0 87 -13.5t60 -37.5v-172q-23 -39 -60.5 -64.5t-80.5 -25.5q-59 0 -91 43t-32 120zM797 645q18 236 151 236q39 0 66.5 -18.5t45 -50.5t28 -75t14.5 -92h-305z" />
<glyph unicode="&#xe7;" horiz-adv-x="880" d="M72 535q0 -240 88 -378.5t231 -168.5l-35 -144l74 -28q27 18 62 18q53 0 53 -57q0 -35 -23.5 -54.5t-77.5 -19.5q-41 0 -72.5 14.5t-78.5 38.5l-43 -78q51 -35 104.5 -54t132.5 -19q92 0 152.5 43t60.5 135q0 72 -37.5 107.5t-97.5 35.5q-47 0 -73 -12l14 66 q113 8 187.5 78.5t119.5 177.5l-178 129q-27 -68 -65 -113t-91 -45q-86 0 -124 90t-38 242t36 240.5t118 88.5q53 0 88 -40t64 -105l194 131q-49 121 -133 182.5t-209 61.5q-88 0 -161.5 -37t-128 -108.5t-84 -177t-29.5 -240.5z" />
<glyph unicode="&#xe8;" horiz-adv-x="933" d="M72 537q0 -125 26.5 -227.5t78.5 -176.5t129 -115t177 -41q106 0 195.5 48.5t148.5 146.5l-172 129q-35 -47 -68.5 -70.5t-99.5 -23.5q-72 0 -117.5 57.5t-54.5 181.5h543q2 23 3 45.5t1 45.5q0 111 -23.5 212t-71.5 179t-123 124t-175 46q-88 0 -160.5 -37t-125 -108.5 t-82 -176t-29.5 -239.5zM88 1546l297 -327h199l-178 327h-318zM315 645q18 236 152 236q39 0 66.5 -18.5t45 -50.5t28 -75t14.5 -92h-306z" />
<glyph unicode="&#xe9;" horiz-adv-x="933" d="M72 537q0 -125 26.5 -227.5t78.5 -176.5t129 -115t177 -41q106 0 195.5 48.5t148.5 146.5l-172 129q-35 -47 -68.5 -70.5t-99.5 -23.5q-72 0 -117.5 57.5t-54.5 181.5h543q2 23 3 45.5t1 45.5q0 111 -23.5 212t-71.5 179t-123 124t-175 46q-88 0 -160.5 -37t-125 -108.5 t-82 -176t-29.5 -239.5zM315 645q18 236 152 236q39 0 66.5 -18.5t45 -50.5t28 -75t14.5 -92h-306zM338 1219h199l297 327h-318z" />
<glyph unicode="&#xea;" horiz-adv-x="933" d="M72 537q0 -125 26.5 -227.5t78.5 -176.5t129 -115t177 -41q106 0 195.5 48.5t148.5 146.5l-172 129q-35 -47 -68.5 -70.5t-99.5 -23.5q-72 0 -117.5 57.5t-54.5 181.5h543q2 23 3 45.5t1 45.5q0 111 -23.5 212t-71.5 179t-123 124t-175 46q-88 0 -160.5 -37t-125 -108.5 t-82 -176t-29.5 -239.5zM125 1198h176l158 150l157 -150h181l-224 328h-225zM315 645q18 236 152 236q39 0 66.5 -18.5t45 -50.5t28 -75t14.5 -92h-306z" />
<glyph unicode="&#xeb;" horiz-adv-x="933" d="M72 537q0 -125 26.5 -227.5t78.5 -176.5t129 -115t177 -41q106 0 195.5 48.5t148.5 146.5l-172 129q-35 -47 -68.5 -70.5t-99.5 -23.5q-72 0 -117.5 57.5t-54.5 181.5h543q2 23 3 45.5t1 45.5q0 111 -23.5 212t-71.5 179t-123 124t-175 46q-88 0 -160.5 -37t-125 -108.5 t-82 -176t-29.5 -239.5zM119 1354q0 -29 12 -55.5t31.5 -47t46.5 -32t57 -11.5q59 0 102.5 43.5t43.5 102.5q0 31 -12.5 57.5t-32 46t-46 31.5t-55.5 12q-59 0 -103 -44t-44 -103zM315 645q18 236 152 236q39 0 66.5 -18.5t45 -50.5t28 -75t14.5 -92h-306zM510 1354 q0 -29 12.5 -55.5t31.5 -47t46 -32t57 -11.5q59 0 102.5 43.5t43.5 102.5q0 31 -12.5 57.5t-32 46t-46 31.5t-55.5 12q-59 0 -103 -44t-44 -103z" />
<glyph unicode="&#xec;" horiz-adv-x="487" d="M-139 1546l297 -327h198l-178 327h-317zM123 0h242v1075h-242v-1075z" />
<glyph unicode="&#xed;" horiz-adv-x="487" d="M123 0h242v1075h-242v-1075zM131 1219h199l297 327h-318z" />
<glyph unicode="&#xee;" horiz-adv-x="487" d="M-92 1188h176l158 149l157 -149h181l-224 328h-225zM123 0h242v1075h-242v-1075z" />
<glyph unicode="&#xef;" horiz-adv-x="487" d="M-102 1364q0 -29 12 -55.5t31.5 -47t46 -31.5t57.5 -11q59 0 102 43t43 102q0 31 -12 57.5t-31.5 46t-46 31.5t-55.5 12q-59 0 -103 -44t-44 -103zM123 0h242v1075h-242v-1075zM289 1364q0 -29 12 -55.5t31.5 -47t46.5 -31.5t57 -11q59 0 102.5 43t43.5 102 q0 31 -12.5 57.5t-32 46t-46 31.5t-55.5 12q-59 0 -103 -44t-44 -103z" />
<glyph unicode="&#xf0;" horiz-adv-x="958" d="M72 477q0 -123 29.5 -216t83 -155.5t129 -95.5t165.5 -33q207 0 307.5 143.5t100.5 475.5q0 446 -189 666l80 75l-116 119l-91 -86q-119 70 -280 86v-188q76 -10 133 -37l-86 -84l119 -117l100 96q80 -96 105 -237q-47 51 -97.5 72.5t-115.5 21.5q-72 0 -140.5 -30.5 t-121 -93t-84 -158t-31.5 -224.5zM317 481q0 135 38 204t122 69q82 0 123 -71t41 -206q0 -123 -39 -196.5t-121 -73.5q-164 0 -164 274z" />
<glyph unicode="&#xf1;" horiz-adv-x="944" d="M113 0h241v782q23 33 63 61.5t81 28.5q66 0 84 -37.5t18 -138.5v-696h242v705q0 94 -12.5 167.5t-45 124t-88 76t-141.5 25.5q-59 0 -109.5 -27t-91.5 -70v74h-241v-1075zM133 1219h158q8 49 20.5 68.5t36.5 19.5q18 0 34.5 -6.5t57.5 -30.5q51 -31 86 -44.5t90 -13.5 q90 0 145.5 72t55.5 195h-158q-8 -49 -20 -68.5t-37 -19.5q-18 0 -34.5 6t-57.5 30q-27 14 -47.5 25.5t-40 19t-41 10.5t-47.5 3q-90 0 -145.5 -72t-55.5 -194z" />
<glyph unicode="&#xf2;" horiz-adv-x="958" d="M72 535q0 -135 29.5 -240t83 -175.5t129 -106.5t165.5 -36t165 37t129 108t84 176.5t30 240.5t-30 239.5t-83 175t-128 107.5t-165 37t-165.5 -37t-130 -108.5t-84 -177t-29.5 -240.5zM90 1546l297 -327h199l-178 327h-318zM317 539q0 152 36 240.5t124 88.5 q86 0 125 -91.5t39 -241.5q0 -68 -9 -127.5t-27.5 -104.5t-49.5 -70.5t-74 -25.5q-88 0 -126 90t-38 242z" />
<glyph unicode="&#xf3;" horiz-adv-x="958" d="M72 535q0 -135 29.5 -240t83 -175.5t129 -106.5t165.5 -36t165 37t129 108t84 176.5t30 240.5t-30 239.5t-83 175t-128 107.5t-165 37t-165.5 -37t-130 -108.5t-84 -177t-29.5 -240.5zM317 539q0 152 36 240.5t124 88.5q86 0 125 -91.5t39 -241.5q0 -68 -9 -127.5 t-27.5 -104.5t-49.5 -70.5t-74 -25.5q-88 0 -126 90t-38 242zM340 1219h199l297 327h-318z" />
<glyph unicode="&#xf4;" horiz-adv-x="958" d="M72 535q0 -135 29.5 -240t83 -175.5t129 -106.5t165.5 -36t165 37t129 108t84 176.5t30 240.5t-30 239.5t-83 175t-128 107.5t-165 37t-165.5 -37t-130 -108.5t-84 -177t-29.5 -240.5zM137 1198h176l158 150l158 -150h180l-223 328h-226zM317 539q0 152 36 240.5 t124 88.5q86 0 125 -91.5t39 -241.5q0 -68 -9 -127.5t-27.5 -104.5t-49.5 -70.5t-74 -25.5q-88 0 -126 90t-38 242z" />
<glyph unicode="&#xf5;" horiz-adv-x="958" d="M72 535q0 -135 29.5 -240t83 -175.5t129 -106.5t165.5 -36t165 37t129 108t84 176.5t30 240.5t-30 239.5t-83 175t-128 107.5t-165 37t-165.5 -37t-130 -108.5t-84 -177t-29.5 -240.5zM127 1219h158q8 49 20 68.5t37 19.5q18 0 34.5 -6.5t57.5 -30.5q51 -31 86 -44.5 t90 -13.5q90 0 145.5 72t55.5 195h-158q-8 -49 -20 -68.5t-37 -19.5q-18 0 -34.5 6t-57.5 30q-27 14 -47.5 25.5t-40 19t-41 10.5t-47.5 3q-90 0 -145.5 -72t-55.5 -194zM317 539q0 152 36 240.5t124 88.5q86 0 125 -91.5t39 -241.5q0 -68 -9 -127.5t-27.5 -104.5 t-49.5 -70.5t-74 -25.5q-88 0 -126 90t-38 242z" />
<glyph unicode="&#xf6;" horiz-adv-x="958" d="M72 535q0 -135 29.5 -240t83 -175.5t129 -106.5t165.5 -36t165 37t129 108t84 176.5t30 240.5t-30 239.5t-83 175t-128 107.5t-165 37t-165.5 -37t-130 -108.5t-84 -177t-29.5 -240.5zM131 1343q0 -29 12.5 -55t32 -46.5t46 -32t57.5 -11.5q59 0 102 43t43 102 q0 31 -12.5 57.5t-32 46t-46 32t-54.5 12.5q-59 0 -103.5 -44t-44.5 -104zM317 539q0 152 36 240.5t124 88.5q86 0 125 -91.5t39 -241.5q0 -68 -9 -127.5t-27.5 -104.5t-49.5 -70.5t-74 -25.5q-88 0 -126 90t-38 242zM522 1343q0 -29 12.5 -55t32 -46.5t46 -32t57.5 -11.5 q59 0 102 43t43 102q0 31 -12 57.5t-31.5 46t-46.5 32t-55 12.5q-59 0 -103.5 -44t-44.5 -104z" />
<glyph unicode="&#xf7;" d="M41 717l360 -273q16 -10 31 -10q14 0 23 6q33 23 18 64l-29 102h234v-233l-103 28q-41 14 -63 -18q-6 -8 -6 -23q0 -14 10 -30l272 -361l267 361q12 16 12 30t-6 23q-20 33 -62 18l-104 -28v233h238l-29 -102q-14 -41 18 -64q8 -6 23 -6q14 0 31 10l360 273l-360 266 q-16 12 -31 12q-14 0 -23 -6q-33 -20 -18 -61l29 -105h-238v238l104 -29q41 -14 62 19q6 8 6 22t-12 31l-267 360l-272 -360q-10 -16 -10 -31q0 -14 6 -22q23 -33 63 -19l103 29v-238h-234l29 105q14 41 -18 61q-8 6 -23 6q-14 0 -31 -12z" />
<glyph unicode="&#xf8;" horiz-adv-x="958" d="M72 535q0 -154 36.5 -264.5t102.5 -180.5l-72 -192h189l37 96q55 -16 114 -17q90 0 165 37t129 108t84 176.5t30 240.5q0 156 -38 268.5t-108 183.5l76 187h-188l-35 -97q-55 16 -113 17q-90 0 -165.5 -37t-130 -108.5t-84 -177t-29.5 -240.5zM309 539q0 160 38 253 t130 93q23 0 41 -6l-192 -517q-10 37 -13.5 81t-3.5 96zM440 197l193 518q16 -82 16 -180q0 -72 -9 -134.5t-29.5 -108.5t-52.5 -74t-77 -28q-23 0 -41 7z" />
<glyph unicode="&#xf9;" horiz-adv-x="944" d="M80 1546l297 -327h198l-178 327h-317zM102 371q0 -94 12.5 -168t45.5 -124t88 -76t141 -26q59 0 109.5 27t91.5 70v-74h241v1075h-241v-782q-23 -33 -63 -61.5t-81 -28.5q-66 0 -84 38t-18 138v696h-242v-704z" />
<glyph unicode="&#xfa;" horiz-adv-x="944" d="M102 371q0 -94 12.5 -168t45.5 -124t88 -76t141 -26q59 0 109.5 27t91.5 70v-74h241v1075h-241v-782q-23 -33 -63 -61.5t-81 -28.5q-66 0 -84 38t-18 138v696h-242v-704zM330 1219h198l297 327h-317z" />
<glyph unicode="&#xfb;" horiz-adv-x="944" d="M102 371q0 -94 12.5 -168t45.5 -124t88 -76t141 -26q59 0 109.5 27t91.5 70v-74h241v1075h-241v-782q-23 -33 -63 -61.5t-81 -28.5q-66 0 -84 38t-18 138v696h-242v-704zM127 1219h176l158 149l157 -149h181l-224 327h-225z" />
<glyph unicode="&#xfc;" horiz-adv-x="944" d="M102 371q0 -94 12.5 -168t45.5 -124t88 -76t141 -26q59 0 109.5 27t91.5 70v-74h241v1075h-241v-782q-23 -33 -63 -61.5t-81 -28.5q-66 0 -84 38t-18 138v696h-242v-704zM119 1364q0 -29 12 -55.5t31.5 -47t46.5 -31.5t57 -11q59 0 102.5 43t43.5 102q0 31 -12.5 57.5 t-32 46t-46 31.5t-55.5 12q-59 0 -103 -44t-44 -103zM510 1364q0 -29 12.5 -55.5t31.5 -47t46 -31.5t57 -11q59 0 102.5 43t43.5 102q0 31 -12.5 57.5t-32 46t-46 31.5t-55.5 12q-59 0 -103 -44t-44 -103z" />
<glyph unicode="&#xfd;" horiz-adv-x="925" d="M41 1075l319 -1057l-108 -397h223l410 1454h-252l-90 -403q-8 -37 -18.5 -87t-20.5 -99.5t-18.5 -92.5t-12.5 -65q-4 23 -13 64.5t-19.5 90.5t-22.5 99.5t-23 91.5l-100 401h-254zM330 1208h198l297 328h-317z" />
<glyph unicode="&#xfe;" horiz-adv-x="950" d="M113 -395l241 121v333q35 -37 84 -59.5t103 -22.5q88 0 151.5 42t103.5 116t59 177.5t19 226.5q0 287 -80.5 423t-232.5 136q-59 0 -112.5 -27t-94.5 -70v492l-241 -121v-1767zM354 295v487q23 33 64 61.5t86 28.5q76 0 100.5 -82t24.5 -260q0 -94 -7.5 -156.5 t-21.5 -100t-36.5 -54t-55.5 -16.5q-51 0 -90 28.5t-64 63.5z" />
<glyph unicode="&#xff;" horiz-adv-x="925" d="M41 1075l319 -1057l-108 -397h223l410 1454h-252l-90 -403q-8 -37 -18.5 -87t-20.5 -99.5t-18.5 -92.5t-12.5 -65q-4 23 -13 64.5t-19.5 90.5t-22.5 99.5t-23 91.5l-100 401h-254zM115 1354q0 -29 12 -55.5t31.5 -47t46 -32t57.5 -11.5q59 0 102.5 43.5t43.5 102.5 q0 31 -12.5 57.5t-32 46t-46 31.5t-55.5 12q-59 0 -103 -44t-44 -103zM506 1354q0 -29 12 -55.5t31.5 -47t46.5 -32t57 -11.5q59 0 102.5 43.5t43.5 102.5q0 31 -12.5 57.5t-32 46t-46 31.5t-55.5 12q-59 0 -103 -44t-44 -103z" />
<glyph unicode="&#x152;" horiz-adv-x="1599" d="M82 715q0 -154 27.5 -289t85 -234.5t144.5 -157t208 -57.5q100 0 165.5 40t112.5 116v-133h686v246h-497v397h321v242h-321v303h479v246h-668v-134q-45 72 -107.5 114t-166.5 42q-121 0 -209 -57.5t-146.5 -157.5t-86 -235.5t-27.5 -290.5zM344 719q0 229 48 355t165 126 q115 0 165 -128t50 -357t-48 -355.5t-163 -126.5q-117 0 -167 128t-50 358z" />
<glyph unicode="&#x153;" horiz-adv-x="1490" d="M72 535q0 -135 29.5 -240t83 -175.5t129 -106.5t165.5 -36q102 0 170 48.5t109 119.5q41 -72 108.5 -120t173.5 -48t195.5 48.5t148.5 146.5l-172 129q-35 -47 -68.5 -70.5t-99.5 -23.5q-72 0 -117.5 57.5t-54.5 181.5h543q2 23 3 45.5t1 45.5q0 111 -23.5 212t-71.5 179 t-123 124t-175 46q-92 0 -158.5 -44t-109.5 -120q-37 78 -110 121t-167 43q-90 0 -165.5 -37t-130 -108.5t-84 -177t-29.5 -240.5zM317 539q0 152 36 240.5t124 88.5q86 0 125 -91.5t39 -241.5q0 -68 -9 -127.5t-27.5 -104.5t-49.5 -70.5t-74 -25.5q-88 0 -126 90t-38 242z M872 645q18 236 152 236q39 0 66.5 -18.5t45 -50.5t28 -75t14.5 -92h-306z" />
<glyph unicode="&#x178;" horiz-adv-x="1064" d="M35 1434l368 -897v-537h256v541l371 893h-278l-111 -291q-16 -45 -33.5 -93.5t-32 -93.5t-24.5 -83.5t-16 -63.5q-4 25 -15.5 62.5t-26 82.5t-31 93.5t-34.5 95.5l-111 291h-282zM190 1661q0 -29 12.5 -55.5t32 -47t46 -31.5t57.5 -11q59 0 102 43t43 102q0 31 -12 57.5 t-31.5 46t-46 31.5t-55.5 12q-59 0 -103.5 -44t-44.5 -103zM582 1661q0 -29 12 -55.5t31.5 -47t46 -31.5t57.5 -11q59 0 102 43t43 102q0 31 -12 57.5t-31.5 46t-46 31.5t-55.5 12q-59 0 -103 -44t-44 -103z" />
<glyph unicode="&#x2c6;" horiz-adv-x="819" d="M74 1219h176l158 149l157 -149h180l-223 327h-225z" />
<glyph unicode="&#x2dc;" horiz-adv-x="819" d="M68 1219h157q8 49 20.5 68.5t37.5 19.5q18 0 34.5 -6.5t57.5 -30.5q51 -31 86 -44.5t90 -13.5q90 0 145.5 72t55.5 195h-158q-8 -49 -20.5 -68.5t-36.5 -19.5q-18 0 -35 6t-58 30q-27 14 -47 25.5t-39.5 19t-41 10.5t-48.5 3q-90 0 -145 -72t-55 -194z" />
<glyph unicode="&#x2000;" horiz-adv-x="926" />
<glyph unicode="&#x2001;" horiz-adv-x="1853" />
<glyph unicode="&#x2002;" horiz-adv-x="926" />
<glyph unicode="&#x2003;" horiz-adv-x="1853" />
<glyph unicode="&#x2004;" horiz-adv-x="617" />
<glyph unicode="&#x2005;" horiz-adv-x="463" />
<glyph unicode="&#x2006;" horiz-adv-x="308" />
<glyph unicode="&#x2007;" horiz-adv-x="308" />
<glyph unicode="&#x2008;" horiz-adv-x="231" />
<glyph unicode="&#x2009;" horiz-adv-x="370" />
<glyph unicode="&#x200a;" horiz-adv-x="102" />
<glyph unicode="&#x2010;" horiz-adv-x="706" d="M92 618h522v250h-522v-250z" />
<glyph unicode="&#x2011;" horiz-adv-x="706" d="M92 618h522v250h-522v-250z" />
<glyph unicode="&#x2012;" horiz-adv-x="706" d="M92 618h522v250h-522v-250z" />
<glyph unicode="&#x2013;" horiz-adv-x="860" d="M92 612h676v262h-676v-262z" />
<glyph unicode="&#x2014;" horiz-adv-x="1126" d="M92 612h942v262h-942v-262z" />
<glyph unicode="&#x2018;" horiz-adv-x="532" d="M92 915h287l27 519h-166z" />
<glyph unicode="&#x2019;" horiz-adv-x="532" d="M127 915h166l147 519h-286z" />
<glyph unicode="&#x201a;" horiz-adv-x="532" d="M127 -217h166l147 518h-286z" />
<glyph unicode="&#x201c;" horiz-adv-x="993" d="M92 915h287l27 519h-166zM553 915h287l26 519h-166z" />
<glyph unicode="&#x201d;" horiz-adv-x="993" d="M127 915h166l147 519h-286zM588 915h166l147 519h-287z" />
<glyph unicode="&#x201e;" horiz-adv-x="993" d="M127 -217h166l147 518h-286zM588 -217h166l147 518h-287z" />
<glyph unicode="&#x2022;" horiz-adv-x="827" d="M82 750q0 -70 25.5 -130.5t70.5 -105.5t105.5 -70.5t130.5 -25.5t130 25.5t105 70.5t70.5 105.5t25.5 130.5t-25.5 131t-70.5 106t-105.5 71.5t-129.5 26.5q-70 0 -130.5 -26.5t-105.5 -71.5t-70.5 -106.5t-25.5 -130.5z" />
<glyph unicode="&#x2026;" horiz-adv-x="1511" d="M82 147q0 -70 50 -120t120 -50t120 50t50 120t-50 120t-120 50t-120 -50t-50 -120zM586 147q0 -70 50 -120t120 -50t120 50t50 120t-50.5 120t-119.5 50q-70 0 -120 -50t-50 -120zM1090 147q0 -70 50 -120t120 -50t120 50t50 120t-50.5 120t-119.5 50q-70 0 -120 -50 t-50 -120z" />
<glyph unicode="&#x202f;" horiz-adv-x="370" />
<glyph unicode="&#x2039;" horiz-adv-x="630" d="M41 537l276 -537h242l-266 539l266 536h-242z" />
<glyph unicode="&#x203a;" horiz-adv-x="630" d="M72 0h241l277 539l-277 536h-241l266 -538z" />
<glyph unicode="&#x205f;" horiz-adv-x="463" />
<glyph unicode="&#x20ac;" horiz-adv-x="1024" d="M82 715q0 -154 27.5 -289t85 -234.5t142.5 -157t200 -57.5q168 0 269 89.5t152 267.5l-221 94q-20 -61 -39.5 -100t-41 -62.5t-47 -33t-58.5 -9.5q-156 0 -199 266h355v179h-371v51v45h371v178h-357q37 268 187 268q74 0 113.5 -47t66.5 -137l239 78q-23 80 -54.5 144.5 t-79.5 110.5t-113.5 71.5t-157.5 25.5q-119 0 -207 -57.5t-146.5 -157.5t-87 -235.5t-28.5 -290.5z" />
<glyph unicode="&#x2122;" horiz-adv-x="1269" d="M23 1296h165v-665h144v665h166v138h-475v-138zM588 631h131v256v114q0 55 -2 97q12 -41 29.5 -94.5t37.5 -112.5l97 -281l96 281q20 59 37.5 111.5t29.5 93.5q-2 -41 -2 -97v-112v-256h129v803h-141l-96 -301q-16 -49 -28.5 -92.5t-22.5 -79.5q-18 74 -52 172l-98 301 h-145v-803z" />
<glyph unicode="&#x25fc;" horiz-adv-x="1075" d="M0 0v1075h1075v-1075h-1075z" />
<glyph unicode="&#xfb01;" horiz-adv-x="1122" d="M61 846h109v-846h242v846h172v229h-172v88q0 59 21.5 82t72.5 23q65 -1 108 -21v209q-35 16 -76.5 23.5t-105.5 7.5q-55 0 -102 -16.5t-83 -50.5t-56.5 -88t-20.5 -128v-129h-109v-229zM725 1333q0 -63 45 -108t109 -45q63 0 108 45t45 108t-45 108.5t-108 45.5 t-108.5 -45t-45.5 -109zM758 0h241v1075h-241v-1075z" />
<glyph unicode="&#xfb02;" horiz-adv-x="1122" d="M61 846h109v-846h242v846h172v229h-172v88q0 59 21.5 82t72.5 23q65 -1 108 -21v209q-35 16 -76.5 23.5t-105.5 7.5q-55 0 -102 -16.5t-83 -50.5t-56.5 -88t-20.5 -128v-129h-109v-229zM758 0h241v1493l-241 -121v-1372z" />
</font>
</defs>
</svg>
