<?xml version="1.0" encoding="utf-8"?>
<!-- Generator: Adobe Illustrator 19.2.1, SVG Export Plug-In . SVG Version: 6.00 Build 0)  -->
<svg version="1.1" id="Layer_1" xmlns="http://www.w3.org/2000/svg" xmlns:xlink="http://www.w3.org/1999/xlink" x="0px" y="0px"
	 viewBox="0 0 435 67.5" style="enable-background:new 0 0 435 67.5;" xml:space="preserve">
<style type="text/css">
	.st0{fill:#017B14;}
	.st1{fill:none;}
	.st2{fill:#FFFFFF;}
	.st3{font-family:'Roboto-Bold';}
	.st4{font-size:29px;}
	.st5{fill:#FDC246;}
	.st6{font-family:'Roboto-Regular';}
	.st7{font-size:12px;}
	.st8{enable-background:new    ;}
	.st9{font-size:8px;}
</style>
<rect x="0.1" y="-0.4" class="st0" width="435" height="67.5"/>
<rect x="125.1" y="16.5" class="st1" width="287.1" height="47.3"/>
<text transform="matrix(1 0 0 1 85.8975 36.6148)" class="st2 st3 st4">Live Discord: Chat Now!</text>
<text transform="matrix(1 0 0 1 85.5999 55.6144)" class="st5 st6 st7">click here to talk to real miners</text>
<text transform="matrix(1 0 0 1 310.9999 51.1144)" class="st8"><tspan x="0" y="0" class="st2 st6 st9">Weekly Clubhouse Calls @</tspan><tspan x="0" y="9.6" class="st2 st6 st9">6PM EST (UTC-4) every Wed!</tspan></text>
<g id="logo_5_">
	<g>
		<path class="st5" d="M66.1,34.7c0.5-8.2-3.1-16.4-9.8-21.7v6.5c3,3.5,4.8,7.9,5.1,12.4l-6.9,4c0.3-1.4,0.3-2.7,0.2-4.1V11.7
			c-0.4-0.3-0.8-0.5-1.2-0.8c-7.1-4.1-15.3-4.4-22.3-1.6l5.7,3.3c4.3-0.8,9-0.3,13.2,1.9v8c-0.7-0.6-1.4-1.2-2.3-1.6
			c-0.2-0.1-18.5-10.7-18.5-10.7c-4.3,2.2-8.1,5.6-10.7,10.1c-1.7,2.9-2.7,6.1-3.2,9.3l5.7-3.3c0.4-1.2,1-2.4,1.6-3.6
			c1.7-2.9,4-5.3,6.6-7l7,4c-0.9,0.3-1.8,0.7-2.6,1.2l0,0L15.1,31.7c-0.5,8.2,3,16.4,9.8,21.6v-6.6c-3-3.5-4.7-7.9-5-12.4l7-4
			c-0.2,0.9-0.3,1.9-0.3,2.8l0,0v21.3c0.4,0.3,0.9,0.5,1.3,0.8c7.1,4.1,15.3,4.4,22.4,1.5l-5.6-3.3c-4.4,0.9-9.1,0.3-13.3-1.8v-8
			c0.7,0.6,1.5,1.2,2.3,1.7C33.8,45.5,52.1,56,52.1,56c4.3-2.2,8-5.6,10.6-10.1c1.7-2.9,2.7-6.1,3.2-9.2L60.2,40
			c-0.4,1.2-1,2.4-1.6,3.6c-1.7,2.9-3.9,5.3-6.6,7l-6.9-4c1.3-0.4,2.6-1.1,3.8-1.9L66.1,34.7z M46.2,40.7l-1,0.6v0.1
			c-2.6,1.5-5.9,1.7-8.8,0.3L36,41.3l0,0c-4.5-2.6-6-8.3-3.4-12.8c2.5-4.3,7.9-5.9,12.3-3.7l0.5,0.3l0,0l0,0
			c2.7,1.5,4.3,4.2,4.6,7.1v1l0,0c0,1.6-0.4,3.2-1.3,4.7C48.1,39,47.2,40,46.2,40.7z"/>
	</g>
</g>
<line class="st1" x1="90.1" y1="33.7" x2="125.1" y2="33.3"/>
<line class="st1" x1="0.1" y1="32.3" x2="35.1" y2="32"/>
<g id="surface1">
	<path d="M285.9,44.1c0,0-4.1,0.2-6.8,2c0,0,0,0,0,0c-0.5,0.4-0.8,0.9-1.2,1.7c-0.4,0.8-0.9,1.8-1.3,2.9c-0.8,2.3-1.5,5-1.5,7.7
		c0,0.1,0,0.2,0.1,0.3c0.9,1.4,2.7,2.2,4.3,2.7c1.6,0.5,3.1,0.7,3.8,0.7c0.2,0,0.4-0.1,0.5-0.2l1.6-1.8c1.3,0.2,2.7,0.4,4.4,0.4
		s3.2-0.2,4.4-0.4l1.6,1.8c0.1,0.1,0.3,0.2,0.5,0.2c0.8,0,2.2-0.2,3.8-0.7c1.6-0.5,3.3-1.3,4.3-2.7c0.1-0.1,0.1-0.2,0.1-0.3
		c0-2.6-0.7-5.4-1.5-7.7c-0.4-1.1-0.9-2.1-1.3-2.9c-0.4-0.8-0.8-1.3-1.2-1.7c0,0,0,0,0,0c-2.7-1.8-6.8-2-6.8-2c0,0-0.1,0-0.1,0
		c-0.2,0-0.4,0.1-0.5,0.3c0,0-0.2,0.4-0.4,1c-1.3-0.2-2.3-0.2-2.9-0.2s-1.7,0-2.9,0.2c-0.1-0.6-0.4-1-0.4-1
		C286.4,44.2,286.1,44.1,285.9,44.1z M285.5,45.3c0,0.1,0.1,0.2,0.1,0.3c-1.4,0.3-3,0.7-4.5,1.5c-0.2,0.1-0.4,0.3-0.4,0.5
		c0,0.2,0.1,0.4,0.4,0.5c0.2,0.1,0.5,0.1,0.7-0.1c3-1.5,6.8-1.7,8-1.7c1.3,0,5.1,0.2,8,1.7c0.2,0.1,0.5,0.2,0.7,0.1
		c0.2-0.1,0.4-0.3,0.4-0.5c0-0.2-0.2-0.4-0.4-0.5c-1.5-0.8-3.1-1.2-4.5-1.5c0-0.1,0.1-0.2,0.1-0.3c0.7,0.1,3.6,0.4,5.5,1.7
		c0.1,0.1,0.6,0.6,1,1.4s0.8,1.7,1.2,2.8c0.8,2.1,1.4,4.8,1.4,7.2c-0.7,1-2.1,1.7-3.5,2.2c-1.3,0.4-2.5,0.6-3.1,0.6l-1.1-1.2
		c0.6-0.1,1-0.3,1.5-0.5c1.6-0.6,2.5-1.2,2.5-1.2c0.3-0.2,0.3-0.5,0.1-0.8c-0.2-0.2-0.6-0.2-0.9,0c0,0-0.7,0.5-2.1,1
		c-0.5,0.2-1.2,0.4-1.9,0.6c-0.2,0-0.3,0-0.5,0.1c-1.2,0.2-2.6,0.4-4.3,0.4c-1.7,0-3.1-0.2-4.3-0.4c-0.1-0.1-0.3-0.1-0.5-0.1
		c-0.7-0.2-1.4-0.4-1.9-0.6c-1.5-0.5-2.1-1-2.1-1c-0.1-0.1-0.3-0.2-0.5-0.1c-0.2,0-0.5,0.2-0.5,0.4c-0.1,0.2,0,0.4,0.2,0.5
		c0,0,0.9,0.6,2.5,1.2c0.4,0.2,0.9,0.3,1.5,0.5l-1.1,1.2c-0.6,0-1.8-0.2-3.1-0.6c-1.4-0.5-2.8-1.2-3.5-2.2c0-2.4,0.7-5,1.4-7.2
		c0.4-1.1,0.8-2,1.2-2.8c0.4-0.7,0.8-1.3,1-1.4C281.9,45.6,284.7,45.3,285.5,45.3z M285.6,51.5c-1.6,0-2.9,1.2-2.9,2.6
		s1.3,2.6,2.9,2.6c1.6,0,2.9-1.2,2.9-2.6S287.2,51.5,285.6,51.5z M293.9,51.5c-1.6,0-2.9,1.2-2.9,2.6s1.3,2.6,2.9,2.6
		c1.6,0,2.9-1.2,2.9-2.6S295.6,51.5,293.9,51.5z M285.6,52.6c0.8,0,1.6,0.7,1.6,1.6c0,0.9-0.8,1.6-1.6,1.6c-0.8,0-1.6-0.7-1.6-1.6
		C284,53.3,284.8,52.6,285.6,52.6z M293.9,52.6c0.8,0,1.6,0.7,1.6,1.6c0,0.9-0.8,1.6-1.6,1.6s-1.6-0.7-1.6-1.6
		C292.3,53.3,293.1,52.6,293.9,52.6z"/>
</g>
</svg>
